<?xml version="1.0" encoding="utf-8"?>
<!-- Generator: Adobe Illustrator 15.1.0, SVG Export Plug-In . SVG Version: 6.00 Build 0)  -->
<!DOCTYPE svg PUBLIC "-//W3C//DTD SVG 1.1//EN" "http://www.w3.org/Graphics/SVG/1.1/DTD/svg11.dtd">
<svg version="1.1" id="Layer_1" xmlns="http://www.w3.org/2000/svg" xmlns:xlink="http://www.w3.org/1999/xlink" x="0px" y="0px"
	 width="17.01px" height="19.84px" viewBox="0 0 17.01 19.84" enable-background="new 0 0 17.01 19.84" xml:space="preserve">
<g>
	<g>
		<rect x="0.126" y="0.124" fill="#FFFFFF" width="16.758" height="19.592"/>
		<g>
			<path fill="#E6E7E8" d="M16.759,0.249v19.342H0.251V0.249H16.759 M17.009-0.001H0.001v19.842h17.008V-0.001L17.009-0.001z"/>
		</g>
	</g>
	<g>
		<linearGradient id="SVGID_1_" gradientUnits="userSpaceOnUse" x1="8.5054" y1="2.8389" x2="8.5054" y2="17.0015">
			<stop  offset="0" style="stop-color:#548CB5"/>
			<stop  offset="1" style="stop-color:#3E4871;stop-opacity:0.95"/>
		</linearGradient>
		<path fill="url(#SVGID_1_)" d="M14.059,8.157h-0.345c-0.073-0.211-0.154-0.408-0.245-0.598l0.38-0.379
			C14.14,6.89,14.3,6.507,14.3,6.099c-0.003-0.412-0.163-0.795-0.451-1.082L13.476,4.64c-0.288-0.289-0.672-0.447-1.082-0.447
			s-0.795,0.158-1.082,0.449l-0.364,0.363c-0.21-0.104-0.427-0.195-0.646-0.27V4.366c0-0.842-0.688-1.527-1.532-1.527h-0.53
			c-0.844,0-1.529,0.686-1.529,1.527v0.369C6.487,4.81,6.271,4.901,6.063,5.005L5.699,4.642C5.413,4.351,5.028,4.192,4.617,4.192
			c-0.409,0-0.794,0.158-1.082,0.449L3.162,5.017C2.873,5.304,2.715,5.688,2.715,6.099s0.158,0.793,0.446,1.082l0.38,0.379
			C3.449,7.751,3.368,7.952,3.298,8.157H2.954c-0.844,0-1.53,0.688-1.53,1.529v0.531c0,0.842,0.687,1.529,1.53,1.529h0.354
			c0.071,0.207,0.157,0.412,0.255,0.611l-0.402,0.4c-0.595,0.596-0.595,1.568,0,2.164l0.374,0.373
			c0.287,0.289,0.673,0.449,1.082,0.449c0.411,0,0.796-0.16,1.081-0.447l0.408-0.406c0.199,0.096,0.401,0.18,0.604,0.248v0.33
			c0,0.844,0.686,1.531,1.529,1.531h0.53c0.845,0,1.532-0.688,1.532-1.531v-0.33c0.203-0.07,0.405-0.152,0.602-0.248l0.408,0.404
			c0.287,0.289,0.671,0.449,1.082,0.449c0.41,0,0.795-0.16,1.082-0.447l0.373-0.375c0.289-0.289,0.448-0.672,0.448-1.082
			s-0.159-0.795-0.448-1.084l-0.4-0.398c0.097-0.201,0.184-0.408,0.253-0.611h0.357c0.843,0,1.528-0.688,1.528-1.529V9.687
			C15.587,8.845,14.901,8.157,14.059,8.157z M13,10.81l-0.097,0.344c-0.101,0.369-0.25,0.723-0.439,1.057l-0.18,0.311l0.901,0.902
			c0.111,0.111,0.172,0.258,0.172,0.416c0.002,0.158-0.06,0.307-0.173,0.42l-0.374,0.375c-0.211,0.215-0.626,0.211-0.835,0.002
			l-0.904-0.904l-0.311,0.174c-0.334,0.189-0.688,0.334-1.051,0.432l-0.349,0.096v1.037c0,0.326-0.266,0.592-0.592,0.592h-0.53
			c-0.324,0-0.59-0.266-0.59-0.592v-1.037l-0.347-0.096c-0.366-0.098-0.72-0.242-1.053-0.432l-0.311-0.174l-0.902,0.902
			c-0.211,0.213-0.625,0.213-0.837,0.002l-0.374-0.377c-0.112-0.113-0.175-0.262-0.173-0.42c0-0.158,0.061-0.305,0.173-0.416
			l0.899-0.902L4.547,12.21c-0.188-0.33-0.338-0.686-0.44-1.057L4.013,10.81H2.954c-0.326,0-0.592-0.266-0.592-0.592V9.687
			c0-0.326,0.266-0.592,0.592-0.592h1.052l0.095-0.346C4.199,8.376,4.343,8.022,4.524,7.7L4.698,7.39L3.825,6.517
			c-0.111-0.111-0.172-0.26-0.172-0.418s0.061-0.307,0.173-0.418L4.2,5.306c0.208-0.211,0.626-0.211,0.836-0.002L5.9,6.169
			l0.312-0.18C6.55,5.792,6.917,5.638,7.304,5.532l0.346-0.094V4.366c0-0.326,0.266-0.59,0.59-0.59h0.53
			c0.326,0,0.592,0.264,0.592,0.59v1.072l0.346,0.094c0.384,0.105,0.75,0.26,1.089,0.457l0.314,0.18l0.863-0.863
			c0.213-0.211,0.626-0.211,0.837,0l0.374,0.373c0.112,0.113,0.173,0.262,0.175,0.42c0,0.158-0.062,0.307-0.175,0.418L12.312,7.39
			L12.485,7.7c0.181,0.318,0.324,0.672,0.428,1.049l0.091,0.346h1.055c0.326,0,0.591,0.266,0.591,0.592v0.531
			c0,0.326-0.265,0.592-0.591,0.592H13z"/>
		<linearGradient id="SVGID_2_" gradientUnits="userSpaceOnUse" x1="8.5054" y1="7.249" x2="8.5054" y2="12.689">
			<stop  offset="0" style="stop-color:#548CB5"/>
			<stop  offset="1" style="stop-color:#3E4871;stop-opacity:0.95"/>
		</linearGradient>
		<path fill="url(#SVGID_2_)" d="M8.505,7.249c-1.5,0-2.719,1.221-2.719,2.721c0,1.498,1.219,2.719,2.719,2.719
			c1.499,0,2.72-1.221,2.72-2.719C11.225,8.47,10.004,7.249,8.505,7.249z M8.505,11.458c-0.84,0-1.522-0.682-1.522-1.523
			c0-0.838,0.683-1.52,1.522-1.52s1.523,0.682,1.523,1.52C10.028,10.776,9.345,11.458,8.505,11.458z"/>
	</g>
</g>
</svg>
