<?xml version="1.0" encoding="utf-8"?>
<!-- Generator: Adobe Illustrator 15.1.0, SVG Export Plug-In . SVG Version: 6.00 Build 0)  -->
<!DOCTYPE svg PUBLIC "-//W3C//DTD SVG 1.1//EN" "http://www.w3.org/Graphics/SVG/1.1/DTD/svg11.dtd">
<svg version="1.1" id="Layer_1" xmlns="http://www.w3.org/2000/svg" xmlns:xlink="http://www.w3.org/1999/xlink" x="0px" y="0px"
	 width="72px" height="57.6px" viewBox="0 0 72 57.6" enable-background="new 0 0 72 57.6" xml:space="preserve">
<g>
	<linearGradient id="SVGID_1_" gradientUnits="userSpaceOnUse" x1="34.1411" y1="44.499" x2="34.1411" y2="50.0596">
		<stop  offset="0" style="stop-color:#6DBEDC"/>
		<stop  offset="1" style="stop-color:#4181C3;stop-opacity:0.95"/>
	</linearGradient>
	<rect x="30.208" y="44.499" fill="url(#SVGID_1_)" width="7.867" height="5.561"/>
	<linearGradient id="SVGID_2_" gradientUnits="userSpaceOnUse" x1="35.9995" y1="7.54" x2="35.9995" y2="39.5229">
		<stop  offset="0" style="stop-color:#6DBEDC"/>
		<stop  offset="1" style="stop-color:#4181C3;stop-opacity:0.95"/>
	</linearGradient>
	<path fill="url(#SVGID_2_)" d="M44.296,10.607c-3.283-2.912-8.465-3.782-14.676-2.475c-1.838,0.384-3.408,0.836-4.668,1.342
		l-0.779,0.312v7.466h1.908l0.309-0.204c0.889-0.583,2.082-1.157,3.539-1.711c2.936-1.108,6.682-1.138,8.637,0.398
		c0.939,0.734,1.396,1.861,1.396,3.456c0,1.168-0.217,2.174-0.66,3.068c-0.471,0.942-1.129,1.813-1.973,2.605
		c-0.67,0.661-1.635,1.39-2.865,2.173c-1.303,0.831-2.439,1.54-3.416,2.134l-0.6,0.364v9.986h7.207v-6.559
		c1.145-0.711,2.246-1.449,3.285-2.193c1.266-0.904,2.414-1.905,3.416-2.979c1.049-1.133,1.895-2.445,2.508-3.903
		c0.639-1.482,0.963-3.198,0.963-5.09C47.827,15.438,46.638,12.683,44.296,10.607z"/>
</g>
</svg>
