<?xml version="1.0" encoding="utf-8"?>
<!-- Generator: Adobe Illustrator 15.1.0, SVG Export Plug-In . SVG Version: 6.00 Build 0)  -->
<!DOCTYPE svg PUBLIC "-//W3C//DTD SVG 1.1//EN" "http://www.w3.org/Graphics/SVG/1.1/DTD/svg11.dtd">
<svg version="1.1" id="Layer_1" xmlns="http://www.w3.org/2000/svg" xmlns:xlink="http://www.w3.org/1999/xlink" x="0px" y="0px"
	 width="72px" height="57.6px" viewBox="0 0 72 57.6" enable-background="new 0 0 72 57.6" xml:space="preserve">
<g>
	<g>
		<linearGradient id="SVGID_1_" gradientUnits="userSpaceOnUse" x1="36" y1="0.4531" x2="36" y2="57.147">
			<stop  offset="0" style="stop-color:#2A8A55"/>
			<stop  offset="1" style="stop-color:#004625;stop-opacity:0.95"/>
		</linearGradient>
		<polygon fill="url(#SVGID_1_)" points="11.293,51.432 60.707,57.146 60.707,0.453 11.293,6.158 		"/>
	</g>
	<g>
		<path fill="#FFFFFF" d="M25.773,16.494c0,0,4.45,7.178,5.157,8.436h0.104c0.704-1.367,4.901-8.436,4.901-8.436h6.768l-8.238,11.82
			l8.388,12.781h-7.075c0,0-4.494-7.523-5.202-8.893h-0.105c-0.708,1.416-5.049,8.893-5.049,8.893h-6.878l8.546-12.527
			l-8.239-12.074H25.773z"/>
	</g>
	<g>
		<path fill="#FFFFFF" d="M46.578,48.424c1.1-3.004,2.451-8.355,3.002-12.014l4.9-0.494c-1.199,4.248-3.398,9.803-4.801,12.152
			L46.578,48.424z"/>
	</g>
</g>
</svg>
