<?xml version="1.0" encoding="utf-8"?>
<!-- Generator: Adobe Illustrator 15.1.0, SVG Export Plug-In . SVG Version: 6.00 Build 0)  -->
<!DOCTYPE svg PUBLIC "-//W3C//DTD SVG 1.1//EN" "http://www.w3.org/Graphics/SVG/1.1/DTD/svg11.dtd">
<svg version="1.1" id="Layer_1" xmlns="http://www.w3.org/2000/svg" xmlns:xlink="http://www.w3.org/1999/xlink" x="0px" y="0px"
	 width="72px" height="57.6px" viewBox="0 0 72 57.6" enable-background="new 0 0 72 57.6" xml:space="preserve">
<g>
	<g>
		<path fill="#939598" d="M52.732,19.797h-1.275c-0.277-0.783-0.578-1.517-0.912-2.22l1.412-1.403
			c1.074-1.082,1.674-2.504,1.674-4.016c-0.01-1.531-0.607-2.953-1.674-4.018l-1.385-1.399c-1.07-1.074-2.496-1.66-4.018-1.66
			c-1.525,0-2.947,0.586-4.016,1.664l-1.352,1.352c-0.783-0.38-1.584-0.726-2.396-1.002V5.729c0-3.131-2.55-5.671-5.686-5.671
			h-1.968c-3.132,0-5.676,2.54-5.676,5.671v1.365c-0.827,0.276-1.628,0.622-2.402,1.002l-1.345-1.352
			c-1.07-1.078-2.496-1.664-4.018-1.664S14.75,5.667,13.68,6.745l-1.386,1.396c-1.07,1.064-1.659,2.492-1.659,4.018
			c0,1.515,0.589,2.938,1.654,4.016l1.413,1.403c-0.34,0.713-0.644,1.455-0.903,2.22h-1.274c-3.136,0-5.681,2.549-5.681,5.676v1.972
			c0,3.122,2.545,5.677,5.681,5.677h1.314c0.264,0.77,0.582,1.524,0.949,2.264l-1.499,1.487c-2.21,2.211-2.21,5.82,0,8.034
			l1.391,1.382c1.065,1.074,2.495,1.669,4.017,1.669s2.947-0.595,4.012-1.664l1.513-1.508c0.742,0.358,1.489,0.671,2.24,0.922v1.225
			c0,3.133,2.544,5.682,5.676,5.682h1.968c3.136,0,5.686-2.549,5.686-5.682v-1.225c0.756-0.26,1.502-0.563,2.236-0.922l1.512,1.503
			c1.068,1.074,2.486,1.669,4.016,1.669c1.521,0,2.953-0.595,4.018-1.664l1.385-1.387c1.07-1.074,1.664-2.495,1.664-4.017
			c0-1.524-0.594-2.952-1.664-4.025l-1.488-1.479c0.357-0.744,0.68-1.514,0.939-2.264h1.324c3.125,0,5.676-2.555,5.676-5.677v-1.972
			C58.408,22.346,55.857,19.797,52.732,19.797z M48.805,29.641l-0.357,1.276c-0.371,1.368-0.926,2.683-1.633,3.921l-0.666,1.15
			l3.346,3.349c0.41,0.418,0.635,0.959,0.635,1.544c0.01,0.591-0.219,1.135-0.641,1.556l-1.385,1.396
			c-0.783,0.797-2.322,0.783-3.1,0.006l-3.359-3.355l-1.15,0.645c-1.238,0.702-2.553,1.244-3.9,1.602l-1.292,0.358v3.845
			c0,1.208-0.984,2.202-2.197,2.202h-1.968c-1.204,0-2.187-0.994-2.187-2.202v-3.845l-1.289-0.358
			c-1.363-0.357-2.67-0.899-3.908-1.602l-1.154-0.645l-3.346,3.35c-0.782,0.788-2.316,0.788-3.104,0.006l-1.387-1.401
			c-0.421-0.421-0.653-0.965-0.645-1.556c0-0.585,0.224-1.126,0.645-1.544l3.336-3.349l-0.661-1.15
			c-0.702-1.229-1.257-2.549-1.638-3.921l-0.349-1.276h-3.927c-1.212,0-2.197-0.984-2.197-2.196v-1.972
			c0-1.213,0.985-2.196,2.197-2.196h3.904l0.35-1.284c0.366-1.387,0.898-2.696,1.574-3.89l0.645-1.155l-3.244-3.237
			c-0.411-0.417-0.635-0.966-0.635-1.552s0.224-1.142,0.645-1.554l1.387-1.39c0.768-0.783,2.321-0.783,3.104-0.01l3.203,3.211
			l1.158-0.666c1.252-0.733,2.615-1.307,4.053-1.699l1.283-0.345V5.729c0-1.212,0.982-2.191,2.187-2.191h1.968
			c1.213,0,2.197,0.979,2.197,2.191v3.977l1.283,0.345c1.426,0.393,2.782,0.966,4.04,1.699l1.166,0.666l3.203-3.201
			c0.791-0.783,2.326-0.783,3.109,0l1.385,1.382c0.416,0.42,0.641,0.976,0.65,1.562c0,0.586-0.229,1.135-0.65,1.552l-3.238,3.237
			l0.645,1.155c0.676,1.179,1.203,2.491,1.588,3.89l0.336,1.284h3.914c1.211,0,2.191,0.983,2.191,2.196v1.972
			c0,1.212-0.98,2.196-2.191,2.196H48.805z"/>
		<path fill="#939598" d="M32.125,16.428c-5.568,0-10.091,4.528-10.091,10.095c0,5.556,4.522,10.091,10.091,10.091
			c5.56,0,10.091-4.535,10.091-10.091C42.217,20.956,37.686,16.428,32.125,16.428z M32.125,32.047c-3.117,0-5.653-2.531-5.653-5.653
			c0-3.113,2.536-5.645,5.653-5.645c3.114,0,5.654,2.531,5.654,5.645C37.779,29.516,35.24,32.047,32.125,32.047z"/>
	</g>
	<g>
		<polygon fill="#FFFFFF" points="47.648,31.931 47.648,52.73 61.512,42.33 		"/>
		<path fill="#F36D28" d="M64.631,39.28L49.436,27.884c-1.127-0.85-2.705-1-3.992-0.361c-1.299,0.652-2.105,1.958-2.105,3.408v22.8
			c0,1.453,0.807,2.76,2.107,3.41c0.529,0.262,1.117,0.4,1.703,0.4c0.834,0,1.625-0.264,2.285-0.762l15.199-11.403
			c0.953-0.715,1.523-1.854,1.523-3.046C66.156,41.135,65.586,39.995,64.631,39.28z M61.512,42.33l-13.863,10.4v-20.8L61.512,42.33z
			"/>
	</g>
</g>
</svg>
