<?xml version="1.0" encoding="utf-8"?>
<!-- Generator: Adobe Illustrator 15.1.0, SVG Export Plug-In . SVG Version: 6.00 Build 0)  -->
<!DOCTYPE svg PUBLIC "-//W3C//DTD SVG 1.1//EN" "http://www.w3.org/Graphics/SVG/1.1/DTD/svg11.dtd">
<svg version="1.1" id="Layer_1" xmlns="http://www.w3.org/2000/svg" xmlns:xlink="http://www.w3.org/1999/xlink" x="0px" y="0px"
	 width="17.01px" height="19.84px" viewBox="0 0 17.01 19.84" enable-background="new 0 0 17.01 19.84" xml:space="preserve">
<g>
	<g>
		<path fill="#939598" d="M11.817,6.67h-0.278C11.479,6.5,11.413,6.339,11.34,6.186l0.309-0.307
			c0.234-0.236,0.365-0.547,0.365-0.877c-0.002-0.334-0.133-0.645-0.365-0.877L11.346,3.82c-0.233-0.234-0.545-0.362-0.877-0.362
			c-0.333,0-0.644,0.128-0.877,0.363L9.297,4.116C9.126,4.033,8.951,3.958,8.773,3.897V3.599c0-0.684-0.557-1.238-1.241-1.238h-0.43
			c-0.684,0-1.239,0.555-1.239,1.238v0.298C5.683,3.958,5.508,4.033,5.339,4.116L5.045,3.821C4.812,3.585,4.5,3.458,4.168,3.458
			S3.524,3.585,3.291,3.821L2.988,4.125C2.755,4.358,2.626,4.669,2.626,5.002c0,0.331,0.129,0.642,0.361,0.877l0.309,0.307
			C3.222,6.341,3.155,6.503,3.099,6.67H2.82c-0.685,0-1.24,0.557-1.24,1.239V8.34c0,0.682,0.556,1.239,1.24,1.239h0.287
			c0.058,0.168,0.127,0.333,0.207,0.494l-0.327,0.325c-0.482,0.482-0.482,1.271,0,1.753l0.304,0.303
			c0.232,0.234,0.545,0.363,0.877,0.363s0.644-0.129,0.876-0.363l0.33-0.328c0.162,0.078,0.325,0.146,0.489,0.201v0.268
			c0,0.684,0.556,1.24,1.239,1.24h0.43c0.685,0,1.241-0.557,1.241-1.24v-0.268c0.165-0.057,0.328-0.123,0.488-0.201l0.33,0.328
			c0.233,0.234,0.543,0.363,0.877,0.363c0.332,0,0.645-0.129,0.877-0.363l0.303-0.303c0.233-0.234,0.363-0.545,0.363-0.877
			c0-0.333-0.13-0.644-0.363-0.878l-0.325-0.323c0.078-0.162,0.148-0.33,0.205-0.494h0.289c0.683,0,1.239-0.558,1.239-1.239V7.91
			C13.057,7.227,12.5,6.67,11.817,6.67z M10.96,8.82l-0.078,0.278c-0.081,0.299-0.202,0.586-0.356,0.856l-0.146,0.251l0.73,0.731
			c0.09,0.09,0.139,0.209,0.139,0.336c0.002,0.129-0.048,0.248-0.14,0.34l-0.303,0.305c-0.171,0.174-0.507,0.172-0.677,0.002
			l-0.733-0.732l-0.251,0.141c-0.271,0.152-0.558,0.271-0.852,0.35l-0.282,0.078v0.84c0,0.264-0.215,0.48-0.479,0.48h-0.43
			c-0.263,0-0.478-0.217-0.478-0.48v-0.84l-0.281-0.078C6.046,11.6,5.761,11.48,5.49,11.328l-0.252-0.141l-0.73,0.73
			C4.337,12.09,4.002,12.09,3.83,11.92l-0.303-0.307c-0.092-0.092-0.143-0.211-0.141-0.34c0-0.127,0.049-0.246,0.141-0.336
			l0.729-0.731L4.111,9.955C3.958,9.686,3.837,9.398,3.754,9.098L3.678,8.82H2.82c-0.265,0-0.479-0.215-0.479-0.479V7.91
			c0-0.265,0.215-0.479,0.479-0.479h0.853l0.076-0.28c0.08-0.303,0.196-0.589,0.344-0.85l0.141-0.252L3.525,5.341
			C3.436,5.25,3.387,5.13,3.387,5.002s0.049-0.249,0.141-0.339L3.83,4.36c0.168-0.171,0.507-0.171,0.678-0.002l0.699,0.701
			L5.46,4.914c0.273-0.16,0.571-0.285,0.885-0.371l0.28-0.075V3.599c0-0.265,0.215-0.479,0.478-0.479h0.43
			c0.265,0,0.479,0.214,0.479,0.479v0.868l0.28,0.075c0.312,0.086,0.607,0.211,0.882,0.371l0.255,0.146l0.699-0.699
			c0.173-0.171,0.508-0.171,0.679,0l0.303,0.302c0.091,0.092,0.14,0.213,0.142,0.341c0,0.128-0.05,0.248-0.142,0.339l-0.707,0.707
			L10.543,6.3c0.147,0.258,0.263,0.544,0.347,0.85l0.073,0.28h0.854c0.265,0,0.479,0.215,0.479,0.479V8.34
			c0,0.265-0.214,0.479-0.479,0.479H10.96z"/>
		<path fill="#939598" d="M7.318,5.935c-1.216,0-2.203,0.988-2.203,2.204c0,1.213,0.987,2.203,2.203,2.203
			c1.214,0,2.203-0.99,2.203-2.203C9.521,6.923,8.532,5.935,7.318,5.935z M7.318,9.345c-0.681,0-1.234-0.553-1.234-1.234
			c0-0.68,0.554-1.232,1.234-1.232c0.68,0,1.234,0.553,1.234,1.232C8.553,8.792,7.998,9.345,7.318,9.345z"/>
	</g>
	<g>
		<polygon fill="#FFFFFF" points="14.43,13.035 9.839,16.479 9.839,9.591 		"/>
		<path fill="#F36C27" d="M9.839,9.591l4.591,3.444l-4.591,3.443V9.591 M9.839,8.591c-0.152,0-0.306,0.035-0.447,0.105
			c-0.339,0.17-0.553,0.516-0.553,0.895v6.887c0,0.379,0.214,0.727,0.553,0.895c0.142,0.07,0.295,0.105,0.447,0.105
			c0.213,0,0.424-0.066,0.6-0.199l4.592-3.445c0.251-0.188,0.399-0.484,0.399-0.799s-0.148-0.611-0.4-0.801l-4.591-3.443
			C10.263,8.659,10.052,8.591,9.839,8.591L9.839,8.591z"/>
	</g>
</g>
</svg>
