<?xml version="1.0" encoding="utf-8"?>
<!-- Generator: Adobe Illustrator 15.1.0, SVG Export Plug-In . SVG Version: 6.00 Build 0)  -->
<!DOCTYPE svg PUBLIC "-//W3C//DTD SVG 1.1//EN" "http://www.w3.org/Graphics/SVG/1.1/DTD/svg11.dtd">
<svg version="1.1" id="Layer_1" xmlns="http://www.w3.org/2000/svg" xmlns:xlink="http://www.w3.org/1999/xlink" x="0px" y="0px"
	 width="17.01px" height="19.84px" viewBox="0 0 17.01 19.84" enable-background="new 0 0 17.01 19.84" xml:space="preserve">
<g>
	<g>
		<linearGradient id="SVGID_1_" gradientUnits="userSpaceOnUse" x1="6.6748" y1="6.2754" x2="6.6748" y2="17.7661">
			<stop  offset="0" style="stop-color:#D9313B"/>
			<stop  offset="1" style="stop-color:#700E1F;stop-opacity:0.95"/>
		</linearGradient>
		<path fill="url(#SVGID_1_)" d="M8.34,14.004H3.99l-0.761,1.773c-0.188,0.438-0.282,0.762-0.282,0.979
			c0,0.172,0.081,0.322,0.245,0.451c0.162,0.129,0.516,0.215,1.056,0.252v0.307H0.709v-0.307c0.47-0.082,0.774-0.189,0.911-0.322
			c0.282-0.266,0.595-0.803,0.938-1.615l3.951-9.246h0.29l3.912,9.344c0.314,0.754,0.6,1.24,0.857,1.465
			c0.256,0.223,0.613,0.348,1.072,0.375v0.307H8.208v-0.307c0.446-0.021,0.749-0.096,0.907-0.223
			c0.157-0.127,0.234-0.281,0.234-0.465c0-0.242-0.109-0.627-0.33-1.152L8.34,14.004z M8.109,13.391L6.203,8.852l-1.955,4.539H8.109
			z"/>
	</g>
	<g>
		<linearGradient id="SVGID_2_" gradientUnits="userSpaceOnUse" x1="12.8535" y1="2.0742" x2="12.8535" y2="10.043">
			<stop  offset="0" style="stop-color:#D9313B"/>
			<stop  offset="1" style="stop-color:#700E1F;stop-opacity:0.95"/>
		</linearGradient>
		<path fill="url(#SVGID_2_)" d="M13.633,8.793c-0.779,0.602-1.268,0.949-1.467,1.043c-0.299,0.139-0.617,0.207-0.953,0.207
			c-0.525,0-0.957-0.178-1.297-0.537C9.576,9.146,9.407,8.674,9.407,8.09c0-0.371,0.082-0.691,0.248-0.963
			c0.227-0.375,0.619-0.729,1.181-1.059c0.561-0.332,1.492-0.736,2.797-1.211V4.559c0-0.756-0.121-1.275-0.361-1.557
			s-0.59-0.422-1.049-0.422c-0.348,0-0.623,0.094-0.828,0.281c-0.209,0.188-0.314,0.402-0.314,0.646l0.016,0.48
			c0,0.254-0.064,0.449-0.193,0.588c-0.131,0.139-0.301,0.207-0.51,0.207c-0.205,0-0.371-0.072-0.501-0.215
			c-0.13-0.145-0.194-0.342-0.194-0.59c0-0.475,0.242-0.91,0.729-1.309c0.486-0.398,1.168-0.596,2.047-0.596
			c0.674,0,1.225,0.113,1.656,0.338c0.326,0.172,0.566,0.439,0.721,0.805c0.1,0.238,0.148,0.725,0.148,1.459v2.576
			c0,0.723,0.016,1.166,0.043,1.33c0.027,0.162,0.072,0.271,0.137,0.326c0.063,0.057,0.137,0.084,0.219,0.084
			c0.088,0,0.166-0.02,0.232-0.059c0.115-0.07,0.34-0.273,0.672-0.605v0.465c-0.619,0.828-1.211,1.244-1.773,1.244
			c-0.271,0-0.486-0.096-0.646-0.283S13.639,9.246,13.633,8.793z M13.633,8.254V5.363c-0.836,0.332-1.373,0.566-1.615,0.705
			c-0.438,0.242-0.75,0.496-0.938,0.76c-0.188,0.266-0.281,0.557-0.281,0.871c0,0.398,0.117,0.729,0.355,0.99
			c0.236,0.262,0.512,0.395,0.82,0.395C12.395,9.084,12.947,8.807,13.633,8.254z"/>
	</g>
</g>
</svg>
