<?xml version="1.0" encoding="utf-8"?>
<!-- Generator: Adobe Illustrator 15.1.0, SVG Export Plug-In . SVG Version: 6.00 Build 0)  -->
<!DOCTYPE svg PUBLIC "-//W3C//DTD SVG 1.1//EN" "http://www.w3.org/Graphics/SVG/1.1/DTD/svg11.dtd">
<svg version="1.1" id="Layer_1" xmlns="http://www.w3.org/2000/svg" xmlns:xlink="http://www.w3.org/1999/xlink" x="0px" y="0px"
	 width="72px" height="57.6px" viewBox="0 0 72 57.6" enable-background="new 0 0 72 57.6" xml:space="preserve">
<g>
	<g>
		<linearGradient id="SVGID_1_" gradientUnits="userSpaceOnUse" x1="29.3901" y1="15.6299" x2="29.3901" y2="57.146">
			<stop  offset="0" style="stop-color:#D9313B"/>
			<stop  offset="1" style="stop-color:#700E1F;stop-opacity:0.95"/>
		</linearGradient>
		<path fill="url(#SVGID_1_)" d="M35.405,43.556H19.688l-2.748,6.408c-0.678,1.572-1.02,2.75-1.02,3.527
			c0,0.621,0.293,1.164,0.885,1.629c0.586,0.473,1.863,0.775,3.814,0.918v1.107H7.839v-1.107c1.697-0.297,2.797-0.691,3.291-1.164
			c1.02-0.959,2.148-2.906,3.387-5.842L28.79,15.63h1.049l14.129,33.762c1.135,2.717,2.17,4.475,3.098,5.285
			s2.219,1.262,3.877,1.361v1.107H34.929v-1.107c1.613-0.078,2.707-0.346,3.277-0.811c0.568-0.459,0.848-1.018,0.848-1.674
			c0-0.881-0.396-2.264-1.193-4.162L35.405,43.556z M34.569,41.341l-6.887-16.398L20.62,41.341H34.569z"/>
	</g>
	<g>
		<linearGradient id="SVGID_2_" gradientUnits="userSpaceOnUse" x1="51.71" y1="0.4541" x2="51.71" y2="29.2471">
			<stop  offset="0" style="stop-color:#D9313B"/>
			<stop  offset="1" style="stop-color:#700E1F;stop-opacity:0.95"/>
		</linearGradient>
		<path fill="url(#SVGID_2_)" d="M54.522,24.731c-2.811,2.174-4.578,3.43-5.299,3.768c-1.078,0.5-2.227,0.748-3.443,0.748
			c-1.895,0-3.457-0.648-4.684-1.939c-1.229-1.299-1.838-3.006-1.838-5.123c0-1.34,0.295-2.498,0.895-3.473
			c0.818-1.359,2.238-2.637,4.266-3.83c2.025-1.199,5.395-2.652,10.104-4.367v-1.08c0-2.736-0.434-4.613-1.301-5.629
			c-0.871-1.018-2.131-1.525-3.789-1.525c-1.256,0-2.254,0.338-2.992,1.023c-0.758,0.678-1.139,1.453-1.139,2.328l0.059,1.734
			c0,0.926-0.232,1.631-0.701,2.133c-0.469,0.492-1.084,0.74-1.842,0.74c-0.74,0-1.34-0.262-1.809-0.775
			c-0.471-0.516-0.703-1.229-0.703-2.125c0-1.715,0.875-3.295,2.635-4.727c1.754-1.439,4.217-2.158,7.391-2.158
			c2.436,0,4.428,0.408,5.984,1.227c1.182,0.621,2.045,1.588,2.607,2.906c0.359,0.854,0.535,2.611,0.535,5.264v9.314
			c0,2.609,0.053,4.211,0.152,4.805c0.1,0.586,0.264,0.973,0.494,1.178c0.229,0.197,0.494,0.297,0.789,0.297
			c0.322,0,0.604-0.064,0.84-0.205c0.42-0.26,1.229-0.994,2.428-2.188v1.68c-2.236,2.992-4.371,4.486-6.402,4.486
			c-0.982,0-1.762-0.338-2.34-1.016C54.841,27.519,54.544,26.362,54.522,24.731z M54.522,22.784V12.335
			c-3.016,1.199-4.959,2.047-5.834,2.547c-1.582,0.875-2.711,1.799-3.387,2.752c-0.678,0.959-1.018,2.004-1.018,3.141
			c0,1.445,0.428,2.631,1.285,3.584c0.857,0.945,1.848,1.418,2.967,1.418C50.054,25.776,52.046,24.782,54.522,22.784z"/>
	</g>
</g>
</svg>
