<?xml version="1.0" encoding="utf-8"?>
<!-- Generator: Adobe Illustrator 15.1.0, SVG Export Plug-In . SVG Version: 6.00 Build 0)  -->
<!DOCTYPE svg PUBLIC "-//W3C//DTD SVG 1.1//EN" "http://www.w3.org/Graphics/SVG/1.1/DTD/svg11.dtd">
<svg version="1.1" id="Layer_1" xmlns="http://www.w3.org/2000/svg" xmlns:xlink="http://www.w3.org/1999/xlink" x="0px" y="0px"
	 width="17.01px" height="19.84px" viewBox="0 0 17.01 19.84" enable-background="new 0 0 17.01 19.84" xml:space="preserve">
<g>
	<linearGradient id="SVGID_1_" gradientUnits="userSpaceOnUse" x1="8.7554" y1="2.3179" x2="8.7554" y2="6.687">
		<stop  offset="0" style="stop-color:#D9313B"/>
		<stop  offset="1" style="stop-color:#700E1F;stop-opacity:0.95"/>
	</linearGradient>
	<path fill="url(#SVGID_1_)" d="M6.055,3.73c0,0,3.12-0.029,5.611,2.957c0,0-1.116-3.861-3.756-4.342
		C6.562,2.097,5.343,3.605,6.055,3.73z"/>
	<linearGradient id="SVGID_2_" gradientUnits="userSpaceOnUse" x1="8.5044" y1="4.7822" x2="8.5044" y2="17.5229">
		<stop  offset="0" style="stop-color:#D9313B"/>
		<stop  offset="1" style="stop-color:#700E1F;stop-opacity:0.95"/>
	</linearGradient>
	<path fill="url(#SVGID_2_)" d="M14.426,8.757c-0.771-0.744-1.615-0.799-2.47-0.824l-0.001-0.002
		C10.832,6.333,7.778,4.312,4.261,4.88C1.707,5.296,2.169,7.46,2.146,7.878c4.065-0.764,5.702-0.152,6.31,0.246l0,0
		C3.202,8.98,2.806,12.246,2.739,12.84c-0.287,2.652,1.17,4.148,3.076,4.566c3.228,0.709,8.007-1.85,7.082-7.163
		c0.193,0.035,0.392,0.068,0.596,0.109c0.507,0.104,1.317,0.621,1.317,0.621S15.13,9.546,14.426,8.757z M7.129,15.203
		c-0.083-0.014-0.159-0.035-0.233-0.063c-1.739-0.723-1.612-4.711,3.148-5.067v0.002C11.669,12.125,10.008,15.725,7.129,15.203z"/>
</g>
</svg>
