<?xml version="1.0" encoding="utf-8"?>
<!-- Generator: Adobe Illustrator 15.1.0, SVG Export Plug-In . SVG Version: 6.00 Build 0)  -->
<!DOCTYPE svg PUBLIC "-//W3C//DTD SVG 1.1//EN" "http://www.w3.org/Graphics/SVG/1.1/DTD/svg11.dtd">
<svg version="1.1" id="Layer_1" xmlns="http://www.w3.org/2000/svg" xmlns:xlink="http://www.w3.org/1999/xlink" x="0px" y="0px"
	 width="17.01px" height="19.84px" viewBox="0 0 17.01 19.84" enable-background="new 0 0 17.01 19.84" xml:space="preserve">
<g>
	<linearGradient id="SVGID_1_" gradientUnits="userSpaceOnUse" x1="2.6768" y1="3.0225" x2="2.6768" y2="16.8179">
		<stop  offset="0" style="stop-color:#B0437A"/>
		<stop  offset="1" style="stop-color:#610C35;stop-opacity:0.95"/>
	</linearGradient>
	<path fill="url(#SVGID_1_)" d="M3.936,3.022v13.795H1.418V3.022H3.936z"/>
	<linearGradient id="SVGID_2_" gradientUnits="userSpaceOnUse" x1="11.1768" y1="4.6196" x2="11.1768" y2="16.8179">
		<stop  offset="0" style="stop-color:#B0437A"/>
		<stop  offset="1" style="stop-color:#610C35;stop-opacity:0.95"/>
	</linearGradient>
	<path fill="url(#SVGID_2_)" d="M6.761,4.867C7.603,4.725,8.646,4.62,9.767,4.62c1.932,0,3.25,0.461,4.2,1.385
		c1.013,0.944,1.625,2.384,1.625,4.413c0,2.151-0.628,3.734-1.608,4.766c-1.028,1.084-2.668,1.635-4.677,1.635
		c-1.091,0-1.918-0.07-2.546-0.158V4.867z M8.925,15.04c0.26,0.055,0.382,0.055,0.764,0.055C12.144,15.11,13,13.735,13,10.692
		c0.017-2.632-0.705-4.366-3.065-4.366c-0.598,0-0.734,0.053-1.01,0.125V15.04z"/>
</g>
</svg>
