<?xml version="1.0" encoding="utf-8"?>
<!-- Generator: Adobe Illustrator 15.1.0, SVG Export Plug-In . SVG Version: 6.00 Build 0)  -->
<!DOCTYPE svg PUBLIC "-//W3C//DTD SVG 1.1//EN" "http://www.w3.org/Graphics/SVG/1.1/DTD/svg11.dtd">
<svg version="1.1" id="Layer_1" xmlns="http://www.w3.org/2000/svg" xmlns:xlink="http://www.w3.org/1999/xlink" x="0px" y="0px"
	 width="17.01px" height="19.84px" viewBox="0 0 17.01 19.84" enable-background="new 0 0 17.01 19.84" xml:space="preserve">
<g>
	<path fill="#F16522" d="M16.3,16.681c0,0.57-0.463,1.034-1.034,1.034H1.744c-0.571,0-1.034-0.464-1.034-1.034V3.159
		c0-0.571,0.463-1.034,1.034-1.034h13.521c0.571,0,1.034,0.463,1.034,1.034V16.681z"/>
	<path fill="#FFFFFF" d="M14.418,15.048c0,0.433-0.351,0.785-0.785,0.785H3.377c-0.434,0-0.785-0.353-0.785-0.785V4.792
		c0-0.435,0.352-0.785,0.785-0.785h10.256c0.435,0,0.785,0.351,0.785,0.785V15.048z"/>
	<circle fill="#F16522" cx="11.125" cy="7.451" r="1.701"/>
	<polygon fill="#F16522" points="13.246,14.698 10.359,11.294 8.899,12.657 6.65,9.408 3.765,14.682 	"/>
</g>
</svg>
