<?xml version="1.0" encoding="utf-8"?>
<!-- Generator: Adobe Illustrator 15.1.0, SVG Export Plug-In . SVG Version: 6.00 Build 0)  -->
<!DOCTYPE svg PUBLIC "-//W3C//DTD SVG 1.1//EN" "http://www.w3.org/Graphics/SVG/1.1/DTD/svg11.dtd">
<svg version="1.1" id="Layer_1" xmlns="http://www.w3.org/2000/svg" xmlns:xlink="http://www.w3.org/1999/xlink" x="0px" y="0px"
	 width="17.01px" height="19.84px" viewBox="0 0 17.01 19.84" enable-background="new 0 0 17.01 19.84" xml:space="preserve">
<g>
	<g>
		<rect x="0.001" y="-0.001" fill="#F9DB3E" width="17.008" height="19.842"/>
	</g>
	<path fill="#282D31" d="M4.272,13.306c-0.308,0-0.551-0.055-0.744-0.167c-0.101-0.056-0.227-0.161-0.38-0.32l-0.968,1.061
		c0.29,0.306,0.591,0.528,0.894,0.662c0.326,0.142,0.729,0.214,1.198,0.214c0.828,0,1.526-0.27,2.075-0.801
		c0.598-0.584,0.901-1.379,0.901-2.363V5.165H5.781v6.344C5.781,12.994,4.961,13.306,4.272,13.306z"/>
	<path fill="#282D31" d="M14.72,10.772c-0.1-0.321-0.265-0.602-0.49-0.835c-0.357-0.361-0.9-0.603-1.61-0.717l-1.038-0.164
		c-0.369-0.058-0.667-0.199-0.884-0.418c-0.114-0.115-0.191-0.234-0.234-0.362c-0.041-0.121-0.062-0.259-0.062-0.425
		c0-0.4,0.129-0.729,0.382-0.979c0.254-0.251,0.625-0.378,1.103-0.378c0.351,0,0.688,0.05,1.006,0.148
		c0.29,0.09,0.556,0.247,0.792,0.467l0.922-1.01c-0.341-0.351-0.717-0.607-1.116-0.762c-0.435-0.168-0.958-0.253-1.555-0.253
		c-0.908,0-1.633,0.263-2.154,0.78C9.259,6.378,8.994,7.07,8.994,7.919c0,0.779,0.202,1.396,0.6,1.834
		c0.362,0.396,0.91,0.655,1.631,0.769l1.063,0.164c0.196,0.028,0.365,0.076,0.503,0.142c0.136,0.064,0.251,0.143,0.344,0.235
		c0.205,0.22,0.309,0.525,0.309,0.913c0,0.606-0.292,1.33-1.683,1.33c-0.452,0-0.868-0.066-1.234-0.199
		c-0.335-0.12-0.633-0.31-0.888-0.564l-0.946,1.051c0.386,0.415,0.813,0.712,1.272,0.883c0.494,0.186,1.091,0.279,1.772,0.279
		c0.92,0,1.675-0.247,2.243-0.735c0.602-0.521,0.895-1.207,0.895-2.099C14.874,11.488,14.822,11.102,14.72,10.772z"/>
</g>
</svg>
