<?xml version="1.0" encoding="utf-8"?>
<!-- Generator: Adobe Illustrator 15.1.0, SVG Export Plug-In . SVG Version: 6.00 Build 0)  -->
<!DOCTYPE svg PUBLIC "-//W3C//DTD SVG 1.1//EN" "http://www.w3.org/Graphics/SVG/1.1/DTD/svg11.dtd">
<svg version="1.1" id="Layer_1" xmlns="http://www.w3.org/2000/svg" xmlns:xlink="http://www.w3.org/1999/xlink" x="0px" y="0px"
	 width="72px" height="57.6px" viewBox="0 0 72 57.6" enable-background="new 0 0 72 57.6" xml:space="preserve">
<linearGradient id="SVGID_1_" gradientUnits="userSpaceOnUse" x1="35.9995" y1="0.4531" x2="35.9995" y2="57.147">
	<stop  offset="0" style="stop-color:#4A93CF"/>
	<stop  offset="1" style="stop-color:#005B96;stop-opacity:0.95"/>
</linearGradient>
<path fill="url(#SVGID_1_)" d="M62.047,0.453C49.84,0.691,35.708,2.807,23.522,6.793c-0.021-0.078,0.039,36.234,0.039,36.234
	c-2.202-0.498-4.688-0.213-7.313,0.975c-4.844,2.215-7.488,6.668-5.905,9.957c1.587,3.291,6.809,4.184,11.66,1.973
	c4.438-2.375,5.858-4.523,6.003-7.633l0.111-31.461c9.619-2.836,19.779-4.51,29.398-5.029v28.127
	c-2.227-0.543-5.182-0.266-7.849,0.947c-4.851,2.201-7.503,6.664-5.905,9.953c1.583,3.297,6.802,4.182,11.656,1.98
	c3.455-1.572,6.211-4.283,6.697-6.896C62.115,45.92,61.996,0.395,62.047,0.453z"/>
</svg>
