<?xml version="1.0" encoding="utf-8"?>
<!-- Generator: Adobe Illustrator 15.1.0, SVG Export Plug-In . SVG Version: 6.00 Build 0)  -->
<!DOCTYPE svg PUBLIC "-//W3C//DTD SVG 1.1//EN" "http://www.w3.org/Graphics/SVG/1.1/DTD/svg11.dtd">
<svg version="1.1" id="Layer_1" xmlns="http://www.w3.org/2000/svg" xmlns:xlink="http://www.w3.org/1999/xlink" x="0px" y="0px"
	 width="17.01px" height="19.84px" viewBox="0 0 17.01 19.84" enable-background="new 0 0 17.01 19.84" xml:space="preserve">
<g>
	<polygon fill="#486AB2" points="1.418,15.179 1.717,16.292 3.852,17.571 5.245,17.198 8.252,10.798 5.573,9.169 	"/>
	<path fill="#679AD1" d="M15.332,5.356l-1.777-0.838L12.35,4.673l-0.521-0.354l-0.07-0.932L9.92,2.327L8.75,2.64
		c0,0-2.473-1.428-6.933,1.32c0,0,3.482-0.156,5.886,2.127L5.573,9.169l2.68,1.629l1.519-3.234l1.086,0.486l0.254,0.945l1.633,0.967
		l0.947-0.254l1.9-3.383L15.332,5.356z"/>
</g>
</svg>
