<?xml version="1.0" encoding="utf-8"?>
<!-- Generator: Adobe Illustrator 15.1.0, SVG Export Plug-In . SVG Version: 6.00 Build 0)  -->
<!DOCTYPE svg PUBLIC "-//W3C//DTD SVG 1.1//EN" "http://www.w3.org/Graphics/SVG/1.1/DTD/svg11.dtd">
<svg version="1.1" id="Layer_1" xmlns="http://www.w3.org/2000/svg" xmlns:xlink="http://www.w3.org/1999/xlink" x="0px" y="0px"
	 width="72px" height="57.6px" viewBox="0 0 72 57.6" enable-background="new 0 0 72 57.6" xml:space="preserve">
<g>
	<path fill="#4C5F86" d="M55.302,27.395c-3.433-4.076-4.143-4.54-7.127-6.491c-0.623-0.407-1.344-0.878-2.208-1.46l-0.562-0.375
		c-4.631-3.099-7.193-4.813-7.467-12.779H36.71v9.585c-0.003,0.041-0.279,3.123-1.822,9.388c-1.138,4.618-4.6,18.669,1.263,23.89
		l0.597,0.85c0.357,0.07,2.392,0.535,5.248,2.668c0.626-0.094,7.021-1.178,11.487-6.623C58.494,39.943,59.26,32.098,55.302,27.395z"
		/>
	<path fill="#4C5F86" d="M30.501,44.463c-1.303-2.043-5.083-9.453,0.951-19.035c0.042-0.058,3.72-5.073,4.057-10.689
		c0.302-4.993,0.073-12.394,0.014-14.103l-0.46,0.631l-0.257,10.447c0.002,0.033,0.208,4.444-4.62,10.654
		c-4.736,6.086-10.104,12.983-2.599,22.901c0.026,0.043,1.898,3.131,6.273,5.256v-1.744C33.608,48.551,32.312,47.297,30.501,44.463z
		"/>
	<path fill="#4C5F86" d="M20.52,43.053c-2.034-5.18-3.244-12.551,2.546-18.255c1.052-1.035,2.06-1.989,3.034-2.912
		c4.325-4.095,7.451-7.053,7.591-10.616c0.154-3.881,0.035-6.72,0.006-7.32h-0.844v5.679c0.005,0.132,0.076,3.402-4.857,7.208
		L27.266,17.4c-4.958,3.811-13.255,10.188-13.089,17.885c-0.002,0.045-0.127,3.629,1.854,7.543c1.816,3.59,5.829,8.197,14.626,9.822
		v-1.834C29.766,50.527,22.481,48.031,20.52,43.053z"/>
	<polygon fill="#4C5F86" points="33.894,52.801 31.384,55.926 31.909,56.963 34.683,53.492 	"/>
	<rect x="35.374" y="52.025" fill="#4C5F86" width="1.561" height="4.938"/>
	<polygon fill="#4C5F86" points="39.192,52.801 40.835,55.748 39.192,56.963 37.716,53.928 	"/>
	<path fill="#FFFFFF" d="M38.915,16.375l-0.197-0.14v1.698l0.055,0.037c0.114,0.079,11.444,7.942,11.478,17.862
		c0.015,0.072,1.376,7.275-5.938,13.143l-0.06,0.049l0.216,1.072l0.13-0.039c0.092-0.025,9.111-2.754,9.888-14.596
		C54.485,35.381,54.308,27.302,38.915,16.375z"/>
</g>
</svg>
