<?xml version="1.0" encoding="utf-8"?>
<!-- Generator: Adobe Illustrator 15.1.0, SVG Export Plug-In . SVG Version: 6.00 Build 0)  -->
<!DOCTYPE svg PUBLIC "-//W3C//DTD SVG 1.1//EN" "http://www.w3.org/Graphics/SVG/1.1/DTD/svg11.dtd">
<svg version="1.1" id="Layer_1" xmlns="http://www.w3.org/2000/svg" xmlns:xlink="http://www.w3.org/1999/xlink" x="0px" y="0px"
	 width="17.01px" height="19.84px" viewBox="0 0 17.01 19.84" enable-background="new 0 0 17.01 19.84" xml:space="preserve">
<g>
	<linearGradient id="SVGID_1_" gradientUnits="userSpaceOnUse" x1="5.0596" y1="3.9395" x2="5.0596" y2="15.7271">
		<stop  offset="0" style="stop-color:#4A93CF"/>
		<stop  offset="1" style="stop-color:#005B96;stop-opacity:0.95"/>
	</linearGradient>
	<path fill="url(#SVGID_1_)" d="M1.135,4.182c0.785-0.14,1.842-0.242,3.264-0.242c1.563,0,2.693,0.328,3.438,0.954
		c0.699,0.572,1.148,1.493,1.148,2.588c0,1.111-0.346,2.013-0.99,2.639c-0.869,0.851-2.189,1.267-3.699,1.267
		c-0.396,0-0.746-0.018-1.041-0.088v4.428H1.135V4.182z M3.254,9.616c0.279,0.086,0.607,0.104,1.041,0.104
		c1.598,0,2.572-0.798,2.572-2.153c0-1.303-0.906-1.979-2.381-1.979c-0.588,0-1.004,0.052-1.232,0.104V9.616z"/>
	<linearGradient id="SVGID_2_" gradientUnits="userSpaceOnUse" x1="12.8711" y1="7.0811" x2="12.8711" y2="15.9009">
		<stop  offset="0" style="stop-color:#4A93CF"/>
		<stop  offset="1" style="stop-color:#005B96;stop-opacity:0.95"/>
	</linearGradient>
	<path fill="url(#SVGID_2_)" d="M10.303,13.746c0.469,0.299,1.389,0.627,2.152,0.627c0.938,0,1.355-0.4,1.355-0.955
		c0-0.572-0.348-0.852-1.391-1.232c-1.648-0.555-2.326-1.458-2.326-2.465c0-1.493,1.234-2.64,3.197-2.64
		c0.934,0,1.752,0.227,2.254,0.504l-0.432,1.493c-0.348-0.208-1.043-0.485-1.789-0.485c-0.764,0-1.182,0.381-1.182,0.901
		c0,0.538,0.4,0.782,1.477,1.182c1.545,0.537,2.24,1.318,2.256,2.568c0,1.545-1.197,2.656-3.438,2.656
		c-1.023,0-1.941-0.242-2.57-0.59L10.303,13.746z"/>
</g>
</svg>
