<?xml version="1.0" encoding="utf-8"?>
<!-- Generator: Adobe Illustrator 15.1.0, SVG Export Plug-In . SVG Version: 6.00 Build 0)  -->
<!DOCTYPE svg PUBLIC "-//W3C//DTD SVG 1.1//EN" "http://www.w3.org/Graphics/SVG/1.1/DTD/svg11.dtd">
<svg version="1.1" id="Layer_1" xmlns="http://www.w3.org/2000/svg" xmlns:xlink="http://www.w3.org/1999/xlink" x="0px" y="0px"
	 width="72px" height="57.6px" viewBox="0 0 72 57.6" enable-background="new 0 0 72 57.6" xml:space="preserve">
<g>
	<linearGradient id="SVGID_1_" gradientUnits="userSpaceOnUse" x1="17.354" y1="9.687" x2="40.7099" y2="33.0429">
		<stop  offset="0" style="stop-color:#4B8DBF"/>
		<stop  offset="1" style="stop-color:#306A99"/>
	</linearGradient>
	<path fill="url(#SVGID_1_)" d="M22.312,6.972c0,0-1.762-6.518,13.494-6.518c15.256,0,13.805,6.518,13.805,6.518l0.035,14.877
		c0,0-0.648,6.135-6.783,6.135c-6.14,0-11.954,0-14.417,0c-2.465,0-7.59,3.678-7.59,7.127c0,4.449,0,7.592,0,7.592h-6.135
		c0,0-6.897-0.84-6.897-13.879c0-13.033,7.512-13.873,9.047-13.873c1.532,0,19.089,0.078,19.089,0.078v-1.539H22.312V6.972z"/>
	<linearGradient id="SVGID_2_" gradientUnits="userSpaceOnUse" x1="24.4419" y1="54.7617" x2="61.4925" y2="17.7111">
		<stop  offset="0" style="stop-color:#FFD94A"/>
		<stop  offset="1" style="stop-color:#FFD94A"/>
	</linearGradient>
	<path fill="url(#SVGID_2_)" d="M49.686,50.624c0,0,1.762,6.521-13.495,6.521c-15.26,0-13.802-6.521-13.802-6.521l-0.035-14.869
		c0,0,0.653-6.135,6.78-6.135c6.135,0,11.952,0,14.42,0c2.459,0,7.586-3.686,7.586-7.133c0-4.445,0-7.588,0-7.588h6.133
		c0,0,6.902,0.842,6.902,13.877c0,13.029-7.512,13.877-9.047,13.877c-1.533,0-19.094-0.078-19.094-0.078v1.539h13.651V50.624z"/>
	<path fill="#FFFFFF" d="M30.992,7.269c0,1.426-1.151,2.586-2.581,2.586c-1.426,0-2.584-1.16-2.584-2.586s1.158-2.582,2.584-2.582
		C29.84,4.687,30.992,5.843,30.992,7.269z"/>
	<path fill="#FFFFFF" d="M46.285,50.214c0,1.434-1.15,2.59-2.576,2.59c-1.43,0-2.588-1.156-2.588-2.59
		c0-1.42,1.158-2.578,2.588-2.578C45.135,47.636,46.285,48.794,46.285,50.214z"/>
</g>
</svg>
