<?xml version="1.0" encoding="utf-8"?>
<!-- Generator: Adobe Illustrator 15.1.0, SVG Export Plug-In . SVG Version: 6.00 Build 0)  -->
<!DOCTYPE svg PUBLIC "-//W3C//DTD SVG 1.1//EN" "http://www.w3.org/Graphics/SVG/1.1/DTD/svg11.dtd">
<svg version="1.1" id="Layer_1" xmlns="http://www.w3.org/2000/svg" xmlns:xlink="http://www.w3.org/1999/xlink" x="0px" y="0px"
	 width="17.01px" height="19.84px" viewBox="0 0 17.01 19.84" enable-background="new 0 0 17.01 19.84" xml:space="preserve">
<g>
	<path fill="#4A73B8" d="M14.197,4.888c0-0.012-0.002-0.023-0.002-0.033v0.066C14.195,4.909,14.197,4.897,14.197,4.888z"/>
	<path fill="#4A73B8" d="M14.197,8.196c0-0.012-0.002-0.023-0.002-0.033v0.066C14.195,8.218,14.197,8.208,14.197,8.196z"/>
	<path fill="#4A73B8" d="M14.197,11.558c0-0.012-0.002-0.023-0.002-0.033v0.066C14.195,11.579,14.197,11.569,14.197,11.558z"/>
	<path fill="#4A73B8" d="M14.197,9.778c0-0.01-0.002-0.018-0.002-0.027v0.053C14.195,9.796,14.197,9.786,14.197,9.778z"/>
	<path fill="#4A73B8" d="M14.197,6.411c0-0.01-0.002-0.018-0.002-0.025v0.051C14.195,6.429,14.197,6.419,14.197,6.411z"/>
	<g>
		<path fill="#4A73B8" d="M14.195,13.114v0.051c0-0.01,0.002-0.018,0.002-0.025C14.197,13.13,14.195,13.122,14.195,13.114z"/>
		<path fill="#4A73B8" d="M2.813,13.14c0,0.008,0.001,0.016,0.002,0.025v-0.051C2.814,13.122,2.813,13.13,2.813,13.14z"/>
		<path fill="#4A73B8" d="M14.195,13.165c-0.018,0.277-0.291,0.537-0.758,0.762c-0.982,0.475-2.822,0.795-4.932,0.795
			c-2.11,0-3.951-0.32-4.935-0.795c-0.467-0.225-0.739-0.484-0.756-0.762v1.754c-0.001,0.012-0.002,0.021-0.002,0.033
			s0.001,0.021,0.002,0.033c0.05,1.119,2.577,2.021,5.69,2.021c3.112,0,5.639-0.902,5.69-2.021c0-0.012,0.002-0.021,0.002-0.033
			s-0.002-0.021-0.002-0.033V13.165z"/>
	</g>
	<path fill="#4A73B8" d="M13.469,10.552c-0.977,0.482-2.834,0.807-4.963,0.807c-2.132,0-3.987-0.324-4.964-0.807
		c-0.449-0.221-0.711-0.477-0.727-0.748v1.721v0.066c0.014,0.309,0.214,0.6,0.563,0.861c0.436,0.324,1.101,0.6,1.921,0.803
		c0.912,0.225,2.016,0.357,3.206,0.357c1.188,0,2.292-0.133,3.206-0.357c0.818-0.203,1.484-0.479,1.92-0.803
		c0.35-0.262,0.551-0.553,0.564-0.861v-0.066V9.804C14.178,10.075,13.918,10.331,13.469,10.552z"/>
	<path fill="#4A73B8" d="M13.463,7.188c-0.977,0.479-2.83,0.805-4.958,0.805c-2.128,0-3.982-0.326-4.959-0.805
		C3.094,6.966,2.831,6.71,2.815,6.437v1.727v0.066c0.014,0.309,0.214,0.6,0.563,0.859c0.424,0.316,1.066,0.588,1.856,0.787
		c0.926,0.236,2.053,0.373,3.271,0.373c1.217,0,2.344-0.137,3.268-0.373c0.791-0.199,1.434-0.471,1.857-0.787
		c0.35-0.26,0.551-0.551,0.564-0.859V8.163V6.437C14.178,6.71,13.916,6.966,13.463,7.188z"/>
	<path fill="#4A73B8" d="M8.505,2.833c-3.113,0-5.641,0.902-5.69,2.021v0.066c0.014,0.295,0.199,0.574,0.521,0.826
		c0.405,0.318,1.026,0.59,1.796,0.795c0.943,0.25,2.11,0.398,3.373,0.398c1.262,0,2.428-0.148,3.372-0.398
		c0.77-0.205,1.391-0.477,1.797-0.795c0.322-0.252,0.508-0.531,0.521-0.826V4.854C14.145,3.735,11.617,2.833,8.505,2.833z"/>
</g>
</svg>
