<?xml version="1.0" encoding="utf-8"?>
<!-- Generator: Adobe Illustrator 15.1.0, SVG Export Plug-In . SVG Version: 6.00 Build 0)  -->
<!DOCTYPE svg PUBLIC "-//W3C//DTD SVG 1.1//EN" "http://www.w3.org/Graphics/SVG/1.1/DTD/svg11.dtd">
<svg version="1.1" id="Layer_1" xmlns="http://www.w3.org/2000/svg" xmlns:xlink="http://www.w3.org/1999/xlink" x="0px" y="0px"
	 width="72px" height="58px" viewBox="0 0 72 58" enable-background="new 0 0 72 58" xml:space="preserve">
<g>
	<rect x="12" y="1" fill="#FFFFFF" width="48.094" height="56.19"/>
	<g>
		<path fill="#D0D2D3" d="M59.797,0.954v55.69H12.203V0.954H59.797 M60.297,0.454H11.703v56.69h48.594V0.454L60.297,0.454z"/>
	</g>
</g>
<g>
	<rect x="20" y="13" fill="#326699" width="33" height="4"/>
	<rect x="20" y="22" fill="#326699" width="33" height="4"/>
	<rect x="20" y="32" fill="#326699" width="16" height="4"/>
	<rect x="20" y="41" fill="#326699" width="16" height="4"/>
</g>
<path fill="#326699" d="M52.25,30.99c-0.049-0.052-0.114-0.078-0.188-0.076c-1.693,0.061-4.035,0.096-6.424,0.096c0,0,0,0-0.002,0
	c-2.328,0-4.416-0.033-5.878-0.096c-0.139-0.004-0.248,0.096-0.26,0.229l-0.256,2.873c-0.007,0.07,0.019,0.142,0.063,0.191
	c0.049,0.051,0.114,0.08,0.187,0.08h0.846c0.117,0,0.22-0.08,0.244-0.195c0.33-1.471,0.61-1.693,2.138-1.693h1.954v9.276
	c0,1.555-0.237,1.682-1.582,1.698c-0.138,0.002-0.247,0.111-0.247,0.25v0.729c0,0.068,0.027,0.134,0.077,0.183
	c0.048,0.045,0.108,0.067,0.173,0.067c0.004,0,0.008,0,0.012,0c0.627-0.03,1.759-0.048,3.024-0.048c0.925,0,1.816,0.01,2.388,0.027
	c0.084-0.008,0.135-0.024,0.183-0.07c0.049-0.047,0.075-0.112,0.075-0.18v-0.708c0-0.139-0.108-0.248-0.245-0.25
	c-1.361-0.019-1.604-0.146-1.604-1.698v-9.276h2.367c1.396,0,1.504,0.229,1.541,1.646c0.004,0.135,0.115,0.244,0.25,0.244h0.826
	c0.133,0,0.24-0.105,0.25-0.236l0.156-2.873C52.325,31.107,52.3,31.038,52.25,30.99z"/>
</svg>
