<?xml version="1.0" encoding="utf-8"?>
<!-- Generator: Adobe Illustrator 15.1.0, SVG Export Plug-In . SVG Version: 6.00 Build 0)  -->
<!DOCTYPE svg PUBLIC "-//W3C//DTD SVG 1.1//EN" "http://www.w3.org/Graphics/SVG/1.1/DTD/svg11.dtd">
<svg version="1.1" id="Layer_1" xmlns="http://www.w3.org/2000/svg" xmlns:xlink="http://www.w3.org/1999/xlink" x="0px" y="0px"
	 width="72px" height="57.6px" viewBox="0 0 72 57.6" enable-background="new 0 0 72 57.6" xml:space="preserve">
<g>
	<linearGradient id="SVGID_1_" gradientUnits="userSpaceOnUse" x1="8.9321" y1="3.2979" x2="35.7704" y2="30.1361">
		<stop  offset="0" style="stop-color:#718BC6"/>
		<stop  offset="0.5" style="stop-color:#263B97;stop-opacity:0.95"/>
		<stop  offset="1" style="stop-color:#5A7FC0;stop-opacity:0.95"/>
	</linearGradient>
	<path fill="url(#SVGID_1_)" d="M18.265,39.352L7.654,4.576h7.625c0,0,6.899,24.1,7.06,24.633h0.191
		c0.249-1.037,6.819-24.633,6.819-24.633h7.582L26.554,39.352H18.265z"/>
	<linearGradient id="SVGID_2_" gradientUnits="userSpaceOnUse" x1="34.5737" y1="21.8892" x2="62.182" y2="49.4974">
		<stop  offset="0" style="stop-color:#718BC6"/>
		<stop  offset="0.5" style="stop-color:#263B97;stop-opacity:0.95"/>
		<stop  offset="1" style="stop-color:#5A7FC0;stop-opacity:0.95"/>
	</linearGradient>
	<path fill="url(#SVGID_2_)" d="M38.205,18.258h12.578c1.664,0,3.24,0.076,4.729,0.232c1.49,0.158,2.787,0.555,3.898,1.186
		c1.42,0.789,2.457,1.855,3.119,3.197c0.656,1.344,0.986,2.74,0.986,4.191c0,2.115-0.504,3.82-1.506,5.119
		c-1.004,1.293-2.254,2.096-3.742,2.416v0.234c0.621,0.092,1.299,0.32,2.027,0.668c0.725,0.342,1.385,0.852,1.971,1.512
		c0.59,0.662,1.086,1.479,1.484,2.438c0.398,0.965,0.596,2.08,0.596,3.344c0,1.293-0.172,2.572-0.518,3.836
		c-0.348,1.266-1.162,2.48-2.443,3.645c-0.691,0.633-1.424,1.135-2.184,1.49c-0.76,0.369-1.584,0.646-2.469,0.832
		c-0.885,0.191-1.836,0.313-2.859,0.355c-1.021,0.051-2.137,0.07-3.352,0.07H38.205V18.258z M46.367,32.418
		c1.662,0,3.064-0.027,4.207-0.092c1.145-0.063,2.061-0.248,2.752-0.547c0.697-0.297,1.189-0.76,1.484-1.379
		c0.295-0.609,0.441-1.469,0.441-2.578c0-1.043-0.182-1.854-0.543-2.443c-0.367-0.58-0.816-1-1.354-1.248
		c-0.535-0.256-1.102-0.404-1.689-0.455c-0.59-0.043-1.092-0.07-1.508-0.07h-3.791V32.418z M46.367,47.533h4.154
		c1.666,0,2.98-0.383,3.949-1.145c0.969-0.752,1.457-2.031,1.457-3.834c0-0.816-0.154-1.656-0.471-2.508
		c-0.309-0.852-0.969-1.471-1.971-1.846c-0.594-0.221-1.551-0.35-2.883-0.385c-1.336-0.027-2.748-0.043-4.236-0.043V47.533z"/>
</g>
</svg>
