<?xml version="1.0" encoding="utf-8"?>
<!-- Generator: Adobe Illustrator 15.1.0, SVG Export Plug-In . SVG Version: 6.00 Build 0)  -->
<!DOCTYPE svg PUBLIC "-//W3C//DTD SVG 1.1//EN" "http://www.w3.org/Graphics/SVG/1.1/DTD/svg11.dtd">
<svg version="1.1" id="Layer_1" xmlns="http://www.w3.org/2000/svg" xmlns:xlink="http://www.w3.org/1999/xlink" x="0px" y="0px"
	 width="17.01px" height="19.84px" viewBox="0 0 17.01 19.84" enable-background="new 0 0 17.01 19.84" xml:space="preserve">
<g>
	<g>
		<rect x="0.001" y="-0.001" fill="#FFFFFF" width="17.008" height="19.842"/>
		<path fill="#D1D3D4" d="M16.509,0.499v18.842H0.501V0.499H16.509 M17.009-0.001H0.001v19.842h17.008V-0.001L17.009-0.001z"/>
	</g>
	<linearGradient id="SVGID_1_" gradientUnits="userSpaceOnUse" x1="5.5923" y1="-9.765625e-004" x2="5.5923" y2="17.0073">
		<stop  offset="0" style="stop-color:#FCAF20"/>
		<stop  offset="1" style="stop-color:#DE4E27;stop-opacity:0.95"/>
	</linearGradient>
	<path fill-rule="evenodd" clip-rule="evenodd" fill="url(#SVGID_1_)" d="M3.606,9.302h3.972c0.406,0,0.739,0.332,0.739,0.738v1.486
		c0,0.352-0.252,0.65-0.585,0.721v4.547c0,0.117-0.096,0.213-0.213,0.213H3.687c-0.117,0-0.214-0.096-0.214-0.213v-4.543
		c-0.343-0.063-0.605-0.365-0.605-0.725V10.04C2.867,9.634,3.2,9.302,3.606,9.302L3.606,9.302z M7.824,7.601
		c0,0.18-0.147,0.326-0.326,0.326h-2.41c-0.181,0-0.327-0.146-0.327-0.326V7.241c0-0.18,0.146-0.326,0.327-0.326h2.41l0.01,0.002
		h0.008h0.009h0.008l0.007,0.002h0.009l0.008,0.002l0.008,0.002l0.009,0.002L7.58,6.927l0.007,0.002l0.009,0.002l0,0l0.007,0.002
		l0,0L7.61,6.937l0.008,0.002l0.007,0.004l0.008,0.002L7.64,6.948l0.006,0.004l0.009,0.002v0.002L7.661,6.96l0.006,0.004
		l0.007,0.004l0.007,0.004l0.006,0.006l0,0l0.008,0.002L7.7,6.985l0.006,0.006l0,0l0.006,0.006l0.007,0.004l0.005,0.006l0,0
		l0.006,0.004l0,0l0.004,0.008l0,0l0.006,0.004l0.005,0.006L7.75,7.036l0.005,0.006l0,0L7.76,7.048l0.005,0.006L7.769,7.06
		l0.004,0.008l0.006,0.006l0.004,0.008l0,0l0.004,0.006l0,0l0.003,0.008l0.003,0.006l0,0l0.005,0.008l0,0L7.8,7.116l0.002,0.008
		L7.804,7.13l0,0l0.004,0.008L7.81,7.146l0,0l0.003,0.008l0,0l0.001,0.008l0,0l0.004,0.006l0,0l0.001,0.01l0.001,0.008L7.82,7.192
		v0.002L7.821,7.2l0.002,0.008v0.01l0.001,0.008v0.008v0.008V7.601z M6.407,8.726c0,0.182-0.147,0.326-0.326,0.326H3.67
		c-0.18,0-0.326-0.145-0.326-0.326V8.368c0-0.18,0.146-0.326,0.326-0.326h2.411H6.09h0.007h0.01l0.008,0.002h0.008l0.009,0.002
		h0.008l0.007,0.002L6.154,8.05l0.008,0.002l0.009,0.002l0.008,0.002l0,0l0.006,0.002l0,0l0.008,0.004l0.009,0.004l0.007,0.002
		l0.006,0.002l0.008,0.004l0.008,0.004l0.008,0.004l0,0l0.006,0.004L6.25,8.089l0.007,0.004l0.006,0.004l0.008,0.006l0,0
		l0.007,0.004L6.282,8.11l0.007,0.006l0,0l0.005,0.006l0.007,0.004l0.006,0.006l0,0l0.005,0.006l0,0l0.006,0.006l0,0l0.004,0.006
		l0.006,0.006l0.005,0.006l0.006,0.006l0,0l0.004,0.006l0.005,0.006l0.004,0.006l0.005,0.008l0.004,0.006l0.005,0.008l0,0
		l0.003,0.008l0,0L6.371,8.22l0.005,0.006l0,0l0.002,0.008l0,0l0.004,0.008l0.003,0.008l0.003,0.006l0,0L6.39,8.263l0.004,0.01l0,0
		l0.002,0.006l0,0l0.001,0.008l0,0l0.003,0.01l0,0L6.4,8.302L6.401,8.31l0.002,0.01l0,0l0.002,0.006l0.001,0.01v0.008l0.001,0.008
		v0.01v0.008V8.726z M7.824,5.296c0,0.18-0.147,0.326-0.326,0.326h-2.41c-0.181,0-0.327-0.146-0.327-0.326V4.937
		c0-0.178,0.146-0.326,0.327-0.326h2.41h0.01h0.008h0.009l0.008,0.002h0.007h0.009l0.008,0.004h0.008l0.009,0.002L7.58,4.62
		l0.007,0.002l0.009,0.002l0,0l0.007,0.004l0,0L7.61,4.63l0.008,0.004l0.007,0.002L7.633,4.64L7.64,4.642l0.006,0.004l0.009,0.006
		l0,0l0.007,0.002l0.006,0.004l0.007,0.006l0.007,0.004l0.006,0.004l0,0l0.008,0.006L7.7,4.681l0.006,0.006l0,0L7.712,4.69
		l0.007,0.004L7.724,4.7l0,0l0.006,0.006l0,0l0.004,0.006l0,0l0.006,0.006l0.005,0.006L7.75,4.729l0.005,0.006l0,0L7.76,4.741
		l0.005,0.008l0.004,0.004l0.004,0.008l0.006,0.008l0.004,0.006l0,0l0.004,0.008l0,0l0.003,0.006l0.003,0.008l0,0l0.005,0.008l0,0
		L7.8,4.81l0.002,0.008l0.002,0.006l0,0l0.004,0.01L7.81,4.839l0,0l0.003,0.008l0,0l0.001,0.01l0,0l0.004,0.006v0.002L7.818,4.87
		l0.001,0.01L7.82,4.888l0,0l0.001,0.006l0.002,0.01v0.008l0.001,0.01v0.006v0.01V5.296z M6.407,6.423
		c0,0.178-0.147,0.326-0.326,0.326H3.67c-0.18,0-0.326-0.148-0.326-0.326V6.062c0-0.178,0.146-0.326,0.326-0.326h2.411
		c0.18,0,0.326,0.148,0.326,0.326V6.423z M7.824,2.991c0,0.178-0.147,0.326-0.326,0.326h-2.41c-0.181,0-0.327-0.148-0.327-0.326
		V2.63c0-0.178,0.146-0.326,0.327-0.326h2.41h0.01h0.008l0.009,0.002l0.008,0.002h0.007L7.548,2.31h0.008l0.008,0.002l0.009,0.002
		L7.58,2.315l0.007,0.002l0.009,0.002l0,0l0.007,0.002l0,0L7.61,2.325l0.008,0.002l0.007,0.004l0.008,0.002L7.64,2.337l0.006,0.002
		l0.009,0.006l0,0l0.007,0.004l0.006,0.002l0.007,0.006L7.681,2.36l0.006,0.006l0,0L7.694,2.37L7.7,2.374L7.706,2.38l0,0
		l0.006,0.004L7.719,2.39l0.005,0.006l0,0l0.006,0.006l0,0l0.004,0.006l0,0l0.006,0.006l0.005,0.006L7.75,2.425l0.005,0.006l0,0
		L7.76,2.437l0.005,0.006L7.769,2.45l0.004,0.006l0.006,0.006l0.004,0.006l0,0l0.004,0.008l0,0l0.003,0.008l0.003,0.006l0,0
		l0.005,0.008l0,0L7.8,2.505l0.002,0.008l0.002,0.006v0.002l0.004,0.006L7.81,2.534l0,0l0.003,0.008l0,0L7.813,2.55l0,0l0.004,0.008
		l0,0l0.001,0.008l0.001,0.008L7.82,2.581l0,0l0.001,0.01l0.002,0.006v0.01l0.001,0.008v0.01V2.63V2.991z M6.407,4.116
		c0,0.178-0.147,0.326-0.326,0.326H3.67c-0.18,0-0.326-0.146-0.326-0.326V3.757c0-0.18,0.146-0.326,0.326-0.326h2.411
		c0.18,0,0.326,0.146,0.326,0.326V4.116z M7.824,0.685c0,0.178-0.147,0.326-0.326,0.326h-2.41c-0.181,0-0.327-0.148-0.327-0.326
		V0.327c0-0.182,0.146-0.328,0.327-0.328h2.41h0.01h0.008l0.009,0.002h0.008h0.007l0.009,0.002l0.008,0.002h0.008l0.009,0.002
		L7.58,0.011l0.007,0.002l0.009,0.002l0.007,0.002L7.61,0.019l0.008,0.004l0.007,0.002l0.008,0.004L7.64,0.03l0,0l0.006,0.006
		l0.009,0.002l0.007,0.004l0,0l0.006,0.006l0,0l0.007,0.004l0.007,0.004L7.687,0.06l0.008,0.004l0,0L7.7,0.069l0.006,0.004
		l0.006,0.006l0.007,0.004l0,0l0.005,0.006l0.006,0.006l0.004,0.006l0.006,0.006l0.005,0.006l0,0L7.75,0.118l0.005,0.006L7.76,0.13
		l0.005,0.006l0,0l0.004,0.008l0.004,0.008l0.006,0.006l0,0l0.004,0.008l0.004,0.004l0.003,0.008l0.003,0.008l0,0l0.005,0.008
		L7.8,0.2l0.002,0.006l0.002,0.008l0,0l0.004,0.008l0,0L7.81,0.229l0,0l0.003,0.008l0,0l0.001,0.008l0.004,0.006v0.002l0.001,0.006
		l0.001,0.01L7.82,0.276l0,0l0.001,0.008l0.002,0.01V0.3l0.001,0.008v0.01v0.01V0.685z M6.407,1.81c0,0.18-0.147,0.328-0.326,0.328
		H3.67c-0.18,0-0.326-0.146-0.326-0.328V1.452c0-0.182,0.146-0.328,0.326-0.328h2.411H6.09l0.007,0.002h0.01h0.008l0.008,0.002
		L6.131,1.13h0.008l0.007,0.002h0.009l0.008,0.004l0.009,0.002L6.179,1.14l0,0l0.006,0.002l0,0l0.008,0.002l0.009,0.004l0.007,0.004
		l0.006,0.002l0.008,0.004l0.008,0.004l0.008,0.002v0.002l0.006,0.002L6.25,1.173l0.007,0.004l0.006,0.006l0.008,0.004l0,0
		L6.277,1.19l0.005,0.006L6.289,1.2l0,0l0.005,0.006L6.301,1.21l0.006,0.004v0.002l0.005,0.006l0,0l0.006,0.004l0,0l0.004,0.006
		l0.006,0.006l0.005,0.006l0.006,0.006l0,0l0.004,0.008l0.005,0.008l0.004,0.006l0.005,0.006l0.004,0.006L6.364,1.29l0,0
		l0.003,0.006l0,0l0.004,0.008l0.005,0.008l0,0l0.002,0.006l0,0l0.004,0.008l0.003,0.006l0.003,0.008l0,0L6.39,1.347l0.004,0.008
		l0,0l0.002,0.008l0,0L6.396,1.37l0,0l0.003,0.008l0,0L6.4,1.386l0.001,0.008l0.002,0.008l0,0l0.002,0.01l0.001,0.008v0.006
		l0.001,0.01v0.008v0.01V1.81z M4.402,13.245c-0.117,0-0.213,0.096-0.213,0.215v2.508c0,0.117,0.096,0.213,0.213,0.213h2.401
		c0.117,0,0.213-0.096,0.213-0.213V13.46c0-0.119-0.096-0.215-0.213-0.215H4.402z"/>
</g>
</svg>
