<?xml version="1.0" encoding="utf-8"?>
<!-- Generator: Adobe Illustrator 15.1.0, SVG Export Plug-In . SVG Version: 6.00 Build 0)  -->
<!DOCTYPE svg PUBLIC "-//W3C//DTD SVG 1.1//EN" "http://www.w3.org/Graphics/SVG/1.1/DTD/svg11.dtd">
<svg version="1.1" id="Layer_1" xmlns="http://www.w3.org/2000/svg" xmlns:xlink="http://www.w3.org/1999/xlink" x="0px" y="0px"
	 width="72px" height="57.6px" viewBox="0 0 72 57.6" enable-background="new 0 0 72 57.6" xml:space="preserve">
<g>
	<g>
		<linearGradient id="SVGID_1_" gradientUnits="userSpaceOnUse" x1="36" y1="0" x2="36" y2="57.6001">
			<stop  offset="0" style="stop-color:#FCAF20"/>
			<stop  offset="1" style="stop-color:#DE4E27;stop-opacity:0.95"/>
		</linearGradient>
		<rect x="0" fill="url(#SVGID_1_)" width="72" height="57.6"/>
		<linearGradient id="SVGID_2_" gradientUnits="userSpaceOnUse" x1="35.9966" y1="28.8003" x2="4.882813e-004" y2="28.8003">
			<stop  offset="0" style="stop-color:#FCAF20"/>
			<stop  offset="1" style="stop-color:#DE4E27;stop-opacity:0.95"/>
		</linearGradient>
		<polygon opacity="0.5" fill="url(#SVGID_2_)" points="35.997,57.6 0,57.6 0,0 		"/>
		
			<linearGradient id="SVGID_3_" gradientUnits="userSpaceOnUse" x1="23.0913" y1="-126.6255" x2="23.0913" y2="-69.0166" gradientTransform="matrix(0 -1 1 0 141.0171 62.6953)">
			<stop  offset="0" style="stop-color:#FCAF20"/>
			<stop  offset="1" style="stop-color:#DE4E27;stop-opacity:0.95"/>
		</linearGradient>
		<polygon opacity="0.5" fill="url(#SVGID_3_)" points="72,21.607 72,57.6 14.391,57.6 		"/>
	</g>
	<path fill-rule="evenodd" clip-rule="evenodd" fill="#FFFFFF" d="M22.127,28.467h9.744c0.996,0,1.809,0.814,1.809,1.809v3.643
		c0,0.865-0.615,1.596-1.432,1.77V46.84c0,0.285-0.234,0.521-0.521,0.521h-9.402c-0.287,0-0.523-0.234-0.523-0.521V35.697
		c-0.842-0.154-1.484-0.895-1.484-1.779v-3.643C20.317,29.281,21.131,28.467,22.127,28.467L22.127,28.467z M32.475,24.295
		c0,0.438-0.361,0.801-0.801,0.801h-5.916c-0.438,0-0.799-0.361-0.799-0.801v-0.881c0-0.439,0.359-0.801,0.799-0.801h5.916
		l0.021,0.002h0.02l0.021,0.002l0.02,0.002l0.021,0.002l0.018,0.002l0.021,0.004l0.02,0.004l0.02,0.004l0.018,0.006l0.02,0.004
		l0.02,0.006l0,0l0.018,0.006v0.002l0.02,0.004l0.018,0.008l0.018,0.006l0.02,0.01l0.018,0.008l0.016,0.008l0.018,0.01l0,0
		l0.018,0.01l0.016,0.01l0.018,0.01l0.016,0.012l0.016,0.012l0,0l0.016,0.01l0.016,0.012l0.014,0.014l0,0l0.016,0.012l0.014,0.012
		l0.014,0.012v0.002l0.016,0.014l0,0l0.012,0.014l0,0l0.014,0.014l0.012,0.014l0.014,0.016l0.012,0.016l0,0l0.012,0.016l0.012,0.016
		l0.012,0.016l0.01,0.016L32.358,23l0.01,0.018l0,0l0.01,0.016l0,0l0.01,0.018l0.008,0.018l0,0l0.01,0.018l0,0l0.006,0.018
		l0.008,0.018l0.008,0.018v0.002l0.006,0.018l0.006,0.02l0,0l0.006,0.018l0,0l0.006,0.02l0,0l0.004,0.02l0,0l0.004,0.02l0.006,0.02
		l0.002,0.018v0.002l0.004,0.02l0.002,0.02v0.02l0.002,0.021l0.002,0.021v0.02V24.295z M28.999,27.055
		c0,0.439-0.361,0.801-0.801,0.801h-5.914c-0.439,0-0.801-0.359-0.801-0.801v-0.881c0-0.439,0.361-0.799,0.801-0.799h5.914h0.02
		l0.021,0.002h0.021l0.02,0.002l0.02,0.004h0.02l0.02,0.004l0.02,0.004l0.02,0.006l0.02,0.004l0.02,0.004l0.02,0.006v0.002
		l0.018,0.006l0,0l0.018,0.006l0.02,0.008l0.018,0.006l0.018,0.008l0.018,0.008l0.018,0.01l0.018,0.008l0,0l0.016,0.01l0.018,0.01
		l0.016,0.012l0.018,0.01l0.016,0.012l0,0l0.016,0.012l0.016,0.01l0.014,0.014l0,0l0.014,0.012l0.016,0.014l0.014,0.012l0,0
		l0.014,0.016l0,0l0.014,0.012v0.002l0.014,0.014l0.012,0.014l0.014,0.014l0.012,0.016l0,0l0.012,0.016l0.012,0.016l0.01,0.016
		l0.012,0.016l0.01,0.018l0.01,0.016l0,0l0.01,0.018l0,0l0.01,0.016l0.008,0.018l0,0l0.008,0.018v0.002l0.008,0.016l0.008,0.02
		l0.006,0.018l0,0l0.008,0.02l0.006,0.018l0,0l0.006,0.02l0,0l0.006,0.02l0,0l0.004,0.018l0,0l0.004,0.02l0.004,0.02l0.004,0.02l0,0
		l0.002,0.02l0.002,0.021l0.002,0.02l0.002,0.021v0.018l0.002,0.021V27.055z M32.475,18.641c0,0.439-0.361,0.801-0.801,0.801h-5.916
		c-0.438,0-0.799-0.359-0.799-0.801V17.76c0-0.439,0.359-0.799,0.799-0.799h5.916h0.021h0.02l0.021,0.002l0.02,0.002l0.021,0.002
		l0.018,0.002l0.021,0.004l0.02,0.004l0.02,0.006l0.018,0.004l0.02,0.004l0.02,0.006l0,0l0.018,0.008l0,0l0.02,0.006l0.018,0.008
		l0.018,0.006l0.02,0.008l0.018,0.008l0.016,0.01l0.018,0.008l0,0l0.018,0.01l0.016,0.01l0.018,0.012l0.016,0.01l0.016,0.012l0,0
		l0.016,0.012l0.016,0.01l0.014,0.014l0,0l0.016,0.012l0.014,0.012l0.014,0.014l0,0l0.016,0.016l0,0l0.012,0.012v0.002l0.014,0.014
		l0.012,0.014l0.014,0.014l0.012,0.016l0,0l0.012,0.016l0.012,0.016l0.012,0.016l0.01,0.016l0.01,0.018l0.01,0.016l0,0l0.01,0.018
		l0,0l0.01,0.016l0.008,0.018l0,0l0.01,0.018l0,0l0.006,0.018l0.008,0.02l0.008,0.018l0,0l0.006,0.02l0.006,0.018l0,0l0.006,0.02
		l0,0l0.006,0.02l0,0l0.004,0.018v0.002l0.004,0.02l0.006,0.018l0.002,0.02l0,0l0.004,0.02l0.002,0.021v0.02l0.002,0.021l0.002,0.02
		v0.02V18.641z M28.999,21.402c0,0.438-0.361,0.799-0.801,0.799h-5.914c-0.439,0-0.801-0.359-0.801-0.799V20.52
		c0-0.439,0.361-0.799,0.801-0.799h5.914c0.439,0,0.801,0.361,0.801,0.799V21.402z M32.475,12.988c0,0.438-0.361,0.799-0.801,0.799
		h-5.916c-0.438,0-0.799-0.359-0.799-0.799v-0.883c0-0.439,0.359-0.799,0.799-0.799h5.916h0.021l0.02,0.002l0.021,0.002l0.02,0.002
		l0.021,0.002h0.018l0.021,0.004l0.02,0.006l0.02,0.004l0.018,0.004l0.02,0.006l0.02,0.006l0,0l0.018,0.006l0,0l0.02,0.006
		l0.018,0.008l0.018,0.006l0.02,0.01l0.018,0.006l0.016,0.01l0.018,0.008v0.002l0.018,0.01l0.016,0.008l0.018,0.012l0.016,0.012
		l0.016,0.01l0,0l0.016,0.012l0.016,0.012l0.014,0.012l0,0l0.016,0.014l0.014,0.012l0.014,0.012v0.002l0.016,0.014l0,0l0.012,0.014
		l0,0l0.014,0.014l0.012,0.014l0.014,0.014l0.012,0.016l0,0l0.012,0.018l0.012,0.016l0.012,0.016l0.01,0.016l0.01,0.016l0.01,0.016
		v0.002l0.01,0.016l0,0l0.01,0.018l0.008,0.018l0,0l0.01,0.018l0,0l0.006,0.018l0.008,0.018l0.008,0.018v0.002l0.006,0.018
		l0.006,0.018v0.002l0.006,0.018l0,0l0.006,0.02l0,0l0.004,0.02l0,0l0.004,0.02l0.006,0.018l0.002,0.02l0,0l0.004,0.021l0.002,0.02
		v0.02l0.002,0.021l0.002,0.021v0.018V12.988z M28.999,15.748c0,0.439-0.361,0.799-0.801,0.799h-5.914
		c-0.439,0-0.801-0.357-0.801-0.799v-0.881c0-0.439,0.361-0.799,0.801-0.799h5.914c0.439,0,0.801,0.359,0.801,0.799V15.748z
		 M32.475,7.334c0,0.439-0.361,0.799-0.801,0.799h-5.916c-0.438,0-0.799-0.359-0.799-0.799V6.453c0-0.441,0.359-0.799,0.799-0.799
		h5.916h0.021h0.02l0.021,0.002l0.02,0.002h0.021l0.018,0.004l0.021,0.004l0.02,0.004l0.02,0.004l0.018,0.004l0.02,0.006l0.02,0.006
		l0.018,0.006l0.02,0.006l0.018,0.008l0.018,0.006l0.02,0.01l0.018,0.008l0,0l0.016,0.01l0.018,0.008l0.018,0.01l0,0l0.016,0.01l0,0
		l0.018,0.012l0.016,0.01l0.016,0.01l0.016,0.012v0.002l0.016,0.01l0.014,0.012l0.016,0.014l0.014,0.012l0,0l0.014,0.014
		l0.016,0.012l0.012,0.016l0.014,0.014l0.012,0.014v0.002l0.014,0.014l0.012,0.014l0.012,0.016l0.012,0.018l0,0l0.012,0.016
		l0.01,0.016l0.01,0.016l0,0l0.01,0.018l0.01,0.016l0.01,0.018l0.008,0.018l0,0l0.01,0.018l0.006,0.018l0.008,0.02l0.008,0.018l0,0
		l0.006,0.018l0,0l0.006,0.02l0,0l0.006,0.02l0,0l0.006,0.018l0.004,0.02l0,0l0.004,0.018l0.006,0.021l0.002,0.02l0,0l0.004,0.02
		l0.002,0.021v0.02l0.002,0.02l0.002,0.02v0.021V7.334z M28.999,10.096c0,0.438-0.361,0.799-0.801,0.799h-5.914
		c-0.439,0-0.801-0.359-0.801-0.799V9.213c0-0.439,0.361-0.799,0.801-0.799h5.914h0.02h0.021l0.021,0.002l0.02,0.002l0.02,0.002
		l0.02,0.004l0.02,0.002l0.02,0.006l0.02,0.002l0.02,0.006l0.02,0.006l0.02,0.004l0,0l0.018,0.006v0.002l0.018,0.006l0.02,0.006
		l0.018,0.008l0.018,0.008l0.018,0.008l0.018,0.01l0.018,0.008v0.002l0.016,0.008l0.018,0.012l0.016,0.008l0.018,0.014l0.016,0.01
		l0,0l0.016,0.01l0.016,0.014l0.014,0.012l0,0l0.014,0.012l0.016,0.014l0.014,0.012v0.002l0.014,0.012l0,0l0.014,0.014l0,0
		l0.014,0.016l0.012,0.014l0.014,0.014l0.012,0.016l0,0l0.012,0.016l0.012,0.016l0.01,0.016l0.012,0.016l0.01,0.018l0.01,0.016
		v0.002l0.01,0.016l0,0l0.01,0.018l0.008,0.018l0,0l0.008,0.018l0,0l0.008,0.018l0.008,0.018l0.006,0.018v0.002l0.008,0.018
		l0.006,0.018l0,0l0.006,0.018l0,0l0.006,0.02l0,0l0.004,0.02l0,0l0.004,0.02l0.004,0.02l0.004,0.02v0.002l0.002,0.02l0.002,0.02
		l0.002,0.02l0.002,0.02v0.021l0.002,0.02V10.096z M32.475,1.68c0,0.439-0.361,0.801-0.801,0.801h-5.916
		c-0.438,0-0.799-0.359-0.799-0.801V0.799C24.959,0.359,25.319,0,25.758,0h5.916h0.021l0.02,0.002l0.021,0.002h0.02l0.021,0.002
		l0.018,0.002l0.021,0.004l0.02,0.006l0.02,0.004l0.018,0.004l0.02,0.006l0.02,0.006l0,0l0.018,0.004l0,0l0.02,0.008l0.018,0.008
		l0.018,0.006l0.02,0.01l0.018,0.006l0.016,0.01l0.018,0.008v0.002l0.018,0.01l0.016,0.008l0.018,0.012l0.016,0.01l0.016,0.01v0.002
		l0.016,0.012l0.016,0.012l0.014,0.01v0.002l0.016,0.014l0.014,0.012l0.014,0.012v0.002l0.016,0.012l0,0l0.012,0.016l0,0
		l0.014,0.014l0.012,0.014l0.014,0.014l0.012,0.016l0,0l0.012,0.016l0.012,0.016l0.012,0.016l0.01,0.018l0.01,0.016l0.01,0.016
		v0.002l0.01,0.016l0,0l0.01,0.018l0.008,0.016v0.002l0.01,0.016v0.002l0.006,0.018l0.008,0.018l0.008,0.018v0.002l0.006,0.018
		l0.006,0.018v0.002l0.006,0.018l0,0l0.006,0.02l0,0l0.004,0.018l0,0l0.004,0.02l0.006,0.02l0.002,0.02l0,0l0.004,0.02l0.002,0.021
		v0.02l0.002,0.021l0.002,0.018v0.021V1.68z M28.999,4.441c0,0.439-0.361,0.799-0.801,0.799h-5.914
		c-0.439,0-0.801-0.359-0.801-0.799V3.561c0-0.439,0.361-0.801,0.801-0.801h5.914h0.02h0.021l0.021,0.002l0.02,0.002l0.02,0.002
		l0.02,0.004l0.02,0.004l0.02,0.004l0.02,0.002l0.02,0.006l0.02,0.006l0.02,0.004l0,0l0.018,0.008l0,0l0.018,0.008l0.02,0.006
		l0.018,0.008l0.018,0.006l0.018,0.01l0.018,0.008l0.018,0.01l0,0l0.016,0.008l0.018,0.012l0.016,0.01l0.018,0.012l0.016,0.01l0,0
		l0.016,0.012l0.016,0.012l0.014,0.012l0,0l0.014,0.012l0.016,0.014l0.014,0.014l0,0l0.014,0.014l0,0l0.014,0.012V3.01l0.014,0.014
		l0.012,0.016l0.014,0.014l0.012,0.014v0.002l0.012,0.014l0.012,0.016l0.01,0.016l0.012,0.016l0.01,0.018l0.01,0.018l0,0l0.01,0.016
		v0.002l0.01,0.016l0.008,0.018l0,0l0.008,0.018l0,0l0.008,0.018l0.008,0.02l0.006,0.018l0,0l0.008,0.018l0.006,0.018l0,0
		l0.006,0.02l0,0l0.006,0.02l0,0l0.004,0.018v0.002l0.004,0.018l0.004,0.021l0.004,0.02l0,0l0.002,0.02l0.002,0.021l0.002,0.018
		l0.002,0.02v0.021l0.002,0.021V4.441z M24.079,38.137c-0.287,0-0.521,0.236-0.521,0.523v6.152c0,0.289,0.234,0.523,0.521,0.523
		h5.893c0.287,0,0.523-0.234,0.523-0.523V38.66c0-0.287-0.236-0.523-0.523-0.523H24.079z"/>
</g>
</svg>
