<?xml version="1.0" encoding="utf-8"?>
<!-- Generator: Adobe Illustrator 15.1.0, SVG Export Plug-In . SVG Version: 6.00 Build 0)  -->
<!DOCTYPE svg PUBLIC "-//W3C//DTD SVG 1.1//EN" "http://www.w3.org/Graphics/SVG/1.1/DTD/svg11.dtd">
<svg version="1.1" id="Layer_1" xmlns="http://www.w3.org/2000/svg" xmlns:xlink="http://www.w3.org/1999/xlink" x="0px" y="0px"
	 width="72px" height="57.6px" viewBox="0 0 72 57.6" enable-background="new 0 0 72 57.6" xml:space="preserve">
<g>
	<linearGradient id="SVGID_1_" gradientUnits="userSpaceOnUse" x1="29.3765" y1="8.5293" x2="29.3765" y2="50.0601">
		<stop  offset="0" style="stop-color:#FCAF20"/>
		<stop  offset="1" style="stop-color:#DE4E27;stop-opacity:0.95"/>
	</linearGradient>
	<path fill="url(#SVGID_1_)" d="M22.54,38.288L18.966,50.06h-7.828l13.31-41.53h9.683l13.486,41.53h-8.193l-3.762-11.771H22.54z
		 M34.436,32.558c0,0-4.747-15.588-5.366-17.991H28.95c-0.615,2.403-5.182,17.991-5.182,17.991H34.436z"/>
	<linearGradient id="SVGID_2_" gradientUnits="userSpaceOnUse" x1="56.6113" y1="7.54" x2="56.6113" y2="50.0601">
		<stop  offset="0" style="stop-color:#FCAF20"/>
		<stop  offset="1" style="stop-color:#DE4E27;stop-opacity:0.95"/>
	</linearGradient>
	<path fill="url(#SVGID_2_)" d="M60.862,11.674c0,2.218-1.66,4.063-4.306,4.063c-2.53,0-4.196-1.846-4.196-4.063
		c0-2.344,1.723-4.134,4.253-4.134C59.202,7.54,60.797,9.33,60.862,11.674z M52.795,50.06V20.052h7.576V50.06H52.795z"/>
</g>
</svg>
