<?xml version="1.0" encoding="utf-8"?>
<!-- Generator: Adobe Illustrator 15.1.0, SVG Export Plug-In . SVG Version: 6.00 Build 0)  -->
<!DOCTYPE svg PUBLIC "-//W3C//DTD SVG 1.1//EN" "http://www.w3.org/Graphics/SVG/1.1/DTD/svg11.dtd">
<svg version="1.1" id="Layer_1" xmlns="http://www.w3.org/2000/svg" xmlns:xlink="http://www.w3.org/1999/xlink" x="0px" y="0px"
	 width="72px" height="57.6px" viewBox="0 0 72 57.6" enable-background="new 0 0 72 57.6" xml:space="preserve">
<g>
	<path fill="#2F9CC1" d="M41.782,39.444c0.659-1.441,2.253-5.222,4.96-11.36c-1.071-1.911-2.713-4.609-4.01-6.587
		c-1.937-2.955-5.09-5.735-6.969-6.411c-0.788-0.284-1.472-0.397-2.012-0.438c-0.417,0.099-1.069-0.359-3.369,2.754
		c-0.802,1.086-2.083,3.465-3.492,6.288c3.291,6.666,4.609,8.888,7.632,13.849c1.328,2.18,2.687,3.469,3.831,4.243
		C39.551,42.022,41.098,40.94,41.782,39.444z"/>
	<path fill="#214080" d="M65.837,15.245c-2.897,0.035-10.528,0.097-10.528,0.097s-1.081-0.108-1.58,0.367
		c-0.5,0.477-2.905,3.165-6.136,10.451c-0.296,0.668-0.577,1.303-0.851,1.923c-2.707,6.139-4.301,9.919-4.96,11.36
		c-0.685,1.496-2.231,2.578-3.429,2.337c1.111,0.752,2.021,1.017,2.486,1.103c0.005,0,0.008,0.001,0.014,0.002
		c0.068,0.013,0.127,0.022,0.174,0.028c0.049,0.005,0.107,0.004,0.156,0.009c0.248,0.022,0.501,0.043,0.783,0.043
		c2.768,0,9.204,0,9.204,0s4.426,0.335,5.983-3.228c1.558-3.562,8.368-18.705,10.801-21.998c2.434-3.293,3.021-2.59,3.439-2.776
		C71.813,14.777,68.733,15.209,65.837,15.245z"/>
	<path fill="#1572AD" d="M32.555,14.673v-0.014c-1.091,0.091-2.716,0.227-4.291,0.246c-2.896,0.036-10.528,0.097-10.528,0.097
		s-1.081-0.108-1.581,0.368s-2.905,3.165-6.135,10.45C6.79,33.107,4.935,37.518,4.21,39.104c-0.726,1.585-2.423,2.725-3.643,2.297
		c0,0,1.06,1.225,3.827,1.225s9.205,0,9.205,0s4.425,0.335,5.983-3.228c1.044-2.387,4.446-9.971,7.309-15.709
		c1.41-2.823,2.69-5.202,3.492-6.288c2.299-3.113,2.951-2.655,3.369-2.754C33.037,14.592,32.595,14.664,32.555,14.673z"/>
</g>
</svg>
