<?xml version="1.0" encoding="utf-8"?>
<!-- Generator: Adobe Illustrator 15.1.0, SVG Export Plug-In . SVG Version: 6.00 Build 0)  -->
<!DOCTYPE svg PUBLIC "-//W3C//DTD SVG 1.1//EN" "http://www.w3.org/Graphics/SVG/1.1/DTD/svg11.dtd">
<svg version="1.1" id="Layer_1" xmlns="http://www.w3.org/2000/svg" xmlns:xlink="http://www.w3.org/1999/xlink" x="0px" y="0px"
	 width="72px" height="57.61px" viewBox="0 0 72 57.61" enable-background="new 0 0 72 57.61" xml:space="preserve">
<g>
	<g>
		<linearGradient id="SVGID_1_" gradientUnits="userSpaceOnUse" x1="35.9995" y1="0.0054" x2="35.9995" y2="57.606">
			<stop  offset="0" style="stop-color:#558DB5"/>
			<stop  offset="1" style="stop-color:#3F4871;stop-opacity:0.95"/>
		</linearGradient>
		<rect y="0.005" fill="url(#SVGID_1_)" width="72" height="57.6"/>
		
			<linearGradient id="SVGID_2_" gradientUnits="userSpaceOnUse" x1="23.0854" y1="-126.626" x2="23.0854" y2="-69.0166" gradientTransform="matrix(0 -1 1 0 141.0171 62.6953)">
			<stop  offset="0" style="stop-color:#558DB5"/>
			<stop  offset="1" style="stop-color:#3F4871;stop-opacity:0.95"/>
		</linearGradient>
		<polygon opacity="0.5" fill="url(#SVGID_2_)" points="72,21.614 72,57.605 14.391,57.605 		"/>
	</g>
	<path opacity="0.9" fill="#FFFFFF" d="M36.717,47.561h-1.434c-2.075,0-3.763-1.689-3.763-3.764v-1.164
		c-0.714-0.23-1.407-0.514-2.073-0.852l-1.285,1.287c-0.711,0.711-1.657,1.102-2.662,1.102c-1.006,0-1.951-0.391-2.662-1.102
		l-1.012-1.014c-1.467-1.467-1.467-3.855,0-5.324l1.271-1.27c-0.343-0.67-0.634-1.369-0.87-2.086h-1.222
		c-2.076,0-3.766-1.689-3.766-3.764v-1.433c0-2.076,1.689-3.764,3.766-3.764h1.195c0.227-0.713,0.506-1.399,0.833-2.059l-1.209-1.21
		c-1.467-1.467-1.467-3.854,0.001-5.324l1.012-1.012c0.711-0.713,1.656-1.103,2.662-1.103c1.005,0,1.951,0.39,2.662,1.103
		l1.168,1.17c0.701-0.363,1.434-0.67,2.19-0.914v-1.253c0-2.075,1.688-3.763,3.763-3.763h1.434c2.075,0,3.764,1.688,3.764,3.763
		v1.253c0.756,0.244,1.488,0.551,2.188,0.914l1.17-1.17c0.711-0.713,1.657-1.103,2.662-1.103c1.006,0,1.951,0.39,2.662,1.103
		l1.012,1.012c0.712,0.711,1.104,1.658,1.104,2.663c0,1.006-0.394,1.951-1.104,2.661l-1.21,1.21
		c0.328,0.657,0.607,1.346,0.835,2.059h1.195c2.076,0,3.766,1.688,3.766,3.764v1.433c0,2.075-1.689,3.764-3.766,3.764h-1.223
		c-0.235,0.715-0.526,1.414-0.869,2.086l1.271,1.27c1.468,1.469,1.468,3.857,0,5.324l-1.012,1.014
		c-0.711,0.711-1.656,1.102-2.662,1.102c-1.005,0-1.951-0.391-2.662-1.102l-1.286-1.287c-0.666,0.338-1.358,0.621-2.072,0.852v1.164
		C40.48,45.871,38.792,47.561,36.717,47.561z M29.131,39.553l0.597,0.338c0.916,0.52,1.901,0.924,2.929,1.203l0.664,0.18v2.523
		c0,1.082,0.881,1.963,1.963,1.963h1.434c1.082,0,1.964-0.881,1.964-1.963v-2.523l0.664-0.18c1.027-0.279,2.012-0.684,2.929-1.203
		l0.596-0.338l2.242,2.242c0.744,0.744,2.036,0.744,2.779,0l1.012-1.012c0.767-0.768,0.767-2.014,0-2.779l-2.233-2.232l0.343-0.598
		c0.528-0.922,0.94-1.91,1.226-2.939l0.183-0.66h2.575c1.083,0,1.964-0.881,1.964-1.963v-1.433c0-1.083-0.881-1.963-1.964-1.963
		h-2.559l-0.18-0.667c-0.278-1.037-0.677-2.017-1.183-2.917l-0.336-0.596l2.164-2.162c0.372-0.37,0.576-0.864,0.576-1.389
		c0-0.525-0.204-1.02-0.576-1.39l-1.012-1.013c-0.741-0.742-2.037-0.742-2.779,0l-2.137,2.139l-0.599-0.35
		c-0.945-0.55-1.966-0.976-3.032-1.268l-0.663-0.181v-2.61c0-1.082-0.882-1.963-1.964-1.963h-1.434
		c-1.082,0-1.963,0.881-1.963,1.963v2.61l-0.663,0.181c-1.069,0.292-2.09,0.72-3.034,1.268l-0.599,0.35l-2.136-2.141
		c-0.74-0.74-2.037-0.74-2.778,0.002l-1.012,1.013c-0.767,0.766-0.767,2.012,0,2.778l2.159,2.162l-0.333,0.595
		c-0.506,0.903-0.903,1.885-1.182,2.918l-0.179,0.667h-2.559c-1.083,0-1.964,0.88-1.964,1.963v1.433
		c0,1.083,0.881,1.963,1.964,1.963h2.574l0.183,0.66c0.287,1.033,0.699,2.021,1.227,2.939l0.343,0.598l-2.233,2.232
		c-0.766,0.766-0.766,2.012,0,2.779l1.012,1.012c0.743,0.744,2.035,0.744,2.779,0L29.131,39.553z M36,37.715
		c-4.839,0-8.777-3.938-8.777-8.775c0-4.84,3.938-8.776,8.777-8.776c4.84,0,8.778,3.937,8.778,8.776
		C44.778,33.777,40.84,37.715,36,37.715z M36,21.963c-3.847,0-6.978,3.128-6.978,6.977c0,3.845,3.131,6.976,6.978,6.976
		c3.848,0,6.979-3.131,6.979-6.976C42.979,25.091,39.848,21.963,36,21.963z M36,33.328c-2.47,0-4.479-2.008-4.479-4.478
		c0-2.472,2.01-4.48,4.479-4.48c2.471,0,4.48,2.009,4.48,4.48C40.48,31.32,38.471,33.328,36,33.328z M36,26.169
		c-1.478,0-2.68,1.202-2.68,2.681c0,1.476,1.202,2.679,2.68,2.679c1.479,0,2.681-1.203,2.681-2.679
		C38.681,27.372,37.479,26.169,36,26.169z"/>
</g>
</svg>
