<?xml version="1.0" encoding="utf-8"?>
<!-- Generator: Adobe Illustrator 15.1.0, SVG Export Plug-In . SVG Version: 6.00 Build 0)  -->
<!DOCTYPE svg PUBLIC "-//W3C//DTD SVG 1.1//EN" "http://www.w3.org/Graphics/SVG/1.1/DTD/svg11.dtd">
<svg version="1.1" id="Layer_1" xmlns="http://www.w3.org/2000/svg" xmlns:xlink="http://www.w3.org/1999/xlink" x="0px" y="0px"
	 width="17.01px" height="19.84px" viewBox="0 0 17.01 19.84" enable-background="new 0 0 17.01 19.84" xml:space="preserve">
<g>
	<g>
		<linearGradient id="SVGID_1_" gradientUnits="userSpaceOnUse" x1="8.5044" y1="1.7891" x2="8.5044" y2="18.0513">
			<stop  offset="0" style="stop-color:#2A8A55"/>
			<stop  offset="1" style="stop-color:#004625;stop-opacity:0.95"/>
		</linearGradient>
		<polygon fill="url(#SVGID_1_)" points="1.418,16.414 15.592,18.051 15.592,1.789 1.418,3.426 		"/>
	</g>
	<g>
		<path fill="#FFFFFF" d="M5.571,6.391c0,0,1.276,2.059,1.479,2.42H7.08c0.202-0.391,1.406-2.42,1.406-2.42h1.941L8.064,9.783
			l2.406,3.666H8.441c0,0-1.289-2.16-1.492-2.551h-0.03c-0.203,0.406-1.448,2.551-1.448,2.551H3.498l2.451-3.596L3.586,6.391H5.571z
			"/>
	</g>
	<g>
		<path fill="#FFFFFF" d="M11.539,15.549c0.315-0.861,0.703-2.396,0.861-3.443l1.405-0.145c-0.344,1.221-0.975,2.813-1.377,3.488
			L11.539,15.549z"/>
	</g>
</g>
</svg>
