<?xml version="1.0" encoding="utf-8"?>
<!-- Generator: Adobe Illustrator 15.1.0, SVG Export Plug-In . SVG Version: 6.00 Build 0)  -->
<!DOCTYPE svg PUBLIC "-//W3C//DTD SVG 1.1//EN" "http://www.w3.org/Graphics/SVG/1.1/DTD/svg11.dtd">
<svg version="1.1" id="Layer_1" xmlns="http://www.w3.org/2000/svg" xmlns:xlink="http://www.w3.org/1999/xlink" x="0px" y="0px"
	 width="17.01px" height="19.84px" viewBox="0 0 17.01 19.84" enable-background="new 0 0 17.01 19.84" xml:space="preserve">
<linearGradient id="SVGID_1_" gradientUnits="userSpaceOnUse" x1="8.5044" y1="2.2744" x2="8.5044" y2="17.5659">
	<stop  offset="0" style="stop-color:#558DB5"/>
	<stop  offset="1" style="stop-color:#3F4871;stop-opacity:0.95"/>
</linearGradient>
<path fill="url(#SVGID_1_)" d="M14.776,4.048c-0.494-1.305-3.638-1.773-6.271-1.773S2.728,2.743,2.233,4.048H2.181L2.158,4.265
	V15.19v0.217h0.073c0.479,1.338,3.553,2.158,6.273,2.158s5.795-0.82,6.273-2.158h0.051l0.022-0.217V4.265V4.048H14.776z
	 M13.687,11.501c-0.104,0.18-1.679,0.971-5.182,0.971s-5.08-0.791-5.188-1.004L3.32,9.28c1.119,0.51,3.013,0.809,5.185,0.809
	c2.169,0,4.063-0.299,5.182-0.809V11.501z M13.687,7.956c-0.104,0.178-1.683,0.969-5.182,0.969c-3.5,0-5.078-0.791-5.189-1.004
	L3.32,5.731c1.118,0.512,3.013,0.811,5.185,0.811c2.171,0,4.063-0.299,5.182-0.809V7.956z M8.505,5.378
	c-3.336,0-4.925-0.719-5.163-0.969C3.581,4.157,5.171,3.44,8.505,3.44c3.333,0,4.923,0.717,5.161,0.969
	C13.429,4.659,11.841,5.378,8.505,5.378z M3.321,12.825c1.118,0.512,3.012,0.811,5.184,0.811c2.17,0,4.063-0.299,5.182-0.809v2.221
	c-0.089,0.217-1.734,1.354-5.182,1.354c-3.448,0-5.094-1.137-5.186-1.379L3.321,12.825z"/>
</svg>
