<?xml version="1.0" encoding="utf-8"?>
<!-- Generator: Adobe Illustrator 15.1.0, SVG Export Plug-In . SVG Version: 6.00 Build 0)  -->
<!DOCTYPE svg PUBLIC "-//W3C//DTD SVG 1.1//EN" "http://www.w3.org/Graphics/SVG/1.1/DTD/svg11.dtd">
<svg version="1.1" id="Layer_1" xmlns="http://www.w3.org/2000/svg" xmlns:xlink="http://www.w3.org/1999/xlink" x="0px" y="0px"
	 width="17.01px" height="19.84px" viewBox="0 0 17.01 19.84" enable-background="new 0 0 17.01 19.84" xml:space="preserve">
<g>
	<g>
		<polygon fill="#295599" points="1.418,16.414 15.592,18.052 15.592,1.788 1.418,3.427 		"/>
	</g>
	<g>
		<path fill="#FFFFFF" d="M5.792,7.108c0,0,0.842,3.763,0.945,4.375h0.023c0.115-0.612,1.19-4.375,1.19-4.375h1.155
			c0,0,1.029,3.763,1.154,4.375h0.021c0.08-0.612,0.994-4.375,0.994-4.375h1.397l-1.768,5.623H9.591c0,0-0.971-3.406-1.098-4.089
			H8.47c-0.128,0.692-1.143,4.089-1.143,4.089H5.999L4.336,7.108H5.792z"/>
	</g>
</g>
</svg>
