<?xml version="1.0" encoding="utf-8"?>
<!-- Generator: Adobe Illustrator 15.1.0, SVG Export Plug-In . SVG Version: 6.00 Build 0)  -->
<!DOCTYPE svg PUBLIC "-//W3C//DTD SVG 1.1//EN" "http://www.w3.org/Graphics/SVG/1.1/DTD/svg11.dtd">
<svg version="1.1" id="Layer_1" xmlns="http://www.w3.org/2000/svg" xmlns:xlink="http://www.w3.org/1999/xlink" x="0px" y="0px"
	 width="72px" height="57.6px" viewBox="0 0 72 57.6" enable-background="new 0 0 72 57.6" xml:space="preserve">
<g>
	<g>
		<polygon fill="#295599" points="11.296,51.435 60.704,57.146 60.704,0.454 11.296,6.165 		"/>
	</g>
	<g>
		<path fill="#FFFFFF" d="M26.543,18.999c0,0,2.935,13.115,3.296,15.248h0.081c0.401-2.133,4.149-15.248,4.149-15.248h4.027
			c0,0,3.589,13.115,4.024,15.248h0.075c0.278-2.133,3.465-15.248,3.465-15.248h4.872l-6.162,19.6h-4.585
			c0,0-3.385-11.873-3.827-14.254h-0.081c-0.446,2.416-3.983,14.254-3.983,14.254h-4.63l-5.797-19.6H26.543z"/>
	</g>
</g>
</svg>
