<?xml version="1.0" encoding="utf-8"?>
<!-- Generator: Adobe Illustrator 15.1.0, SVG Export Plug-In . SVG Version: 6.00 Build 0)  -->
<!DOCTYPE svg PUBLIC "-//W3C//DTD SVG 1.1//EN" "http://www.w3.org/Graphics/SVG/1.1/DTD/svg11.dtd">
<svg version="1.1" id="Layer_1" xmlns="http://www.w3.org/2000/svg" xmlns:xlink="http://www.w3.org/1999/xlink" x="0px" y="0px"
	 width="72px" height="57.6px" viewBox="0 0 72 57.6" enable-background="new 0 0 72 57.6" xml:space="preserve">
<g>
	<path fill="#F16522" d="M61.512,50.927c0,1.865-1.515,3.385-3.385,3.385H13.873c-1.87,0-3.385-1.52-3.385-3.385V6.674
		c0-1.869,1.515-3.385,3.385-3.385h44.254c1.87,0,3.385,1.516,3.385,3.385V50.927z"/>
	<path fill="#FFFFFF" d="M56.41,46.497c0,1.494-1.211,2.713-2.71,2.713H18.301c-1.497,0-2.71-1.219-2.71-2.713V11.102
		c0-1.503,1.213-2.712,2.71-2.712H53.7c1.499,0,2.71,1.209,2.71,2.712V46.497z"/>
	<path fill="#F16522" d="M49.814,20.591c0,2.812-2.281,5.103-5.102,5.103c-2.817,0-5.103-2.291-5.103-5.103
		c0-2.82,2.285-5.103,5.103-5.103C47.533,15.488,49.814,17.77,49.814,20.591z"/>
	<polygon fill="#F16522" points="51.766,44.689 42.167,33.368 37.313,37.902 29.833,27.098 20.237,44.634 	"/>
</g>
</svg>
