<?xml version="1.0" encoding="utf-8"?>
<!-- Generator: Adobe Illustrator 15.1.0, SVG Export Plug-In . SVG Version: 6.00 Build 0)  -->
<!DOCTYPE svg PUBLIC "-//W3C//DTD SVG 1.1//EN" "http://www.w3.org/Graphics/SVG/1.1/DTD/svg11.dtd">
<svg version="1.1" id="Layer_1" xmlns="http://www.w3.org/2000/svg" xmlns:xlink="http://www.w3.org/1999/xlink" x="0px" y="0px"
	 width="72px" height="57.6px" viewBox="0 0 72 57.6" enable-background="new 0 0 72 57.6" xml:space="preserve">
<g>
	<path fill-rule="evenodd" clip-rule="evenodd" fill="#5984A3" d="M28.559,44.297c0,0-2.164,1.26,1.543,1.684
		c4.495,0.514,6.788,0.441,11.737-0.494c0,0,1.306,0.814,3.124,1.521C33.864,51.764,19.843,46.73,28.559,44.297L28.559,44.297z"/>
	<path fill-rule="evenodd" clip-rule="evenodd" fill="#5984A3" d="M27.203,38.092c0,0-2.432,1.795,1.279,2.178
		c4.803,0.496,8.592,0.539,15.152-0.723c0,0,0.904,0.918,2.33,1.42C32.545,44.891,17.604,41.275,27.203,38.092L27.203,38.092z"/>
	<path fill-rule="evenodd" clip-rule="evenodd" fill="#F06E24" d="M38.636,27.56c2.737,3.151-0.718,5.983-0.718,5.983
		s6.943-3.586,3.757-8.076c-2.981-4.185-5.264-6.263,7.102-13.433C48.776,12.035,29.364,16.88,38.636,27.56L38.636,27.56z"/>
	<path fill-rule="evenodd" clip-rule="evenodd" fill="#5984A3" d="M53.314,48.887c0,0,1.604,1.32-1.764,2.344
		c-6.407,1.941-26.664,2.525-32.293,0.078c-2.02-0.879,1.771-2.1,2.965-2.359c1.244-0.268,1.956-0.219,1.956-0.219
		c-2.25-1.586-14.54,3.109-6.243,4.457C40.565,56.855,59.183,51.535,53.314,48.887L53.314,48.887z"/>
	<path fill-rule="evenodd" clip-rule="evenodd" fill="#5984A3" d="M29.601,31.658c0,0-10.302,2.447-3.647,3.338
		c2.812,0.377,8.409,0.291,13.63-0.148c4.268-0.357,8.545-1.123,8.545-1.123s-1.503,0.645-2.59,1.387
		c-10.466,2.754-30.677,1.471-24.86-1.344C25.599,31.389,29.601,31.658,29.601,31.658L29.601,31.658z"/>
	<path fill-rule="evenodd" clip-rule="evenodd" fill="#5984A3" d="M48.085,41.988c10.637-5.525,5.719-10.834,2.288-10.119
		c-0.842,0.174-1.219,0.326-1.219,0.326s0.313-0.49,0.91-0.701c6.791-2.386,12.014,7.043-2.192,10.775
		C47.872,42.27,48.036,42.121,48.085,41.988L48.085,41.988z"/>
	<path fill-rule="evenodd" clip-rule="evenodd" fill="#F06E24" d="M41.675,0.453c0,0,5.889,5.893-5.589,14.952
		c-9.205,7.271-2.101,11.415-0.003,16.152c-5.373-4.847-9.317-9.116-6.673-13.086C33.295,12.64,44.049,9.812,41.675,0.453
		L41.675,0.453z"/>
	<path fill-rule="evenodd" clip-rule="evenodd" fill="#5984A3" d="M30.646,56.969c10.207,0.652,25.889-0.363,26.26-5.195
		c0,0-0.714,1.832-8.435,3.285c-8.716,1.641-19.468,1.449-25.841,0.398C22.631,55.457,23.937,56.537,30.646,56.969L30.646,56.969z"
		/>
</g>
</svg>
