<?xml version="1.0" encoding="utf-8"?>
<!-- Generator: Adobe Illustrator 15.1.0, SVG Export Plug-In . SVG Version: 6.00 Build 0)  -->
<!DOCTYPE svg PUBLIC "-//W3C//DTD SVG 1.1//EN" "http://www.w3.org/Graphics/SVG/1.1/DTD/svg11.dtd">
<svg version="1.1" id="Layer_1" xmlns="http://www.w3.org/2000/svg" xmlns:xlink="http://www.w3.org/1999/xlink" x="0px" y="0px"
	 width="17.01px" height="19.84px" viewBox="0 0 17.01 19.84" enable-background="new 0 0 17.01 19.84" xml:space="preserve">
<g>
	<path fill-rule="evenodd" clip-rule="evenodd" fill="#5984A3" d="M3.172,14.9c0,0-1.099,0.641,0.783,0.857
		c2.284,0.26,3.449,0.223,5.965-0.252c0,0,0.662,0.414,1.587,0.773C5.868,18.695-1.256,16.139,3.172,14.9L3.172,14.9z"/>
	<path fill-rule="evenodd" clip-rule="evenodd" fill="#5984A3" d="M2.485,11.748c0,0-1.236,0.914,0.648,1.107
		c2.441,0.252,4.365,0.273,7.699-0.367c0,0,0.46,0.465,1.185,0.721C5.199,15.203-2.394,13.367,2.485,11.748L2.485,11.748z"/>
	<path fill-rule="evenodd" clip-rule="evenodd" fill="#5984A3" d="M12.379,16.041c5.404-2.809,2.904-5.507,1.161-5.143
		c-0.426,0.088-0.619,0.165-0.619,0.165s0.159-0.249,0.465-0.355c3.449-1.213,6.103,3.578-1.116,5.474
		C12.27,16.182,12.354,16.107,12.379,16.041L12.379,16.041z"/>
	<path fill-rule="evenodd" clip-rule="evenodd" fill="#5984A3" d="M3.503,19.695c4.27,0.418,10.849,0.035,11.055-2.414
		c0,0-0.317,0.924-3.568,1.598c-3.668,0.758-8.17,0.568-10.829-0.02C0.162,18.859,0.697,19.42,3.503,19.695L3.503,19.695z"/>
	<path fill-rule="evenodd" clip-rule="evenodd" fill="#F06E24" d="M6.724,10.546c1.064,1.227-0.28,2.329-0.28,2.329
		s2.703-1.396,1.463-3.143c-1.159-1.628-2.048-2.438,2.765-5.227C10.672,4.505,3.117,6.39,6.724,10.546L6.724,10.546z"/>
	<path fill-rule="evenodd" clip-rule="evenodd" fill="#F06E24" d="M7.907-0.001c0,0,2.292,2.294-2.176,5.818
		C2.15,8.646,4.915,10.258,5.73,12.102c-2.09-1.885-3.625-3.547-2.596-5.092C4.646,4.741,8.831,3.64,7.907-0.001L7.907-0.001z"/>
</g>
</svg>
