<?xml version="1.0" encoding="utf-8"?>
<!-- Generator: Adobe Illustrator 15.1.0, SVG Export Plug-In . SVG Version: 6.00 Build 0)  -->
<!DOCTYPE svg PUBLIC "-//W3C//DTD SVG 1.1//EN" "http://www.w3.org/Graphics/SVG/1.1/DTD/svg11.dtd">
<svg version="1.1" id="Layer_1" xmlns="http://www.w3.org/2000/svg" xmlns:xlink="http://www.w3.org/1999/xlink" x="0px" y="0px"
	 width="17.01px" height="19.84px" viewBox="0 0 17.01 19.84" enable-background="new 0 0 17.01 19.84" xml:space="preserve">
<g>
	<linearGradient id="SVGID_1_" gradientUnits="userSpaceOnUse" x1="8.5044" y1="3.8555" x2="8.5044" y2="15.9849">
		<stop  offset="0" style="stop-color:#558DB5"/>
		<stop  offset="1" style="stop-color:#3F4871;stop-opacity:0.95"/>
	</linearGradient>
	<path fill="url(#SVGID_1_)" d="M1.135,3.855v12.129h14.74V3.855H1.135z M1.966,7.371h13.078v7.782H1.966V7.371z"/>
	<g>
		<linearGradient id="SVGID_2_" gradientUnits="userSpaceOnUse" x1="5.2026" y1="8.5547" x2="5.2026" y2="9.1553">
			<stop  offset="0" style="stop-color:#558DB5"/>
			<stop  offset="1" style="stop-color:#3F4871;stop-opacity:0.95"/>
		</linearGradient>
		<path fill="url(#SVGID_2_)" d="M6.404,9.155H4.002c-0.166,0-0.301-0.134-0.301-0.3s0.135-0.301,0.301-0.301h2.402
			c0.165,0,0.3,0.135,0.3,0.301S6.569,9.155,6.404,9.155z"/>
		<linearGradient id="SVGID_3_" gradientUnits="userSpaceOnUse" x1="9.106" y1="8.5547" x2="9.106" y2="9.1553">
			<stop  offset="0" style="stop-color:#558DB5"/>
			<stop  offset="1" style="stop-color:#3F4871;stop-opacity:0.95"/>
		</linearGradient>
		<path fill="url(#SVGID_3_)" d="M10.607,9.155H7.604c-0.166,0-0.3-0.134-0.3-0.3s0.134-0.301,0.3-0.301h3.003
			c0.166,0,0.3,0.135,0.3,0.301S10.773,9.155,10.607,9.155z"/>
		<linearGradient id="SVGID_4_" gradientUnits="userSpaceOnUse" x1="12.4082" y1="8.5547" x2="12.4082" y2="9.1553">
			<stop  offset="0" style="stop-color:#558DB5"/>
			<stop  offset="1" style="stop-color:#3F4871;stop-opacity:0.95"/>
		</linearGradient>
		<path fill="url(#SVGID_4_)" d="M13.009,9.155h-1.201c-0.166,0-0.3-0.134-0.3-0.3s0.134-0.301,0.3-0.301h1.201
			c0.166,0,0.3,0.135,0.3,0.301S13.175,9.155,13.009,9.155z"/>
		<linearGradient id="SVGID_5_" gradientUnits="userSpaceOnUse" x1="4.6021" y1="10.0566" x2="4.6021" y2="10.6563">
			<stop  offset="0" style="stop-color:#558DB5"/>
			<stop  offset="1" style="stop-color:#3F4871;stop-opacity:0.95"/>
		</linearGradient>
		<path fill="url(#SVGID_5_)" d="M5.203,10.656H4.002c-0.166,0-0.301-0.134-0.301-0.3s0.135-0.3,0.301-0.3h1.201
			c0.166,0,0.3,0.134,0.3,0.3S5.369,10.656,5.203,10.656z"/>
		<linearGradient id="SVGID_6_" gradientUnits="userSpaceOnUse" x1="7.6045" y1="10.0566" x2="7.6045" y2="10.6563">
			<stop  offset="0" style="stop-color:#558DB5"/>
			<stop  offset="1" style="stop-color:#3F4871;stop-opacity:0.95"/>
		</linearGradient>
		<path fill="url(#SVGID_6_)" d="M8.806,10.656H6.404c-0.166,0-0.301-0.134-0.301-0.3s0.135-0.3,0.301-0.3h2.401
			c0.166,0,0.3,0.134,0.3,0.3S8.972,10.656,8.806,10.656z"/>
		<linearGradient id="SVGID_7_" gradientUnits="userSpaceOnUse" x1="11.5078" y1="10.0566" x2="11.5078" y2="10.6563">
			<stop  offset="0" style="stop-color:#558DB5"/>
			<stop  offset="1" style="stop-color:#3F4871;stop-opacity:0.95"/>
		</linearGradient>
		<path fill="url(#SVGID_7_)" d="M13.009,10.656h-3.003c-0.166,0-0.3-0.134-0.3-0.3s0.134-0.3,0.3-0.3h3.003
			c0.166,0,0.3,0.134,0.3,0.3S13.175,10.656,13.009,10.656z"/>
		<linearGradient id="SVGID_8_" gradientUnits="userSpaceOnUse" x1="5.5029" y1="11.8574" x2="5.5029" y2="12.458">
			<stop  offset="0" style="stop-color:#558DB5"/>
			<stop  offset="1" style="stop-color:#3F4871;stop-opacity:0.95"/>
		</linearGradient>
		<path fill="url(#SVGID_8_)" d="M7.004,12.458H4.002c-0.166,0-0.301-0.135-0.301-0.3c0-0.166,0.135-0.301,0.301-0.301h3.002
			c0.166,0,0.301,0.135,0.301,0.301C7.305,12.323,7.17,12.458,7.004,12.458z"/>
		<linearGradient id="SVGID_9_" gradientUnits="userSpaceOnUse" x1="9.7056" y1="11.8574" x2="9.7056" y2="12.458">
			<stop  offset="0" style="stop-color:#558DB5"/>
			<stop  offset="1" style="stop-color:#3F4871;stop-opacity:0.95"/>
		</linearGradient>
		<path fill="url(#SVGID_9_)" d="M11.207,12.458H8.205c-0.166,0-0.301-0.135-0.301-0.3c0-0.166,0.135-0.301,0.301-0.301h3.002
			c0.166,0,0.301,0.135,0.301,0.301C11.508,12.323,11.373,12.458,11.207,12.458z"/>
		<linearGradient id="SVGID_10_" gradientUnits="userSpaceOnUse" x1="12.708" y1="11.8574" x2="12.708" y2="12.458">
			<stop  offset="0" style="stop-color:#558DB5"/>
			<stop  offset="1" style="stop-color:#3F4871;stop-opacity:0.95"/>
		</linearGradient>
		<path fill="url(#SVGID_10_)" d="M13.009,12.458h-0.601c-0.166,0-0.301-0.135-0.301-0.3c0-0.166,0.135-0.301,0.301-0.301h0.601
			c0.166,0,0.3,0.135,0.3,0.301C13.309,12.323,13.175,12.458,13.009,12.458z"/>
		<linearGradient id="SVGID_11_" gradientUnits="userSpaceOnUse" x1="4.6021" y1="13.3584" x2="4.6021" y2="13.959">
			<stop  offset="0" style="stop-color:#558DB5"/>
			<stop  offset="1" style="stop-color:#3F4871;stop-opacity:0.95"/>
		</linearGradient>
		<path fill="url(#SVGID_11_)" d="M5.203,13.959H4.002c-0.166,0-0.301-0.134-0.301-0.3s0.135-0.301,0.301-0.301h1.201
			c0.166,0,0.3,0.135,0.3,0.301S5.369,13.959,5.203,13.959z"/>
		<linearGradient id="SVGID_12_" gradientUnits="userSpaceOnUse" x1="7.4546" y1="13.3584" x2="7.4546" y2="13.959">
			<stop  offset="0" style="stop-color:#558DB5"/>
			<stop  offset="1" style="stop-color:#3F4871;stop-opacity:0.95"/>
		</linearGradient>
		<path fill="url(#SVGID_12_)" d="M8.506,13.959H6.404c-0.166,0-0.301-0.134-0.301-0.3s0.135-0.301,0.301-0.301h2.102
			c0.166,0,0.3,0.135,0.3,0.301S8.672,13.959,8.506,13.959z"/>
	</g>
</g>
</svg>
