<?xml version="1.0" encoding="utf-8"?>
<!-- Generator: Adobe Illustrator 15.1.0, SVG Export Plug-In . SVG Version: 6.00 Build 0)  -->
<!DOCTYPE svg PUBLIC "-//W3C//DTD SVG 1.1//EN" "http://www.w3.org/Graphics/SVG/1.1/DTD/svg11.dtd">
<svg version="1.1" id="Layer_1" xmlns="http://www.w3.org/2000/svg" xmlns:xlink="http://www.w3.org/1999/xlink" x="0px" y="0px"
	 width="17.01px" height="19.84px" viewBox="0 0 17.01 19.84" enable-background="new 0 0 17.01 19.84" xml:space="preserve">
<linearGradient id="SVGID_1_" gradientUnits="userSpaceOnUse" x1="8.5044" y1="2.833" x2="8.5044" y2="17.0073">
	<stop  offset="0" style="stop-color:#4A93CF"/>
	<stop  offset="1" style="stop-color:#005B96;stop-opacity:0.95"/>
</linearGradient>
<path opacity="0.9" fill="url(#SVGID_1_)" d="M15.592,9.918c0-3.913-3.172-7.085-7.088-7.085c-3.914,0-7.086,3.172-7.086,7.085
	s3.172,7.089,7.086,7.089c1.385,0,2.678-0.396,3.768-1.086c0.438,0.637,1.461,1.086,2.656,1.086c0.227,0,0.664-1.375,0.664-1.375
	c-0.82-0.121-1.5-0.455-1.883-0.9C14.877,13.468,15.592,11.776,15.592,9.918z M8.504,4.29c1.148,0,2.084,0.936,2.084,2.085
	c0,1.151-0.936,2.084-2.084,2.084S6.42,7.526,6.42,6.375C6.42,5.226,7.355,4.29,8.504,4.29z M9.391,9.918
	c0,0.491-0.398,0.887-0.887,0.887c-0.49,0-0.885-0.396-0.885-0.887c0-0.488,0.395-0.885,0.885-0.885
	C8.992,9.033,9.391,9.43,9.391,9.918z M2.875,9.918c0-1.148,0.934-2.084,2.086-2.084c1.148,0,2.084,0.936,2.084,2.084
	c0,1.151-0.936,2.087-2.084,2.087C3.809,12.005,2.875,11.069,2.875,9.918z M8.504,15.544c-1.148,0-2.084-0.932-2.084-2.08
	c0-1.15,0.936-2.087,2.084-2.087s2.084,0.937,2.084,2.087C10.588,14.612,9.652,15.544,8.504,15.544z M12.49,12.005
	c-1.146,0-2.082-0.936-2.082-2.087c0-1.148,0.936-2.084,2.082-2.084c1.148,0,2.084,0.936,2.084,2.084
	C14.574,11.069,13.639,12.005,12.49,12.005z"/>
</svg>
