<?xml version="1.0" encoding="utf-8"?>
<!-- Generator: Adobe Illustrator 15.1.0, SVG Export Plug-In . SVG Version: 6.00 Build 0)  -->
<!DOCTYPE svg PUBLIC "-//W3C//DTD SVG 1.1//EN" "http://www.w3.org/Graphics/SVG/1.1/DTD/svg11.dtd">
<svg version="1.1" id="Layer_1" xmlns="http://www.w3.org/2000/svg" xmlns:xlink="http://www.w3.org/1999/xlink" x="0px" y="0px"
	 width="72px" height="57.6px" viewBox="0 0 72 57.6" enable-background="new 0 0 72 57.6" xml:space="preserve">
<linearGradient id="SVGID_1_" gradientUnits="userSpaceOnUse" x1="35.9995" y1="0.4531" x2="35.9995" y2="57.147">
	<stop  offset="0" style="stop-color:#4A93CF"/>
	<stop  offset="1" style="stop-color:#005B96;stop-opacity:0.95"/>
</linearGradient>
<path opacity="0.9" fill="url(#SVGID_1_)" d="M64.351,28.793c0-15.65-12.688-28.34-28.354-28.34
	c-15.658,0-28.348,12.689-28.348,28.34c0,15.656,12.689,28.354,28.348,28.354c5.539,0,10.712-1.578,15.071-4.344
	c1.751,2.555,5.844,4.344,10.626,4.344c0.906,0,2.656-5.492,2.656-5.492c-3.281-0.484-6.001-1.83-7.532-3.611
	C61.491,42.996,64.351,36.223,64.351,28.793z M35.997,6.281c4.594,0,8.336,3.742,8.336,8.338c0,4.609-3.742,8.336-8.336,8.336
	c-4.595,0-8.337-3.727-8.337-8.336C27.66,10.023,31.402,6.281,35.997,6.281z M39.544,28.793c0,1.969-1.594,3.547-3.547,3.547
	c-1.961,0-3.54-1.578-3.54-3.547c0-1.953,1.579-3.539,3.54-3.539C37.95,25.254,39.544,26.84,39.544,28.793z M13.479,28.793
	c0-4.594,3.734-8.338,8.344-8.338c4.595,0,8.337,3.744,8.337,8.338c0,4.609-3.742,8.352-8.337,8.352
	C17.214,37.145,13.479,33.402,13.479,28.793z M35.997,51.303c-4.595,0-8.337-3.736-8.337-8.33c0-4.602,3.742-8.344,8.337-8.344
	c4.594,0,8.336,3.742,8.336,8.344C44.333,47.566,40.591,51.303,35.997,51.303z M51.944,37.145c-4.587,0-8.33-3.742-8.33-8.352
	c0-4.594,3.743-8.338,8.33-8.338c4.593,0,8.336,3.744,8.336,8.338C60.28,33.402,56.537,37.145,51.944,37.145z"/>
</svg>
