<?xml version="1.0" encoding="utf-8"?>
<!-- Generator: Adobe Illustrator 15.1.0, SVG Export Plug-In . SVG Version: 6.00 Build 0)  -->
<!DOCTYPE svg PUBLIC "-//W3C//DTD SVG 1.1//EN" "http://www.w3.org/Graphics/SVG/1.1/DTD/svg11.dtd">
<svg version="1.1" id="Layer_1" xmlns="http://www.w3.org/2000/svg" xmlns:xlink="http://www.w3.org/1999/xlink" x="0px" y="0px"
	 width="17.01px" height="19.84px" viewBox="0 0 17.01 19.84" enable-background="new 0 0 17.01 19.84" xml:space="preserve">
<linearGradient id="SVGID_1_" gradientUnits="userSpaceOnUse" x1="8.5049" y1="2.2275" x2="8.5049" y2="17.6128">
	<stop  offset="0" style="stop-color:#4A93CF"/>
	<stop  offset="1" style="stop-color:#005B96;stop-opacity:0.95"/>
</linearGradient>
<path fill="url(#SVGID_1_)" d="M15.573,2.228c-3.313,0.065-7.147,0.64-10.454,1.721C5.113,3.927,5.13,13.781,5.13,13.781
	c-0.598-0.135-1.272-0.057-1.984,0.266c-1.314,0.6-2.032,1.809-1.603,2.701c0.431,0.893,1.848,1.135,3.164,0.535
	c1.204-0.645,1.59-1.227,1.629-2.07l0.03-8.538c2.61-0.77,5.367-1.225,7.978-1.365v7.634c-0.604-0.148-1.406-0.072-2.13,0.256
	c-1.316,0.598-2.036,1.809-1.603,2.701c0.43,0.895,1.846,1.135,3.163,0.537c0.938-0.426,1.686-1.162,1.817-1.871
	C15.592,14.566,15.56,2.212,15.573,2.228z"/>
</svg>
