<?xml version="1.0" encoding="utf-8"?>
<!-- Generator: Adobe Illustrator 15.1.0, SVG Export Plug-In . SVG Version: 6.00 Build 0)  -->
<!DOCTYPE svg PUBLIC "-//W3C//DTD SVG 1.1//EN" "http://www.w3.org/Graphics/SVG/1.1/DTD/svg11.dtd">
<svg version="1.1" id="Layer_1" xmlns="http://www.w3.org/2000/svg" xmlns:xlink="http://www.w3.org/1999/xlink" x="0px" y="0px"
	 width="72px" height="57.6px" viewBox="0 0 72 57.6" enable-background="new 0 0 72 57.6" xml:space="preserve">
<g>
	<polygon fill="#486AB2" points="9.743,48.281 10.851,52.406 18.761,57.146 23.919,55.764 35.063,32.049 25.136,26.013 	"/>
	<path fill="#679AD1" d="M61.296,11.887L54.71,8.79l-4.467,0.571l-1.932-1.31l-0.258-3.459l-6.809-3.93l-4.336,1.165
		c0,0-9.162-5.29-25.688,4.893c0,0,12.904-0.579,21.809,7.874l-7.895,11.42l9.928,6.036l5.627-11.985l4.023,1.802l0.941,3.51
		l6.051,3.583l3.51-0.941l7.041-12.535L61.296,11.887z"/>
</g>
</svg>
