<?xml version="1.0" encoding="utf-8"?>
<!-- Generator: Adobe Illustrator 15.1.0, SVG Export Plug-In . SVG Version: 6.00 Build 0)  -->
<!DOCTYPE svg PUBLIC "-//W3C//DTD SVG 1.1//EN" "http://www.w3.org/Graphics/SVG/1.1/DTD/svg11.dtd">
<svg version="1.1" id="Layer_1" xmlns="http://www.w3.org/2000/svg" xmlns:xlink="http://www.w3.org/1999/xlink" x="0px" y="0px"
	 width="72px" height="57.6px" viewBox="0 0 72 57.6" enable-background="new 0 0 72 57.6" xml:space="preserve">
<linearGradient id="SVGID_1_" gradientUnits="userSpaceOnUse" x1="35.9995" y1="7.5396" x2="35.9995" y2="50.0601">
	<stop  offset="0" style="stop-color:#D9313B"/>
	<stop  offset="1" style="stop-color:#700E1F;stop-opacity:0.95"/>
</linearGradient>
<path fill="url(#SVGID_1_)" d="M28.344,32.354c1.326-2.592,2.83-5.517,4.036-8.453l0,0l0.472-1.159
	c-1.57-5.984-2.516-10.796-1.674-13.898l0,0c0.23-0.812,1.164-1.304,2.169-1.304l0,0l0.614,0.01h0.11
	c1.374-0.021,2.021,1.724,2.093,2.403l0,0C36.284,11.083,35.765,13,35.765,13l0,0c0-0.774,0.03-2.023-0.46-3.103l0,0
	c-0.566-1.249-1.106-1.993-1.596-2.107l0,0c-0.245,0.162-0.482,0.502-0.564,1.156l0,0c-0.173,0.917-0.221,2.07-0.221,2.67l0,0
	c0,2.104,0.413,4.884,1.227,7.749l0,0c0.155-0.442,0.291-0.867,0.397-1.269l0,0c0.168-0.63,1.231-4.802,1.231-4.802l0,0
	c0,0-0.27,5.556-0.645,7.239l0,0c-0.077,0.35-0.167,0.699-0.257,1.064l0,0c1.341,3.754,3.51,7.104,6.093,9.517l0,0
	c1.02,0.951,2.303,1.719,3.521,2.418l0,0c2.658-0.379,5.106-0.559,7.149-0.537l0,0c2.713,0.037,4.701,0.438,5.506,1.232l0,0
	c0.395,0.385,0.558,0.848,0.604,1.373l0,0c0.01,0.203-0.088,0.68-0.115,0.799l0,0c0.027-0.145,0.027-0.859-2.148-1.551l0,0
	c-1.716-0.549-4.918-0.531-8.768-0.123l0,0c4.451,2.176,8.788,3.258,10.167,2.609l0,0c0.329-0.166,0.741-0.721,0.741-0.721l0,0
	c0,0-0.244,1.1-0.416,1.375l0,0c-0.226,0.299-0.66,0.623-1.072,0.73l0,0c-2.171,0.578-7.818-0.762-12.742-3.57l0,0
	c-5.503,0.807-11.543,2.305-16.392,3.893l0,0c-4.757,8.34-8.333,12.172-11.246,10.713l0,0l-1.071-0.541
	c-0.438-0.246-0.502-0.848-0.4-1.344l0,0c0.34-1.662,2.421-4.16,6.603-6.658l0,0c0.452-0.275,2.458-1.334,2.458-1.334l0,0
	c0,0-1.484,1.438-1.834,1.721l0,0c-3.337,2.732-5.8,6.178-5.74,7.512l0,0l0.013,0.115C18.623,48.82,22.875,43.051,28.344,32.354
	 M30.074,33.244c-0.909,1.719-1.804,3.313-2.625,4.775l0,0c4.554-1.908,9.462-3.133,14.136-4l0,0
	c-0.63-0.434-1.244-0.891-1.813-1.375l0,0c-2.575-2.178-4.536-4.897-5.955-7.754l0,0C32.912,27.318,31.843,29.901,30.074,33.244"/>
</svg>
