<?xml version="1.0" encoding="utf-8"?>
<!-- Generator: Adobe Illustrator 15.1.0, SVG Export Plug-In . SVG Version: 6.00 Build 0)  -->
<!DOCTYPE svg PUBLIC "-//W3C//DTD SVG 1.1//EN" "http://www.w3.org/Graphics/SVG/1.1/DTD/svg11.dtd">
<svg version="1.1" id="Layer_1" xmlns="http://www.w3.org/2000/svg" xmlns:xlink="http://www.w3.org/1999/xlink" x="0px" y="0px"
	 width="17.01px" height="19.84px" viewBox="0 0 17.01 19.84" enable-background="new 0 0 17.01 19.84" xml:space="preserve">
<linearGradient id="SVGID_1_" gradientUnits="userSpaceOnUse" x1="8.5044" y1="1.6084" x2="8.5044" y2="18.2319">
	<stop  offset="0" style="stop-color:#D9313B"/>
	<stop  offset="1" style="stop-color:#700E1F;stop-opacity:0.95"/>
</linearGradient>
<path fill="url(#SVGID_1_)" d="M5.512,11.31C6.03,10.295,6.618,9.152,7.09,8.004l0,0l0.185-0.453C6.66,5.211,6.291,3.332,6.62,2.118
	l0,0c0.09-0.317,0.455-0.509,0.848-0.509l0,0l0.24,0.004h0.043c0.537-0.009,0.79,0.674,0.818,0.939l0,0
	c0.047,0.442-0.156,1.191-0.156,1.191l0,0c0-0.303,0.012-0.792-0.18-1.213l0,0C8.012,2.042,7.801,1.751,7.609,1.706l0,0
	C7.514,1.77,7.421,1.902,7.389,2.158l0,0c-0.067,0.358-0.086,0.81-0.086,1.043l0,0c0,0.823,0.161,1.91,0.479,3.03l0,0
	c0.061-0.173,0.113-0.339,0.155-0.496l0,0c0.065-0.247,0.481-1.878,0.481-1.878l0,0c0,0-0.105,2.172-0.252,2.83l0,0
	c-0.03,0.138-0.065,0.274-0.101,0.416l0,0c0.524,1.468,1.372,2.778,2.382,3.721l0,0c0.398,0.373,0.9,0.673,1.377,0.946l0,0
	c1.039-0.148,1.996-0.219,2.795-0.21l0,0c1.061,0.016,1.838,0.171,2.152,0.481l0,0c0.154,0.15,0.218,0.332,0.236,0.537l0,0
	c0.004,0.079-0.034,0.266-0.045,0.313l0,0c0.011-0.057,0.011-0.336-0.84-0.606l0,0c-0.671-0.215-1.923-0.208-3.428-0.048l0,0
	c1.74,0.851,3.436,1.273,3.975,1.02l0,0c0.129-0.064,0.29-0.281,0.29-0.281l0,0c0,0-0.096,0.43-0.163,0.537l0,0
	c-0.088,0.117-0.258,0.244-0.419,0.286l0,0c-0.849,0.226-3.057-0.298-4.981-1.396l0,0c-2.151,0.315-4.513,0.901-6.408,1.522l0,0
	c-1.859,3.26-3.258,4.758-4.396,4.188l0,0l-0.419-0.211c-0.171-0.097-0.196-0.332-0.156-0.525l0,0
	c0.133-0.65,0.946-1.627,2.581-2.604l0,0c0.177-0.107,0.961-0.521,0.961-0.521l0,0c0,0-0.58,0.563-0.717,0.673l0,0
	c-1.305,1.068-2.268,2.415-2.244,2.937l0,0l0.005,0.045C1.712,17.747,3.374,15.491,5.512,11.31 M6.188,11.657
	c-0.355,0.672-0.705,1.295-1.026,1.867l0,0c1.78-0.746,3.699-1.225,5.526-1.563l0,0c-0.246-0.17-0.486-0.348-0.709-0.538l0,0
	c-1.007-0.852-1.773-1.914-2.328-3.031l0,0C7.298,9.341,6.88,10.351,6.188,11.657"/>
</svg>
