<?xml version="1.0" encoding="utf-8"?>
<!-- Generator: Adobe Illustrator 15.1.0, SVG Export Plug-In . SVG Version: 6.00 Build 0)  -->
<!DOCTYPE svg PUBLIC "-//W3C//DTD SVG 1.1//EN" "http://www.w3.org/Graphics/SVG/1.1/DTD/svg11.dtd">
<svg version="1.1" id="Layer_1" xmlns="http://www.w3.org/2000/svg" xmlns:xlink="http://www.w3.org/1999/xlink" x="0px" y="0px"
	 width="17.01px" height="19.84px" viewBox="0 0 17.01 19.84" enable-background="new 0 0 17.01 19.84" xml:space="preserve">
<g>
	<path fill="#4C5F86" d="M15.199,9.363c-1.191-1.417-1.438-1.577-2.472-2.253c-0.219-0.144-0.474-0.31-0.778-0.516L11.747,6.46
		c-1.625-1.089-2.531-1.695-2.642-4.455h-0.27v3.271c-0.004,0.055-0.098,1.108-0.64,3.308c-1.061,4.303-0.92,7.089,0.417,8.28
		l0.203,0.283c0.192,0.043,0.878,0.234,1.811,0.923c0.346-0.057,2.45-0.474,3.937-2.283C16.29,13.68,16.559,10.978,15.199,9.363z"/>
	<path fill="#4C5F86" d="M6.844,8.579c0.019-0.025,1.292-1.763,1.408-3.704c0.095-1.57,0.04-3.822,0.013-4.692L8.258,0.191
		l-0.09,3.633C8.171,3.878,8.243,5.404,6.534,7.6c-1.719,2.211-3.497,4.498-0.909,7.918c0.014,0.021,0.627,1.028,2.05,1.756v-0.442
		c-0.135-0.13-0.573-0.581-1.163-1.505C6.049,14.602,4.706,11.974,6.844,8.579z"/>
	<path fill="#4C5F86" d="M3.012,14.818c-1.035-2.63-0.72-4.869,0.909-6.475c0.371-0.365,0.73-0.706,1.07-1.027
		c1.496-1.417,2.577-2.44,2.624-3.652c0.049-1.23,0.02-2.162,0.006-2.479H7.484v1.908C7.486,3.138,7.513,4.32,5.753,5.681
		l-0.249,0.19C3.779,7.196,0.891,9.414,0.948,12.07c-0.008,0.208-0.131,4.87,5.605,5.981v-0.486
		C6.055,17.4,3.689,16.539,3.012,14.818z"/>
	<polygon fill="#4C5F86" points="7.768,18.202 6.89,19.294 7.073,19.657 8.044,18.444 	"/>
	<rect x="8.286" y="17.929" fill="#4C5F86" width="0.546" height="1.729"/>
	<polygon fill="#4C5F86" points="9.622,18.202 10.198,19.233 9.622,19.657 9.105,18.595 	"/>
	<path fill="#FFFFFF" d="M9.572,5.388L9.375,5.247v0.795L9.43,6.079c0.04,0.027,3.971,2.755,3.984,6.2
		c0.005,0.025,0.466,2.503-2.05,4.521l-0.06,0.048l0.103,0.511l0.13-0.038c0.033-0.01,3.244-0.983,3.52-5.187
		C15.057,12.018,14.994,9.234,9.572,5.388z"/>
</g>
</svg>
