<?xml version="1.0" encoding="utf-8"?>
<!-- Generator: Adobe Illustrator 15.1.0, SVG Export Plug-In . SVG Version: 6.00 Build 0)  -->
<!DOCTYPE svg PUBLIC "-//W3C//DTD SVG 1.1//EN" "http://www.w3.org/Graphics/SVG/1.1/DTD/svg11.dtd">
<svg version="1.1" id="Layer_1" xmlns="http://www.w3.org/2000/svg" xmlns:xlink="http://www.w3.org/1999/xlink" x="0px" y="0px"
	 width="72px" height="57.6px" viewBox="0 0 72 57.6" enable-background="new 0 0 72 57.6" xml:space="preserve">
<g>
	<g>
		<linearGradient id="SVGID_1_" gradientUnits="userSpaceOnUse" x1="36" y1="0.4531" x2="36" y2="57.147">
			<stop  offset="0" style="stop-color:#D14527"/>
			<stop  offset="1" style="stop-color:#8E2C12;stop-opacity:0.95"/>
		</linearGradient>
		<polygon fill="url(#SVGID_1_)" points="11.293,51.432 60.707,57.146 60.707,0.453 11.293,6.159 		"/>
	</g>
	<g>
		<path fill="#FFFFFF" d="M26.103,14.549c1.968-0.352,4.641-0.617,8.231-0.617c3.939,0,6.789,0.834,8.675,2.411
			c1.742,1.44,2.883,3.762,2.883,6.526c0,2.799-0.875,5.075-2.494,6.652c-2.189,2.143-5.516,3.199-9.326,3.199
			c-1.008,0-1.886-0.049-2.628-0.225v11.168h-5.342V14.549z M31.445,28.252c0.704,0.213,1.528,0.262,2.628,0.262
			c4.031,0,6.482-2.012,6.482-5.427c0-3.286-2.281-4.991-5.995-4.991c-1.495,0-2.544,0.13-3.115,0.262V28.252z"/>
	</g>
</g>
</svg>
