<?xml version="1.0" encoding="utf-8"?>
<!-- Generator: Adobe Illustrator 15.1.0, SVG Export Plug-In . SVG Version: 6.00 Build 0)  -->
<!DOCTYPE svg PUBLIC "-//W3C//DTD SVG 1.1//EN" "http://www.w3.org/Graphics/SVG/1.1/DTD/svg11.dtd">
<svg version="1.1" id="Layer_1" xmlns="http://www.w3.org/2000/svg" xmlns:xlink="http://www.w3.org/1999/xlink" x="0px" y="0px"
	 width="72px" height="57.6px" viewBox="0 0 72 57.6" enable-background="new 0 0 72 57.6" xml:space="preserve">
<g>
	<path fill="#4A73B8" d="M58.766,8.672c0-0.047-0.004-0.086-0.008-0.133v0.266C58.762,8.766,58.766,8.719,58.766,8.672z"/>
	<path fill="#4A73B8" d="M58.766,21.906c0-0.047-0.004-0.086-0.008-0.133v0.266C58.762,21.992,58.766,21.953,58.766,21.906z"/>
	<path fill="#4A73B8" d="M58.766,35.352c0-0.039-0.004-0.086-0.008-0.133v0.273C58.762,35.445,58.766,35.398,58.766,35.352z"/>
	<path fill="#4A73B8" d="M58.766,28.234c0-0.031-0.004-0.07-0.008-0.102v0.203C58.762,28.305,58.766,28.266,58.766,28.234z"/>
	<path fill="#4A73B8" d="M58.766,14.766c0-0.031-0.004-0.063-0.008-0.102v0.211C58.762,14.836,58.766,14.805,58.766,14.766z"/>
	<g>
		<path fill="#4A73B8" d="M58.758,41.578v0.203c0.004-0.031,0.008-0.063,0.008-0.102C58.766,41.648,58.762,41.609,58.758,41.578z"/>
		<path fill="#4A73B8" d="M13.234,41.68c0,0.039,0.004,0.07,0.008,0.102v-0.203C13.238,41.609,13.234,41.648,13.234,41.68z"/>
		<path fill="#4A73B8" d="M58.758,41.781c-0.066,1.117-1.16,2.156-3.025,3.055c-3.934,1.896-11.293,3.17-19.731,3.17
			c-8.441,0-15.804-1.273-19.737-3.17c-1.866-0.898-2.956-1.938-3.022-3.055v7.014c-0.004,0.047-0.008,0.094-0.008,0.133
			c0,0.047,0.004,0.094,0.008,0.141c0.199,4.469,10.308,8.078,22.76,8.078c12.45,0,22.553-3.609,22.756-8.078
			c0.004-0.047,0.008-0.094,0.008-0.141c0-0.039-0.004-0.086-0.008-0.133V41.781z"/>
	</g>
	<path fill="#4A73B8" d="M55.854,31.328c-3.906,1.93-11.332,3.234-19.852,3.234c-8.527,0-15.948-1.305-19.854-3.234
		c-1.796-0.883-2.843-1.906-2.905-2.992v6.883v0.273c0.055,1.227,0.855,2.398,2.253,3.438c1.742,1.297,4.402,2.406,7.684,3.211
		c3.647,0.906,8.062,1.43,12.823,1.43c4.754,0,9.168-0.523,12.821-1.43c3.277-0.805,5.938-1.914,7.684-3.211
		c1.396-1.039,2.197-2.211,2.252-3.438v-0.273v-6.883C58.691,29.422,57.648,30.445,55.854,31.328z"/>
	<path fill="#4A73B8" d="M55.834,17.875c-3.906,1.922-11.324,3.219-19.833,3.219c-8.512,0-15.929-1.297-19.835-3.219
		c-1.808-0.891-2.862-1.914-2.925-3v6.898v0.266c0.055,1.234,0.855,2.398,2.253,3.445c1.695,1.266,4.266,2.344,7.426,3.148
		c3.703,0.938,8.21,1.492,13.081,1.492c4.868,0,9.379-0.555,13.075-1.492c3.164-0.805,5.734-1.883,7.43-3.148
		c1.396-1.047,2.197-2.211,2.252-3.445v-0.266v-6.898C58.691,15.961,57.641,16.984,55.834,17.875z"/>
	<path fill="#4A73B8" d="M36.001,0.453c-12.452,0-22.561,3.609-22.76,8.086v0.266c0.055,1.18,0.797,2.305,2.085,3.313
		c1.621,1.266,4.105,2.359,7.184,3.172c3.773,1.008,8.44,1.602,13.491,1.602c5.047,0,9.715-0.594,13.489-1.602
		c3.078-0.813,5.563-1.906,7.184-3.172c1.287-1.008,2.029-2.133,2.084-3.313V8.539C58.555,4.063,48.451,0.453,36.001,0.453z"/>
</g>
</svg>
