<?xml version="1.0" encoding="utf-8"?>
<!-- Generator: Adobe Illustrator 15.1.0, SVG Export Plug-In . SVG Version: 6.00 Build 0)  -->
<!DOCTYPE svg PUBLIC "-//W3C//DTD SVG 1.1//EN" "http://www.w3.org/Graphics/SVG/1.1/DTD/svg11.dtd">
<svg version="1.1" id="Layer_1" xmlns="http://www.w3.org/2000/svg" xmlns:xlink="http://www.w3.org/1999/xlink" x="0px" y="0px"
	 width="17.01px" height="19.84px" viewBox="0 0 17.01 19.84" enable-background="new 0 0 17.01 19.84" xml:space="preserve">
<linearGradient id="SVGID_1_" gradientUnits="userSpaceOnUse" x1="8.5044" y1="3.0049" x2="8.5044" y2="16.8354">
	<stop  offset="0" style="stop-color:#FBAB41"/>
	<stop  offset="1" style="stop-color:#EF3E2F"/>
</linearGradient>
<path fill="url(#SVGID_1_)" d="M10.32,3.005c0,0,6.224,3.484,4.672,9.73c0,0,1.909,2.07,1.114,4.1c0,0-1.153-2.148-3.581-0.955
	c-2.426,1.193-7.439,2.227-11.816-4.02c0,0,4.456,3.463,8.753,1.074c0,0-3.063-2.107-7.241-7.877c0,0,3.258,2.625,6.284,4.655
	c0,0-2.425-2.427-4.295-5.45c0,0,6.046,5.521,7.479,6.022C11.689,10.285,13.146,6.954,10.32,3.005z"/>
</svg>
