<?xml version="1.0" encoding="utf-8"?>
<!-- Generator: Adobe Illustrator 15.1.0, SVG Export Plug-In . SVG Version: 6.00 Build 0)  -->
<!DOCTYPE svg PUBLIC "-//W3C//DTD SVG 1.1//EN" "http://www.w3.org/Graphics/SVG/1.1/DTD/svg11.dtd">
<svg version="1.1" id="Layer_1" xmlns="http://www.w3.org/2000/svg" xmlns:xlink="http://www.w3.org/1999/xlink" x="0px" y="0px"
	 width="17.01px" height="19.84px" viewBox="0 0 17.01 19.84" enable-background="new 0 0 17.01 19.84" xml:space="preserve">
<g>
	<linearGradient id="SVGID_1_" gradientUnits="userSpaceOnUse" x1="1.062" y1="2.9077" x2="8.4417" y2="10.2875">
		<stop  offset="0" style="stop-color:#718BC6"/>
		<stop  offset="0.5" style="stop-color:#263B97;stop-opacity:0.95"/>
		<stop  offset="1" style="stop-color:#5A7FC0;stop-opacity:0.95"/>
	</linearGradient>
	<path fill="url(#SVGID_1_)" d="M3.628,12.821L0.71,3.259h2.097l1.485,5.146c0.112,0.391,0.206,0.723,0.28,0.996
		c0.073,0.273,0.132,0.484,0.176,0.631h0.053C4.869,9.747,4.943,9.46,5.021,9.173s0.156-0.572,0.234-0.859l1.42-5.055h2.085
		l-2.854,9.563H3.628z"/>
	<linearGradient id="SVGID_2_" gradientUnits="userSpaceOnUse" x1="8.1128" y1="8.0195" x2="15.7052" y2="15.612">
		<stop  offset="0" style="stop-color:#718BC6"/>
		<stop  offset="0.5" style="stop-color:#263B97;stop-opacity:0.95"/>
		<stop  offset="1" style="stop-color:#5A7FC0;stop-opacity:0.95"/>
	</linearGradient>
	<path fill="url(#SVGID_2_)" d="M9.111,7.021h3.459c0.457,0,0.891,0.021,1.3,0.064c0.41,0.043,0.767,0.152,1.072,0.326
		c0.391,0.217,0.676,0.51,0.857,0.879c0.181,0.369,0.271,0.754,0.271,1.152c0,0.582-0.139,1.051-0.414,1.408
		c-0.276,0.355-0.62,0.576-1.029,0.664v0.064c0.171,0.025,0.357,0.088,0.558,0.184c0.199,0.094,0.381,0.234,0.542,0.416
		c0.162,0.182,0.299,0.406,0.408,0.67c0.109,0.266,0.164,0.572,0.164,0.92c0,0.355-0.048,0.707-0.143,1.055
		c-0.096,0.348-0.319,0.682-0.672,1.002c-0.19,0.174-0.392,0.313-0.601,0.41c-0.209,0.102-0.436,0.178-0.679,0.229
		c-0.243,0.053-0.505,0.086-0.786,0.098c-0.281,0.014-0.588,0.02-0.922,0.02H9.111V7.021z M11.355,10.915
		c0.457,0,0.843-0.008,1.157-0.025s0.566-0.068,0.757-0.15c0.191-0.082,0.327-0.209,0.408-0.379
		c0.081-0.168,0.121-0.404,0.121-0.709c0-0.287-0.05-0.51-0.149-0.672c-0.101-0.16-0.225-0.275-0.372-0.344
		c-0.147-0.07-0.303-0.111-0.465-0.125c-0.162-0.012-0.3-0.02-0.414-0.02h-1.043V10.915z M11.355,15.071h1.143
		c0.458,0,0.819-0.105,1.086-0.314c0.267-0.207,0.4-0.559,0.4-1.055c0-0.225-0.042-0.455-0.129-0.689
		c-0.085-0.234-0.267-0.404-0.542-0.508c-0.163-0.061-0.427-0.096-0.793-0.105c-0.367-0.008-0.756-0.012-1.165-0.012V15.071z"/>
</g>
</svg>
