<?xml version="1.0" encoding="utf-8"?>
<!-- Generator: Adobe Illustrator 15.1.0, SVG Export Plug-In . SVG Version: 6.00 Build 0)  -->
<!DOCTYPE svg PUBLIC "-//W3C//DTD SVG 1.1//EN" "http://www.w3.org/Graphics/SVG/1.1/DTD/svg11.dtd">
<svg version="1.1" id="Layer_1" xmlns="http://www.w3.org/2000/svg" xmlns:xlink="http://www.w3.org/1999/xlink" x="0px" y="0px"
	 width="17.01px" height="19.84px" viewBox="0 0 17.01 19.84" enable-background="new 0 0 17.01 19.84" xml:space="preserve">
<g>
	<linearGradient id="SVGID_1_" gradientUnits="userSpaceOnUse" x1="5.709" y1="5.0342" x2="5.709" y2="14.8062">
		<stop  offset="0" style="stop-color:#7A7E9D"/>
		<stop  offset="0.0133" style="stop-color:#797D9B"/>
		<stop  offset="0.4326" style="stop-color:#5D5F79"/>
		<stop  offset="0.7764" style="stop-color:#4C4F67"/>
		<stop  offset="1" style="stop-color:#464960"/>
	</linearGradient>
	<path fill="url(#SVGID_1_)" d="M4.1,12.037l-0.841,2.769H1.418L4.55,5.034h2.275L10,14.806H8.074l-0.886-2.769H4.1z M6.899,10.688
		L6.13,8.282C5.942,7.687,5.782,7.021,5.637,6.455H5.608C5.463,7.021,5.304,7.702,5.144,8.282L4.39,10.688H6.899z"/>
	<linearGradient id="SVGID_2_" gradientUnits="userSpaceOnUse" x1="13.0898" y1="6.519" x2="13.0898" y2="14.8062">
		<stop  offset="0" style="stop-color:#7A7E9D"/>
		<stop  offset="0.0133" style="stop-color:#797D9B"/>
		<stop  offset="0.4326" style="stop-color:#5D5F79"/>
		<stop  offset="0.7764" style="stop-color:#4C4F67"/>
		<stop  offset="1" style="stop-color:#464960"/>
	</linearGradient>
	<path fill="url(#SVGID_2_)" d="M15.223,11.129H12.1v2.436h3.492v1.241h-5.004V6.519h4.818v1.242H12.1V9.9h3.123V11.129z"/>
</g>
</svg>
