<?xml version="1.0" encoding="utf-8"?>
<!-- Generator: Adobe Illustrator 15.1.0, SVG Export Plug-In . SVG Version: 6.00 Build 0)  -->
<!DOCTYPE svg PUBLIC "-//W3C//DTD SVG 1.1//EN" "http://www.w3.org/Graphics/SVG/1.1/DTD/svg11.dtd">
<svg version="1.1" id="Layer_1" xmlns="http://www.w3.org/2000/svg" xmlns:xlink="http://www.w3.org/1999/xlink" x="0px" y="0px"
	 width="17.01px" height="19.84px" viewBox="0 0 17.01 19.84" enable-background="new 0 0 17.01 19.84" xml:space="preserve">
<g>
	<path fill="#2F9CC1" d="M9.893,14.178c0.158-0.578,0.541-2.09,1.19-4.544c-0.257-0.766-0.651-1.845-0.962-2.636
		C9.656,5.816,8.899,4.703,8.448,4.434C8.259,4.321,8.095,4.275,7.965,4.259c-0.1,0.039-0.257-0.145-0.809,1.101
		c-0.192,0.435-0.5,1.387-0.838,2.517c0.79,2.666,1.106,3.555,1.832,5.538c0.319,0.873,0.645,1.389,0.92,1.698
		C9.357,15.208,9.729,14.775,9.893,14.178z"/>
	<path fill="#214080" d="M15.666,4.498c-0.695,0.014-2.527,0.038-2.527,0.038s-0.26-0.043-0.379,0.147s-0.697,1.267-1.473,4.18
		c-0.07,0.268-0.139,0.521-0.204,0.771c-0.649,2.454-1.032,3.966-1.19,4.544c-0.164,0.598-0.535,1.03-0.822,0.935
		c0.267,0.301,0.484,0.406,0.596,0.44c0.002,0,0.002,0,0.004,0c0.016,0.005,0.03,0.01,0.041,0.012
		c0.012,0.003,0.026,0.002,0.038,0.003c0.06,0.01,0.12,0.019,0.188,0.019c0.664,0,2.209,0,2.209,0s1.062,0.133,1.436-1.291
		c0.373-1.424,2.008-7.482,2.592-8.799C16.758,4.178,16.899,4.459,17,4.385C17.1,4.312,16.361,4.483,15.666,4.498z"/>
	<path fill="#1572AD" d="M7.678,4.269V4.264C7.417,4.3,7.026,4.354,6.648,4.361C5.953,4.376,4.122,4.4,4.122,4.4
		S3.862,4.356,3.742,4.547C3.623,4.739,3.045,5.813,2.27,8.729c-0.775,2.913-1.221,4.678-1.395,5.313
		c-0.174,0.635-0.582,1.091-0.875,0.92c0,0,0.254,0.489,0.918,0.489s2.209,0,2.209,0s1.062,0.134,1.436-1.292
		c0.25-0.954,1.067-3.987,1.754-6.282c0.338-1.13,0.646-2.082,0.838-2.517c0.552-1.245,0.708-1.062,0.809-1.101
		C7.794,4.236,7.688,4.266,7.678,4.269z"/>
</g>
</svg>
