<?xml version="1.0" encoding="utf-8"?>
<!-- Generator: Adobe Illustrator 15.1.0, SVG Export Plug-In . SVG Version: 6.00 Build 0)  -->
<!DOCTYPE svg PUBLIC "-//W3C//DTD SVG 1.1//EN" "http://www.w3.org/Graphics/SVG/1.1/DTD/svg11.dtd">
<svg version="1.1" id="Layer_1" xmlns="http://www.w3.org/2000/svg" xmlns:xlink="http://www.w3.org/1999/xlink" x="0px" y="0px"
	 width="72px" height="57.6px" viewBox="0 0 72 57.6" enable-background="new 0 0 72 57.6" xml:space="preserve">
<linearGradient id="SVGID_1_" gradientUnits="userSpaceOnUse" x1="36" y1="6.5967" x2="36" y2="51.0033">
	<stop  offset="0" style="stop-color:#679AD1"/>
	<stop  offset="0.1366" style="stop-color:#6393CA;stop-opacity:0.9932"/>
	<stop  offset="0.3426" style="stop-color:#5884BA;stop-opacity:0.9829"/>
	<stop  offset="0.5923" style="stop-color:#446DA4;stop-opacity:0.9704"/>
	<stop  offset="0.8738" style="stop-color:#28538C;stop-opacity:0.9563"/>
	<stop  offset="1" style="stop-color:#194681;stop-opacity:0.95"/>
</linearGradient>
<path fill="url(#SVGID_1_)" d="M37.67,40.464c-4.143,0-8.004-2.236-10.089-5.835c-1.032-1.773-1.573-3.79-1.573-5.829
	c0-2.04,0.541-4.057,1.573-5.828c2.079-3.599,5.946-5.836,10.089-5.836c3.834,0,7.424,1.909,9.592,5.038l8.328-4.809
	C51.701,11.28,44.912,7.54,37.67,7.54c-7.559,0-14.612,4.073-18.405,10.63c-1.869,3.225-2.854,6.899-2.854,10.63
	s0.985,7.405,2.854,10.629C23.058,45.985,30.111,50.06,37.67,50.06c7.242,0,14.031-3.741,17.92-9.826l-8.328-4.809
	C45.094,38.554,41.504,40.464,37.67,40.464z"/>
</svg>
