<?xml version="1.0" encoding="utf-8"?>
<!-- Generator: Adobe Illustrator 15.1.0, SVG Export Plug-In . SVG Version: 6.00 Build 0)  -->
<!DOCTYPE svg PUBLIC "-//W3C//DTD SVG 1.1//EN" "http://www.w3.org/Graphics/SVG/1.1/DTD/svg11.dtd">
<svg version="1.1" id="Layer_1" xmlns="http://www.w3.org/2000/svg" xmlns:xlink="http://www.w3.org/1999/xlink" x="0px" y="0px"
	 width="72px" height="57.6px" viewBox="0 0 72 57.6" enable-background="new 0 0 72 57.6" xml:space="preserve">
<g>
	<linearGradient id="SVGID_1_" gradientUnits="userSpaceOnUse" x1="24.0063" y1="-4.5879" x2="24.0063" y2="62.1908">
		<stop  offset="0" style="stop-color:#679AD1"/>
		<stop  offset="0.1366" style="stop-color:#6393CA;stop-opacity:0.9932"/>
		<stop  offset="0.3426" style="stop-color:#5884BA;stop-opacity:0.9829"/>
		<stop  offset="0.5923" style="stop-color:#446DA4;stop-opacity:0.9704"/>
		<stop  offset="0.8738" style="stop-color:#28538C;stop-opacity:0.9563"/>
		<stop  offset="1" style="stop-color:#194681;stop-opacity:0.95"/>
	</linearGradient>
	<path fill="url(#SVGID_1_)" d="M27.589,40.586c-3.467,0-6.768-1.609-9.058-4.416c-0.098-0.119-0.197-0.236-0.297-0.354
		c-0.296-0.35-0.602-0.709-0.841-1.125c-1.043-1.797-1.594-3.836-1.594-5.892c0-2.063,0.551-4.101,1.594-5.892
		c0.24-0.418,0.549-0.783,0.848-1.135c0.098-0.115,0.194-0.229,0.29-0.347c2.293-2.807,5.594-4.416,9.058-4.416
		c2.605,0,5.202,0.931,7.323,2.624l6.646-6.65c-3.896-3.431-8.851-5.319-13.969-5.319c-5.945,0-11.673,2.58-15.714,7.077
		c-1.074,1.202-1.92,2.343-2.584,3.488c-1.856,3.208-2.837,6.864-2.837,10.57s0.98,7.359,2.837,10.564
		c0.659,1.141,1.505,2.281,2.584,3.488c4.041,4.502,9.769,7.084,15.714,7.084c5.119,0,10.075-1.891,13.969-5.324l-6.646-6.646
		C32.794,39.656,30.198,40.586,27.589,40.586z"/>
	<g>
		<polygon fill="#00599D" points="44.814,23.456 41.955,23.456 41.955,28.329 37.293,28.329 37.293,31.068 41.955,31.068 
			41.955,35.988 44.814,35.988 44.814,31.068 49.48,31.068 49.48,28.329 44.814,28.329 		"/>
		<polygon fill="#00599D" points="60.881,28.329 60.881,23.456 58.021,23.456 58.021,28.329 53.359,28.329 53.359,31.068 
			58.021,31.068 58.021,35.988 60.881,35.988 60.881,31.068 65.545,31.068 65.545,28.329 		"/>
	</g>
</g>
</svg>
