<?xml version="1.0" encoding="utf-8"?>
<!-- Generator: Adobe Illustrator 15.1.0, SVG Export Plug-In . SVG Version: 6.00 Build 0)  -->
<!DOCTYPE svg PUBLIC "-//W3C//DTD SVG 1.1//EN" "http://www.w3.org/Graphics/SVG/1.1/DTD/svg11.dtd">
<svg version="1.1" id="Layer_1" xmlns="http://www.w3.org/2000/svg" xmlns:xlink="http://www.w3.org/1999/xlink" x="0px" y="0px"
	 width="72px" height="57.6px" viewBox="0 0 72 57.6" enable-background="new 0 0 72 57.6" xml:space="preserve">
<linearGradient id="SVGID_1_" gradientUnits="userSpaceOnUse" x1="35.9995" y1="0.4531" x2="35.9995" y2="57.147">
	<stop  offset="0" style="stop-color:#558DB5"/>
	<stop  offset="1" style="stop-color:#3F4871;stop-opacity:0.95"/>
</linearGradient>
<path fill="url(#SVGID_1_)" d="M59.252,7.029C57.42,2.191,45.766,0.453,36,0.453c-9.764,0-21.42,1.738-23.252,6.576h-0.195
	l-0.084,0.803V48.34v0.805h0.271c1.775,4.961,13.174,8.002,23.26,8.002c10.088,0,21.486-3.041,23.26-8.002h0.188l0.084-0.805V7.832
	V7.029H59.252z M55.213,34.662c-0.385,0.666-6.225,3.6-19.213,3.6c-12.986,0-18.834-2.934-19.236-3.723l0.014-8.109
	c4.15,1.889,11.17,2.996,19.223,2.996c8.043,0,15.063-1.107,19.213-2.996V34.662z M55.213,21.52c-0.389,0.658-6.24,3.59-19.213,3.59
	c-12.977,0-18.828-2.932-19.24-3.721l0.018-8.117c4.146,1.896,11.17,3.006,19.223,3.006c8.049,0,15.066-1.109,19.213-3V21.52z
	 M36,11.961c-12.367,0-18.258-2.666-19.143-3.594c0.887-0.934,6.781-3.59,19.143-3.59c12.357,0,18.252,2.656,19.137,3.59
	C54.256,9.295,48.369,11.961,36,11.961z M16.781,39.572c4.146,1.896,11.166,3.006,19.219,3.006c8.045,0,15.066-1.109,19.213-3v8.234
	C54.883,48.617,48.781,52.83,36,52.83c-12.785,0-18.885-4.213-19.225-5.111L16.781,39.572z"/>
</svg>
