<?xml version="1.0" encoding="utf-8"?>
<!-- Generator: Adobe Illustrator 15.1.0, SVG Export Plug-In . SVG Version: 6.00 Build 0)  -->
<!DOCTYPE svg PUBLIC "-//W3C//DTD SVG 1.1//EN" "http://www.w3.org/Graphics/SVG/1.1/DTD/svg11.dtd">
<svg version="1.1" id="Layer_1" xmlns="http://www.w3.org/2000/svg" xmlns:xlink="http://www.w3.org/1999/xlink" x="0px" y="0px"
	 width="17.01px" height="19.84px" viewBox="0 0 17.01 19.84" enable-background="new 0 0 17.01 19.84" xml:space="preserve">
<g>
	<linearGradient id="SVGID_1_" gradientUnits="userSpaceOnUse" x1="12.6475" y1="10.916" x2="12.6475" y2="16.8872">
		<stop  offset="0" style="stop-color:#558DB5"/>
		<stop  offset="1" style="stop-color:#3F4871;stop-opacity:0.95"/>
	</linearGradient>
	<polygon fill="url(#SVGID_1_)" points="9.702,16.887 15.532,16.887 15.592,16.887 15.592,10.916 14.204,10.916 14.204,15.496 
		9.702,15.496 	"/>
	<linearGradient id="SVGID_2_" gradientUnits="userSpaceOnUse" x1="12.6084" y1="2.9531" x2="12.6084" y2="8.8438">
		<stop  offset="0" style="stop-color:#558DB5"/>
		<stop  offset="1" style="stop-color:#3F4871;stop-opacity:0.95"/>
	</linearGradient>
	<polygon fill="url(#SVGID_2_)" points="15.592,8.844 15.592,3.014 15.592,2.953 9.624,2.953 9.624,4.342 14.204,4.342 
		14.204,8.844 	"/>
	<linearGradient id="SVGID_3_" gradientUnits="userSpaceOnUse" x1="4.3623" y1="2.9531" x2="4.3623" y2="8.9219">
		<stop  offset="0" style="stop-color:#558DB5"/>
		<stop  offset="1" style="stop-color:#3F4871;stop-opacity:0.95"/>
	</linearGradient>
	<polygon fill="url(#SVGID_3_)" points="7.307,2.953 1.478,2.953 1.418,2.953 1.418,8.922 2.808,8.922 2.808,4.344 7.307,4.344 	"/>
	<linearGradient id="SVGID_4_" gradientUnits="userSpaceOnUse" x1="4.4028" y1="10.9785" x2="4.4028" y2="16.8677">
		<stop  offset="0" style="stop-color:#558DB5"/>
		<stop  offset="1" style="stop-color:#3F4871;stop-opacity:0.95"/>
	</linearGradient>
	<polygon fill="url(#SVGID_4_)" points="1.418,10.979 1.418,16.807 1.418,16.867 7.388,16.867 7.388,15.479 2.808,15.479 
		2.808,10.979 	"/>
</g>
</svg>
