<?xml version="1.0" encoding="utf-8"?>
<!-- Generator: Adobe Illustrator 15.1.0, SVG Export Plug-In . SVG Version: 6.00 Build 0)  -->
<!DOCTYPE svg PUBLIC "-//W3C//DTD SVG 1.1//EN" "http://www.w3.org/Graphics/SVG/1.1/DTD/svg11.dtd">
<svg version="1.1" id="Layer_1" xmlns="http://www.w3.org/2000/svg" xmlns:xlink="http://www.w3.org/1999/xlink" x="0px" y="0px"
	 width="72px" height="57.6px" viewBox="0 0 72 57.6" enable-background="new 0 0 72 57.6" xml:space="preserve">
<g>
	<linearGradient id="SVGID_1_" gradientUnits="userSpaceOnUse" x1="18.0366" y1="7.54" x2="18.0366" y2="50.0601">
		<stop  offset="0" style="stop-color:#B0437A"/>
		<stop  offset="1" style="stop-color:#610C35;stop-opacity:0.95"/>
	</linearGradient>
	<path fill="url(#SVGID_1_)" d="M21.917,7.54v42.52h-7.761V7.54H21.917z"/>
	<linearGradient id="SVGID_2_" gradientUnits="userSpaceOnUse" x1="44.2344" y1="12.4629" x2="44.2344" y2="50.0601">
		<stop  offset="0" style="stop-color:#B0437A"/>
		<stop  offset="1" style="stop-color:#610C35;stop-opacity:0.95"/>
	</linearGradient>
	<path fill="url(#SVGID_2_)" d="M30.624,13.226c2.595-0.438,5.813-0.763,9.266-0.763c5.953,0,10.018,1.422,12.945,4.268
		c3.122,2.909,5.009,7.35,5.009,13.601c0,6.631-1.936,11.512-4.957,14.689c-3.17,3.342-8.224,5.039-14.415,5.039
		c-3.362,0-5.912-0.217-7.848-0.488V13.226z M37.294,44.583c0.801,0.165,1.178,0.165,2.354,0.165
		c7.567,0.052,10.207-4.187,10.207-13.567c0.052-8.112-2.173-13.458-9.448-13.458c-1.842,0-2.264,0.162-3.113,0.384V44.583z"/>
</g>
</svg>
