<?xml version="1.0" encoding="utf-8"?>
<!-- Generator: Adobe Illustrator 15.1.0, SVG Export Plug-In . SVG Version: 6.00 Build 0)  -->
<!DOCTYPE svg PUBLIC "-//W3C//DTD SVG 1.1//EN" "http://www.w3.org/Graphics/SVG/1.1/DTD/svg11.dtd">
<svg version="1.1" id="Layer_1" xmlns="http://www.w3.org/2000/svg" xmlns:xlink="http://www.w3.org/1999/xlink" x="0px" y="0px"
	 width="72px" height="57.6px" viewBox="0 0 72 57.6" enable-background="new 0 0 72 57.6" xml:space="preserve">
<g>
	<g>
		<rect x="11.702" y="0.453" fill="#F9DB3E" width="48.596" height="56.693"/>
	</g>
	<path fill="#282D31" d="M21.898,37.795c-0.318-0.173-0.714-0.52-1.206-1.055l-3.079,3.375c0.895,0.981,1.829,1.688,2.777,2.1
		c0.971,0.424,2.153,0.639,3.515,0.639c2.425,0,4.474-0.795,6.091-2.359c1.757-1.715,2.647-4.041,2.647-6.914V14.987h-4.658v18.358
		c0,3.252-1.373,4.902-4.08,4.902C23.087,38.248,22.412,38.096,21.898,37.795z"/>
	<path fill="#282D31" d="M53.978,31.168c-0.297-0.952-0.786-1.784-1.455-2.474c-1.054-1.07-2.646-1.782-4.732-2.117l-2.965-0.469
		c-1.007-0.159-1.813-0.541-2.397-1.136c-0.292-0.289-0.499-0.607-0.615-0.945c-0.109-0.325-0.163-0.698-0.163-1.14
		c0-1.078,0.345-1.965,1.023-2.634c0.68-0.672,1.685-1.013,2.986-1.013c0.984,0,1.929,0.141,2.806,0.419
		c0.863,0.268,1.65,0.753,2.342,1.443l2.942-3.227c-1.041-1.11-2.193-1.914-3.426-2.39c-1.259-0.487-2.781-0.734-4.525-0.734
		c-2.663,0-4.789,0.772-6.318,2.296c-1.536,1.513-2.314,3.543-2.314,6.034c0,2.283,0.597,4.101,1.772,5.401
		c1.078,1.172,2.691,1.938,4.796,2.271l3.039,0.469c0.551,0.08,1.014,0.207,1.374,0.379c0.372,0.182,0.671,0.389,0.916,0.633
		c0.542,0.576,0.815,1.396,0.815,2.438c0,2.371-1.54,3.574-4.576,3.574c-1.256,0-2.416-0.189-3.448-0.561
		c-0.998-0.354-1.88-0.935-2.623-1.729l-3.011,3.336c1.155,1.289,2.455,2.213,3.866,2.746c1.438,0.539,3.169,0.813,5.146,0.813
		c2.688,0,4.896-0.729,6.559-2.164c1.751-1.507,2.639-3.584,2.639-6.172C54.429,33.255,54.276,32.127,53.978,31.168z"/>
</g>
</svg>
