<?xml version="1.0" encoding="utf-8"?>
<!-- Generator: Adobe Illustrator 15.1.0, SVG Export Plug-In . SVG Version: 6.00 Build 0)  -->
<!DOCTYPE svg PUBLIC "-//W3C//DTD SVG 1.1//EN" "http://www.w3.org/Graphics/SVG/1.1/DTD/svg11.dtd">
<svg version="1.1" id="Layer_1" xmlns="http://www.w3.org/2000/svg" xmlns:xlink="http://www.w3.org/1999/xlink" x="0px" y="0px"
	 width="72px" height="57.6px" viewBox="0 0 72 57.6" enable-background="new 0 0 72 57.6" xml:space="preserve">
<g>
	<linearGradient id="SVGID_1_" gradientUnits="userSpaceOnUse" x1="35.9995" y1="5.4736" x2="35.9995" y2="52.1265">
		<stop  offset="0" style="stop-color:#558DB5"/>
		<stop  offset="1" style="stop-color:#3F4871;stop-opacity:0.95"/>
	</linearGradient>
	<path fill="url(#SVGID_1_)" d="M7.654,5.474v46.652h56.692V5.474H7.654z M10.849,18.997H61.15v29.93H10.849V18.997z"/>
	<g>
		<linearGradient id="SVGID_2_" gradientUnits="userSpaceOnUse" x1="23.2983" y1="23.5498" x2="23.2983" y2="25.8604">
			<stop  offset="0" style="stop-color:#558DB5"/>
			<stop  offset="1" style="stop-color:#3F4871;stop-opacity:0.95"/>
		</linearGradient>
		<path fill="url(#SVGID_2_)" d="M27.917,25.86h-9.238c-0.639,0-1.154-0.518-1.154-1.154c0-0.639,0.516-1.156,1.154-1.156h9.238
			c0.638,0,1.154,0.518,1.154,1.156C29.072,25.343,28.555,25.86,27.917,25.86z"/>
		<linearGradient id="SVGID_3_" gradientUnits="userSpaceOnUse" x1="38.3105" y1="23.5498" x2="38.3105" y2="25.8604">
			<stop  offset="0" style="stop-color:#558DB5"/>
			<stop  offset="1" style="stop-color:#3F4871;stop-opacity:0.95"/>
		</linearGradient>
		<path fill="url(#SVGID_3_)" d="M44.084,25.86H32.537c-0.639,0-1.155-0.518-1.155-1.154c0-0.639,0.517-1.156,1.155-1.156h11.547
			c0.639,0,1.154,0.518,1.154,1.156C45.238,25.343,44.723,25.86,44.084,25.86z"/>
		<linearGradient id="SVGID_4_" gradientUnits="userSpaceOnUse" x1="51.0117" y1="23.5498" x2="51.0117" y2="25.8604">
			<stop  offset="0" style="stop-color:#558DB5"/>
			<stop  offset="1" style="stop-color:#3F4871;stop-opacity:0.95"/>
		</linearGradient>
		<path fill="url(#SVGID_4_)" d="M53.322,25.86h-4.619c-0.639,0-1.156-0.518-1.156-1.154c0-0.639,0.518-1.156,1.156-1.156h4.619
			c0.637,0,1.154,0.518,1.154,1.156C54.477,25.343,53.959,25.86,53.322,25.86z"/>
		<linearGradient id="SVGID_5_" gradientUnits="userSpaceOnUse" x1="20.9888" y1="29.3252" x2="20.9888" y2="31.6343">
			<stop  offset="0" style="stop-color:#558DB5"/>
			<stop  offset="1" style="stop-color:#3F4871;stop-opacity:0.95"/>
		</linearGradient>
		<path fill="url(#SVGID_5_)" d="M23.298,31.634h-4.619c-0.639,0-1.154-0.518-1.154-1.156c0-0.637,0.516-1.152,1.154-1.152h4.619
			c0.639,0,1.154,0.516,1.154,1.152C24.453,31.116,23.937,31.634,23.298,31.634z"/>
		<linearGradient id="SVGID_6_" gradientUnits="userSpaceOnUse" x1="32.5361" y1="29.3252" x2="32.5361" y2="31.6343">
			<stop  offset="0" style="stop-color:#558DB5"/>
			<stop  offset="1" style="stop-color:#3F4871;stop-opacity:0.95"/>
		</linearGradient>
		<path fill="url(#SVGID_6_)" d="M37.154,31.634h-9.237c-0.639,0-1.155-0.518-1.155-1.156c0-0.637,0.517-1.152,1.155-1.152h9.237
			c0.639,0,1.156,0.516,1.156,1.152C38.311,31.116,37.793,31.634,37.154,31.634z"/>
		<linearGradient id="SVGID_7_" gradientUnits="userSpaceOnUse" x1="47.5479" y1="29.3252" x2="47.5479" y2="31.6343">
			<stop  offset="0" style="stop-color:#558DB5"/>
			<stop  offset="1" style="stop-color:#3F4871;stop-opacity:0.95"/>
		</linearGradient>
		<path fill="url(#SVGID_7_)" d="M53.322,31.634H41.773c-0.639,0-1.154-0.518-1.154-1.156c0-0.637,0.516-1.152,1.154-1.152h11.549
			c0.637,0,1.154,0.516,1.154,1.152C54.477,31.116,53.959,31.634,53.322,31.634z"/>
		<linearGradient id="SVGID_8_" gradientUnits="userSpaceOnUse" x1="24.4531" y1="36.2529" x2="24.4531" y2="38.5615">
			<stop  offset="0" style="stop-color:#558DB5"/>
			<stop  offset="1" style="stop-color:#3F4871;stop-opacity:0.95"/>
		</linearGradient>
		<path fill="url(#SVGID_8_)" d="M30.226,38.562H18.679c-0.639,0-1.154-0.518-1.154-1.154c0-0.639,0.516-1.154,1.154-1.154h11.547
			c0.639,0,1.155,0.516,1.155,1.154C31.381,38.044,30.865,38.562,30.226,38.562z"/>
		<linearGradient id="SVGID_9_" gradientUnits="userSpaceOnUse" x1="40.6191" y1="36.2529" x2="40.6191" y2="38.5615">
			<stop  offset="0" style="stop-color:#558DB5"/>
			<stop  offset="1" style="stop-color:#3F4871;stop-opacity:0.95"/>
		</linearGradient>
		<path fill="url(#SVGID_9_)" d="M46.393,38.562H34.845c-0.639,0-1.154-0.518-1.154-1.154c0-0.639,0.516-1.154,1.154-1.154h11.547
			c0.639,0,1.154,0.516,1.154,1.154C47.547,38.044,47.031,38.562,46.393,38.562z"/>
		<linearGradient id="SVGID_10_" gradientUnits="userSpaceOnUse" x1="52.167" y1="36.2529" x2="52.167" y2="38.5615">
			<stop  offset="0" style="stop-color:#558DB5"/>
			<stop  offset="1" style="stop-color:#3F4871;stop-opacity:0.95"/>
		</linearGradient>
		<path fill="url(#SVGID_10_)" d="M53.322,38.562h-2.311c-0.639,0-1.154-0.518-1.154-1.154c0-0.639,0.516-1.154,1.154-1.154h2.311
			c0.637,0,1.154,0.516,1.154,1.154C54.477,38.044,53.959,38.562,53.322,38.562z"/>
		<linearGradient id="SVGID_11_" gradientUnits="userSpaceOnUse" x1="20.9888" y1="42.0264" x2="20.9888" y2="44.335">
			<stop  offset="0" style="stop-color:#558DB5"/>
			<stop  offset="1" style="stop-color:#3F4871;stop-opacity:0.95"/>
		</linearGradient>
		<path fill="url(#SVGID_11_)" d="M23.298,44.335h-4.619c-0.639,0-1.154-0.516-1.154-1.154s0.516-1.154,1.154-1.154h4.619
			c0.639,0,1.154,0.516,1.154,1.154S23.937,44.335,23.298,44.335z"/>
		<linearGradient id="SVGID_12_" gradientUnits="userSpaceOnUse" x1="31.958" y1="42.0264" x2="31.958" y2="44.335">
			<stop  offset="0" style="stop-color:#558DB5"/>
			<stop  offset="1" style="stop-color:#3F4871;stop-opacity:0.95"/>
		</linearGradient>
		<path fill="url(#SVGID_12_)" d="M36,44.335h-8.082c-0.639,0-1.155-0.516-1.155-1.154s0.517-1.154,1.155-1.154H36
			c0.639,0,1.155,0.516,1.155,1.154S36.638,44.335,36,44.335z"/>
	</g>
</g>
</svg>
