<?xml version="1.0" encoding="utf-8"?>
<!-- Generator: Adobe Illustrator 15.1.0, SVG Export Plug-In . SVG Version: 6.00 Build 0)  -->
<!DOCTYPE svg PUBLIC "-//W3C//DTD SVG 1.1//EN" "http://www.w3.org/Graphics/SVG/1.1/DTD/svg11.dtd">
<svg version="1.1" id="Layer_1" xmlns="http://www.w3.org/2000/svg" xmlns:xlink="http://www.w3.org/1999/xlink" x="0px" y="0px"
	 width="17.01px" height="19.84px" viewBox="0 0 17.01 19.84" enable-background="new 0 0 17.01 19.84" xml:space="preserve">
<g>
	<g>
		<rect x="0.001" y="-0.001" fill="#6181B6" width="17.008" height="19.842"/>
	</g>
	<g>
		<path fill="#FFFFFF" d="M3.83,8.69c0.486,0,0.813,0.09,0.974,0.27S5.006,9.446,4.92,9.886c-0.09,0.455-0.26,0.779-0.513,0.975
			c-0.252,0.193-0.637,0.291-1.152,0.291H2.476L2.953,8.69H3.83z M0.71,13.642h1.281l0.303-1.563h1.098
			c0.484,0,0.882-0.051,1.195-0.152c0.312-0.102,0.597-0.271,0.852-0.512c0.215-0.197,0.39-0.414,0.521-0.654
			c0.133-0.236,0.227-0.5,0.283-0.785c0.136-0.699,0.033-1.24-0.307-1.629C5.599,7.956,5.058,7.763,4.315,7.763H1.853L0.71,13.642z"
			/>
		<path fill="#FFFFFF" d="M7.184,6.198h1.271L8.152,7.763h1.131c0.714,0,1.204,0.123,1.476,0.373c0.27,0.246,0.35,0.65,0.242,1.207
			l-0.531,2.736H9.178l0.507-2.604C9.742,9.183,9.72,8.979,9.62,8.872S9.309,8.71,8.982,8.71H7.968l-0.656,3.369H6.04L7.184,6.198z"
			/>
		<path fill="#FFFFFF" d="M13.829,8.69c0.487,0,0.811,0.09,0.973,0.27s0.201,0.486,0.117,0.926c-0.089,0.455-0.26,0.779-0.514,0.975
			c-0.251,0.193-0.638,0.291-1.153,0.291h-0.778l0.478-2.461H13.829z M10.708,13.642h1.281l0.303-1.563h1.099
			c0.483,0,0.882-0.051,1.195-0.152c0.313-0.102,0.596-0.271,0.851-0.512c0.217-0.197,0.389-0.414,0.522-0.654
			c0.134-0.236,0.228-0.5,0.284-0.785c0.135-0.699,0.031-1.24-0.307-1.629c-0.341-0.391-0.881-0.584-1.622-0.584h-2.464
			L10.708,13.642z"/>
	</g>
</g>
</svg>
