<?xml version="1.0" encoding="utf-8"?>
<!-- Generator: Adobe Illustrator 15.1.0, SVG Export Plug-In . SVG Version: 6.00 Build 0)  -->
<!DOCTYPE svg PUBLIC "-//W3C//DTD SVG 1.1//EN" "http://www.w3.org/Graphics/SVG/1.1/DTD/svg11.dtd">
<svg version="1.1" id="Layer_1" xmlns="http://www.w3.org/2000/svg" xmlns:xlink="http://www.w3.org/1999/xlink" x="0px" y="0px"
	 width="72px" height="57.6px" viewBox="0 0 72 57.6" enable-background="new 0 0 72 57.6" xml:space="preserve">
<g>
	<ellipse fill="#6181B6" cx="36" cy="28.8" rx="36" ry="24.095"/>
	<g>
		<path fill="#FFFFFF" d="M20.422,23.192c1.635,0,2.725,0.302,3.269,0.906s0.674,1.643,0.389,3.112
			c-0.298,1.532-0.87,2.624-1.72,3.28c-0.848,0.654-2.141,0.982-3.875,0.982h-2.617l1.607-8.281H20.422z M9.939,39.855h4.303
			l1.021-5.261h3.685c1.626,0,2.964-0.17,4.014-0.514c1.051-0.342,2.004-0.916,2.863-1.721c0.721-0.664,1.305-1.396,1.752-2.197
			c0.445-0.801,0.762-1.684,0.949-2.649c0.455-2.345,0.113-4.173-1.029-5.48c-1.141-1.31-2.956-1.964-5.445-1.964h-8.273
			L9.939,39.855z"/>
		<path fill="#FFFFFF" d="M31.686,14.81h4.268l-1.02,5.26h3.803c2.393,0,4.043,0.419,4.95,1.255
			c0.909,0.836,1.181,2.191,0.817,4.063l-1.785,9.207h-4.336l1.697-8.754c0.193-0.996,0.123-1.675-0.213-2.038
			c-0.336-0.362-1.05-0.543-2.142-0.543h-3.411l-2.199,11.335h-4.268L31.686,14.81z"/>
		<path fill="#FFFFFF" d="M54.001,23.192c1.634,0,2.724,0.302,3.269,0.906c0.544,0.604,0.674,1.643,0.389,3.112
			c-0.297,1.532-0.869,2.624-1.719,3.28c-0.85,0.654-2.141,0.982-3.875,0.982h-2.617l1.605-8.281H54.001z M43.519,39.855h4.302
			l1.021-5.261h3.684c1.627,0,2.965-0.17,4.014-0.514c1.051-0.342,2.006-0.916,2.865-1.721c0.721-0.664,1.304-1.396,1.75-2.197
			c0.447-0.801,0.764-1.684,0.951-2.649c0.455-2.345,0.111-4.173-1.029-5.48c-1.142-1.31-2.957-1.964-5.446-1.964h-8.272
			L43.519,39.855z"/>
	</g>
</g>
</svg>
