<?xml version="1.0" encoding="utf-8"?>
<!-- Generator: Adobe Illustrator 15.1.0, SVG Export Plug-In . SVG Version: 6.00 Build 0)  -->
<!DOCTYPE svg PUBLIC "-//W3C//DTD SVG 1.1//EN" "http://www.w3.org/Graphics/SVG/1.1/DTD/svg11.dtd">
<svg version="1.1" id="Layer_1" xmlns="http://www.w3.org/2000/svg" xmlns:xlink="http://www.w3.org/1999/xlink" x="0px" y="0px"
	 width="17.01px" height="19.84px" viewBox="0 0 17.01 19.84" enable-background="new 0 0 17.01 19.84" xml:space="preserve">
<g>
	<g>
		<linearGradient id="SVGID_1_" gradientUnits="userSpaceOnUse" x1="8.5044" y1="1.7891" x2="8.5044" y2="18.0513">
			<stop  offset="0" style="stop-color:#D14527"/>
			<stop  offset="1" style="stop-color:#8E2C12;stop-opacity:0.95"/>
		</linearGradient>
		<polygon fill="url(#SVGID_1_)" points="1.418,16.412 15.592,18.051 15.592,1.789 1.418,3.427 		"/>
	</g>
	<g>
		<path fill="#FFFFFF" d="M5.666,5.832c0.564-0.1,1.331-0.176,2.361-0.176c1.13,0,1.947,0.238,2.488,0.691
			c0.5,0.413,0.827,1.079,0.827,1.871c0,0.804-0.251,1.457-0.716,1.909c-0.628,0.614-1.582,0.917-2.675,0.917
			c-0.289,0-0.541-0.014-0.754-0.064v3.203H5.666V5.832z M7.198,9.764C7.4,9.825,7.637,9.839,7.952,9.839
			c1.156,0,1.859-0.577,1.859-1.558c0-0.941-0.654-1.432-1.72-1.432c-0.429,0-0.729,0.037-0.894,0.076V9.764z"/>
	</g>
</g>
</svg>
