<?xml version="1.0" encoding="utf-8"?>
<!-- Generator: Adobe Illustrator 15.1.0, SVG Export Plug-In . SVG Version: 6.00 Build 0)  -->
<!DOCTYPE svg PUBLIC "-//W3C//DTD SVG 1.1//EN" "http://www.w3.org/Graphics/SVG/1.1/DTD/svg11.dtd">
<svg version="1.1" id="Layer_1" xmlns="http://www.w3.org/2000/svg" xmlns:xlink="http://www.w3.org/1999/xlink" x="0px" y="0px"
	 width="17.01px" height="19.84px" viewBox="0 0 17.01 19.84" enable-background="new 0 0 17.01 19.84" xml:space="preserve">
<g>
	<linearGradient id="SVGID_1_" gradientUnits="userSpaceOnUse" x1="3.3462" y1="4.6323" x2="9.8075" y2="11.0937">
		<stop  offset="0" style="stop-color:#4B8DBF"/>
		<stop  offset="1" style="stop-color:#306A99"/>
	</linearGradient>
	<path fill="url(#SVGID_1_)" d="M4.718,3.882c0,0-0.487-1.804,3.733-1.804s3.819,1.804,3.819,1.804l0.01,4.114
		c0,0-0.18,1.697-1.877,1.697c-1.698,0-3.307,0-3.988,0s-2.1,1.019-2.1,1.973c0,1.23,0,2.1,0,2.1H2.618c0,0-1.908-0.232-1.908-3.839
		s2.078-3.839,2.503-3.839c0.424,0,5.281,0.021,5.281,0.021V5.685H4.718V3.882z"/>
	<linearGradient id="SVGID_2_" gradientUnits="userSpaceOnUse" x1="5.3076" y1="17.1035" x2="15.5582" y2="6.8529">
		<stop  offset="0" style="stop-color:#FFD94A"/>
		<stop  offset="1" style="stop-color:#FFD94A"/>
	</linearGradient>
	<path fill="url(#SVGID_2_)" d="M12.291,15.959c0,0,0.487,1.803-3.733,1.803c-4.222,0-3.818-1.803-3.818-1.803l-0.01-4.115
		c0,0,0.181-1.697,1.876-1.697c1.697,0,3.307,0,3.989,0c0.681,0,2.099-1.019,2.099-1.974c0-1.229,0-2.099,0-2.099h1.697
		c0,0,1.909,0.233,1.909,3.839c0,3.606-2.078,3.841-2.503,3.841c-0.424,0-5.282-0.021-5.282-0.021v0.424h3.776V15.959z"/>
	<circle fill="#FFFFFF" cx="6.405" cy="3.964" r="0.714"/>
	<circle fill="#FFFFFF" cx="10.636" cy="15.846" r="0.714"/>
</g>
</svg>
