<?xml version="1.0" encoding="utf-8"?>
<!-- Generator: Adobe Illustrator 15.1.0, SVG Export Plug-In . SVG Version: 6.00 Build 0)  -->
<!DOCTYPE svg PUBLIC "-//W3C//DTD SVG 1.1//EN" "http://www.w3.org/Graphics/SVG/1.1/DTD/svg11.dtd">
<svg version="1.1" id="Layer_1" xmlns="http://www.w3.org/2000/svg" xmlns:xlink="http://www.w3.org/1999/xlink" x="0px" y="0px"
	 width="72px" height="57.6px" viewBox="0 0 72 57.6" enable-background="new 0 0 72 57.6" xml:space="preserve">
<linearGradient id="SVGID_1_" gradientUnits="userSpaceOnUse" x1="36" y1="0.4536" x2="36" y2="57.147">
	<stop  offset="0" style="stop-color:#FBAB41"/>
	<stop  offset="1" style="stop-color:#EF3E2F"/>
</linearGradient>
<path fill="url(#SVGID_1_)" d="M43.443,0.454c0,0,25.514,14.285,19.152,39.89c0,0,7.826,8.486,4.568,16.803
	c0,0-4.729-8.809-14.68-3.91c-9.945,4.891-30.499,9.127-48.442-16.479c0,0,18.268,14.195,35.883,4.402
	c0,0-12.559-8.644-29.686-32.291c0,0,13.355,10.762,25.762,19.08c0,0-9.939-9.947-17.607-22.343c0,0,24.79,22.631,30.663,24.69
	C49.057,30.296,55.025,16.644,43.443,0.454z"/>
</svg>
