<?xml version="1.0" encoding="utf-8"?>
<!-- Generator: Adobe Illustrator 15.1.0, SVG Export Plug-In . SVG Version: 6.00 Build 0)  -->
<!DOCTYPE svg PUBLIC "-//W3C//DTD SVG 1.1//EN" "http://www.w3.org/Graphics/SVG/1.1/DTD/svg11.dtd">
<svg version="1.1" id="Layer_1" xmlns="http://www.w3.org/2000/svg" xmlns:xlink="http://www.w3.org/1999/xlink" x="0px" y="0px"
	 width="17.01px" height="19.84px" viewBox="0 0 17.01 19.84" enable-background="new 0 0 17.01 19.84" xml:space="preserve">
<g>
	<g>
		<rect x="0.126" y="0.124" fill="#FFFFFF" width="16.758" height="19.592"/>
		<g>
			<path fill="#E6E7E8" d="M16.759,0.249v19.342H0.251V0.249H16.759 M17.009-0.001H0.001v19.842h17.008V-0.001L17.009-0.001z"/>
		</g>
	</g>
	<path fill="#326699" d="M14.768,3.366c-0.049-0.05-0.11-0.067-0.188-0.075c-1.636,0.059-3.898,0.093-6.208,0.093c0,0,0,0-0.001,0
		c-2.254,0-4.276-0.033-5.691-0.093C2.524,3.297,2.432,3.386,2.42,3.519L2.174,6.298c-0.006,0.07,0.017,0.139,0.064,0.191
		S2.353,6.57,2.423,6.57h0.818c0.117,0,0.218-0.081,0.244-0.195c0.321-1.433,0.572-1.631,2.059-1.631h1.883v8.964
		c0,1.497-0.23,1.619-1.522,1.635c-0.137,0.002-0.247,0.113-0.247,0.25v0.705c0,0.068,0.028,0.134,0.078,0.181
		c0.046,0.045,0.108,0.069,0.172,0.069c0.004,0,0.008,0,0.012,0c0.607-0.029,1.703-0.047,2.931-0.047
		c0.892,0,1.752,0.01,2.303,0.026c0.062,0,0.133-0.023,0.182-0.07s0.076-0.112,0.076-0.18v-0.685c0-0.137-0.11-0.248-0.247-0.25
		c-1.309-0.016-1.542-0.138-1.542-1.635V4.744h2.281c1.353,0,1.447,0.199,1.482,1.583C13.39,6.462,13.5,6.57,13.636,6.57h0.799
		c0.133,0,0.242-0.104,0.25-0.236l0.154-2.779C14.843,3.485,14.816,3.416,14.768,3.366z"/>
</g>
</svg>
