<?xml version="1.0" encoding="utf-8" standalone="no" ?>
<!DOCTYPE svg PUBLIC "-//W3C//DTD SVG 1.1//EN" "http://www.w3.org/Graphics/SVG/1.1/DTD/svg11.dtd">
<svg
	xmlns="http://www.w3.org/2000/svg"
	xmlns:xlink="http://www.w3.org/1999/xlink"
	version="1.1"
	id="UIC-DEXTUPLOADX5-PROGRESSIVE"
	onload="onLoadHandler(evt)" width="100%" height="100%">
    <script type="application/ecmascript" xlink:href="../module/dextuploadx5-common.js"/>
    <script type="application/ecmascript" xlink:href="../module/dextuploadx5-svg.js"/>
    <script type="application/ecmascript" xlink:href="./dextuploadx5-ud-app.js"/>
    <style type="text/css">
        * { font-family: '맑은 고딕', Tahoma }
        .css-txt-title { font-size: 10pt; fill: #fff; font-weight: bold; }
    </style>
    <defs>
        <symbol id="UIS-CANCEL" viewBox="0 0 16 16">
            <rect x="0" y="0" width="100%" height="100%" fill="#465b70"/>
            <path d="M0,3 l3,-3 l5,5 l5,-5 l3,3 l-5,5 l5,5 l-3,3 l-5,-5 l-5,5 l-3,-3 l5,-5 z" stroke="none" fill="#ebebeb"/>
        </symbol>
        <symbol id="RING-01" viewBox="0.129 0.129 70.866 70.866" overflow="visible">
            <path fill="none" stroke="#EC1C24" stroke-width="5" stroke-miterlimit="10" d="M11.214,59.315 c-5.981-6.131-9.667-14.512-9.667-23.753c0-18.786,15.229-34.016,34.016-34.016" />
        </symbol>
        <symbol id="RING-02" viewBox="0.129 0.129 70.866 70.866" overflow="visible">
            <path fill="none" stroke="#F9EC31" stroke-width="5" stroke-miterlimit="10" d="M14.172,56.259 c-5.183-5.357-8.373-12.655-8.373-20.696c0-16.438,13.325-29.763,29.763-29.763" />
        </symbol>
        <symbol id="RING-03" viewBox="0.129 0.129 70.866 70.866" overflow="visible">
            <path fill="none" stroke="#26A9E0" stroke-width="5" stroke-miterlimit="10" d="M17.122,53.192c-4.38-4.582-7.07-10.792-7.07-17.63	c0-14.09,11.421-25.511,25.511-25.511" />
        </symbol>
    </defs>
    <svg id="UIC-MAIN-AREA" x="0" y="0" width="100%" height="100%">
        <svg x="0" y="0" width="100%" height="100">
            <!-- 여기에 진행 표시 -->
            <g stroke-linecap="round">
                <use id="R1" xlink:href="#RING-01" y="0" width="71" height="71" layout-dx5="x:50%-35px;"/>
                <use id="R2" xlink:href="#RING-02" y="0" width="71" height="71" layout-dx5="x:50%-35px;"/>
                <use id="R3" xlink:href="#RING-03" y="0" width="71" height="71" layout-dx5="x:50%-35px;"/>
            </g>
        </svg>
        <svg x="0" y="100" width="100%" height="40">
            <g>
                <rect x="0" y="0" rx="15" ry="15" width="100%" height="32" fill="#465b70" stroke="none" />
                <text id="UIC-TITLE-TXT" x="50%" y="21" class="css-txt-title" text-anchor="middle">Waiting compression...</text>
                <use id="UIC-TITLE-BTN-CANCEL" xlink:href="#UIS-CANCEL" y="10" width="12" height="12" layout-dx5="x:100%-30px;" style="cursor:pointer;"/>
            </g>
        </svg>
    </svg>
</svg>
