<?xml version="1.0" encoding="utf-8" standalone="no" ?>
<!DOCTYPE svg PUBLIC "-//W3C//DTD SVG 1.1//EN" "http://www.w3.org/Graphics/SVG/1.1/DTD/svg11.dtd">
<svg
	xmlns="http://www.w3.org/2000/svg"
	xmlns:xlink="http://www.w3.org/1999/xlink"
	version="1.1"
	id="UIC-DEXTUPLOADX5-PROGRESSIVE"
	onload="onLoadHandler(evt)" width="100%" height="100%">
    <script type="application/ecmascript" xlink:href="../module/dextuploadx5-common.js"/>
    <script type="application/ecmascript" xlink:href="../module/dextuploadx5-svg.js"/>
    <script type="application/ecmascript" xlink:href="./dextuploadx5-up-2-app.js"/>
    <style type="text/css">
        * { font-family: Roboto, "Droid Sans", AppleGothic, Verdana, "Malgun Gothic", sans-serif; }
        .css-txt-title { font-size: 10pt; fill: #fff; font-weight: bold; }
        .css-txt-filename { font-size: 9pt; fill: #6b6b6b; }
        .css-txt-size, .css-txt-speed { font-size: 24pt; fill: #edeff0; font-weight: bold; }
        .css-txt-cur-time-send, .css-txt-cur-speed-value { font-size: 12pt; fill: #224357; font-weight: bold; }
        .css-txt-cur-time-remain, .css-txt-cur-speed-unit { font-size: 12pt; fill: #959595; font-weight: bold; }
        .css-txt-total-time { font-size: 8.5pt; fill: #6b6b6b; }
        .css-txt-count { font-size: 8.5pt; fill: #fff; }
        .css-txt-progressive { font-size: 9pt; fill: #fff; }
    </style>
    <defs>
        <symbol id="UIS-CANCEL" viewBox="0 0 16 16">
            <path d="M0,3 l3,-3 l5,5 l5,-5 l3,3 l-5,5 l5,5 l-3,3 l-5,-5 l-5,5 l-3,-3 l5,-5 z" stroke="none" fill="white"/>
        </symbol>
        <symbol id="UIS-ARROW" viewBox="0 0 80 21">
            <path stroke="none" fill="#506470" d="M0,10 l70,-5 v11 z"/>
            <circle cx="70" cy="10" r="10" stroke="none" fill="#506470"/>
            <circle cx="70" cy="10" r="5" stroke="none" fill="#fff"/>
        </symbol>
        <symbol id="UIS-HASH-ARROW" viewBox="0 0 80 21">
            <path stroke="none" fill="#B2E1EF" d="M0,10 l70,-5 v11 z"/>
            <circle cx="70" cy="10" r="10" stroke="none" fill="#506470"/>
            <circle cx="70" cy="10" r="5" stroke="none" fill="#fff"/>
        </symbol>
    </defs>
    <svg id="UIC-MAIN-AREA" x="0" y="0" width="100%" height="100%">
        <svg x="0" y="0" width="100%" height="40">
            <rect x="0" y="0" width="100%" height="100%" stroke="none" fill="#465b70"/>
            <text id="UIC-TITLE-TXT" x="10" y="26" class="css-txt-title">UPLOADING</text>
            <use id="UIC-TITLE-BTN-CANCEL" xlink:href="#UIS-CANCEL" x="500" y="15" width="12" height="12" style="cursor:pointer;"/>
        </svg>
        <svg x="0" y="40" width="100%" height="234">
            <rect x="0" y="0" width="100%" height="100%" stroke="none" fill="#f7f7f7"/>
            <svg id="UIC-LEFT" x="0" y="0" width="50%" height="100%">
                <rect x="93" y="30" width="80" height="20" fill="#465b70" stroke="none"/>
                <text id="UIC-TXT-COUNT-VALUE" x="133" y="44" class="css-txt-count" text-anchor="middle">9999 / 9999</text>
                <path stroke="none" fill="#ffffff" d="M48,164 a85,85 0 0,1 170,0 z"/>
                <path stroke="#ebebeb" stroke-width="10" stroke-linecap="butt" fill="none" d="M48,164 a85,85 0 0,1 170,0"/>
                <path id="UIC-SIZE-GAUGE" stroke="#47C4E9" stroke-width="10" stroke-linecap="butt" fill="none" d="M48,164 a85,85 0 0,1 85,-85"/>
                <script type="text/ecmascript">
                    <![CDATA[
					var pl = svgh.getAsUnit("UIC-LEFT"), x = 0, y = 0;
					for (var i = 0; i <= 180; i += 2) {
						if (i % 10 == 0) {
							y = 164 - (Math.sin(getRadians(i)) * 90);
							x = 133 - (Math.cos(getRadians(i)) * 90);
						} else {
							y = 164 - (Math.sin(getRadians(i)) * 83);
							x = 133 - (Math.cos(getRadians(i)) * 83);	
						}						
						pl.append(svgh.createUnit("line").attp({ x1: 133, y1: 164, x2: x, y2: y, stroke: "#fff" }));
					}
				]]>
                </script>
                <path id="UIC-HASH-GAUGE" stroke="#B2E1EF" stroke-width="10" stroke-linecap="butt" fill="none" d="M58,164 a75,75 0 0,1 75,-75" style="display:none"/>
                <text x="133" y="140" class="css-txt-size" text-anchor="middle">SIZE</text>
                <use id="UIC-HASH-ARROW" xlink:href="#UIS-HASH-ARROW" x="133" y="154" width="80" height="21" transform="rotate(0, 133, 164), translate(-70, 0)" style="display:none"/>
                <use id="UIC-SIZE-ARROW" xlink:href="#UIS-ARROW" x="133" y="154" width="80" height="21" transform="rotate(0, 133, 164), translate(-70, 0)"/>
                <text x="133" y="208" text-anchor="middle">
                    <tspan id="UIC-TXT-CURRENT-TIME-SEND" class="css-txt-cur-time-send">00:00:00</tspan>
                    <tspan id="UIC-TXT-CURRENT-TIME-REMAIN" class="css-txt-cur-time-remain">(00:00:00)</tspan>
                </text>
            </svg>
            <svg id="UIC-RIGHT" x="50%" y="0" width="50%" height="100%">
                <path stroke="none" fill="#ffffff" d="M48,164 a85,85 0 0,1 170,0 z"/>
                <path stroke="#ebebeb" stroke-width="10" stroke-linecap="butt" fill="none" d="M48,164 a85,85 0 0,1 170,0"/>
                <path id="UIC-SPEED-GAUGE" stroke="#99DC11" stroke-width="10" stroke-linecap="butt" fill="none" d="M48,164 a85,85 0 0,1 85,-85"/>
                <script type="text/ecmascript">
                    <![CDATA[
					var pr = svgh.getAsUnit("UIC-RIGHT"), x = 0, y = 0;
					for (var i = 0; i <= 180; i += 2) {
						if (i % 10 == 0) {
							y = 164 - (Math.sin(getRadians(i)) * 90);
							x = 133 - (Math.cos(getRadians(i)) * 90);
						} else {
							y = 164 - (Math.sin(getRadians(i)) * 83);
							x = 133 - (Math.cos(getRadians(i)) * 83);	
						}						
						pr.append(svgh.createUnit("line").attp({ x1: 133, y1: 164, x2: x, y2: y, stroke: "#fff" }));
					}
				]]>
                </script>
                <text x="133" y="140" class="css-txt-speed" text-anchor="middle">SPEED</text>
                <use id="UIC-SPEED-ARROW" xlink:href="#UIS-ARROW" x="133" y="154" width="80" height="21" transform="rotate(0, 133, 164), translate(-70, 0)"/>
                <text x="133" y="208" text-anchor="middle">
                    <tspan id="UIC-TXT-CURRENT-SPEED-VALUE" class="css-txt-cur-speed-value">0</tspan>
                    <tspan id="UIC-TXT-CURRENT-SPEED-UNIT" class="css-txt-cur-speed-unit" >B/s</tspan>
                </text>
            </svg>
        </svg>
        <svg x="0" y="274" height="26" width="100%" >
            <rect x="0" y="0" width="100%" height="100%" stroke="none" fill="#ebebeb"/>
            <rect id="UIC-TXT-TOTAL-SIZE" x="0" y="0" width="50%" height="100%" stroke="none" fill="#d7d7d7"/>
            <text id="UIC-TXT-TOTAL-TIME-VALUE" class="css-txt-total-time" y="17" text-anchor="end" layout-dx5="x:100%-40px;">00:00:00 / 00:00:00</text>
            <svg x="20" y="0" height="100%" layout-dx5="width:100%-40px">
                <title id="UIC-AT-FILENAME"></title>
                <text id="UIC-TXT-FILENAME" class="css-txt-filename" x="0" y="17">File Name</text>
                <text id="UIC-TXT-WAIT" x="0" y="17" class="css-txt-progressive">Waiting server response...</text>
            </svg>
        </svg>
    </svg>
</svg>
